<svg width="71" height="71" viewBox="0 0 71 71" fill="none" xmlns="http://www.w3.org/2000/svg">
<circle cx="35.0156" cy="35.6172" r="35" fill="#F4F5FF"/>
<g clip-path="url(#clip0_1834_3872)">
<path d="M42.8818 44.5597L42.8818 44.5597L42.8836 44.5579L43.5456 43.9201C43.546 43.9197 43.5464 43.9193 43.5468 43.9189C43.951 43.5321 43.9443 42.9044 43.5592 42.5184L43.5574 42.5167L43.2309 42.1927C43.2309 42.1927 43.2309 42.1927 43.2308 42.1926C40.7567 39.7301 37.9972 38.466 35.05 38.5058C30.275 38.5699 26.9023 42.0697 26.7581 42.2207L26.7574 42.2214L26.44 42.5553L26.4398 42.5555C26.0613 42.954 26.0783 43.5818 26.4894 43.9559L27.167 44.5761L27.167 44.5761L27.1685 44.5775C27.5685 44.9406 28.1916 44.9257 28.5693 44.5283C28.5693 44.5282 28.5694 44.5281 28.5695 44.5281L28.8838 44.1974C29.067 44.0138 31.669 41.4388 35.0926 41.3869C37.1658 41.361 39.2072 42.2831 41.1585 44.2222C41.1589 44.2226 41.1592 44.2229 41.1596 44.2233L41.4796 44.5455L41.4796 44.5455L41.4848 44.5507C41.8678 44.9251 42.4876 44.9357 42.8818 44.5597Z" fill="#DE515A" stroke="#DE515A"/>
<path d="M49.4517 39.9347L49.4508 39.9356C48.9787 40.3859 48.2327 40.3741 47.7729 39.9245L47.7716 39.9232L47.7716 39.9232L47.1518 39.3084L47.1517 39.3082C43.3582 35.5376 39.3183 33.6793 35.1552 33.7316C28.2895 33.8265 23.1347 39.0326 22.9114 39.2581C22.9107 39.2588 22.91 39.2595 22.9094 39.2601L22.3093 39.8912C22.3093 39.8912 22.3093 39.8913 22.3092 39.8913C21.8587 40.3655 21.1112 40.3861 20.6294 39.9487L20.6293 39.9486L19.3352 38.7725C19.3352 38.7725 19.3352 38.7724 19.3351 38.7724C18.8475 38.3296 18.8254 37.5891 19.2764 37.1143L19.2765 37.1142L19.878 36.4815L19.8784 36.4812C20.1383 36.2089 26.353 29.7758 35.0937 29.6585M49.4517 39.9347L35.0937 29.6585M49.4517 39.9347L50.7085 38.7237C50.7087 38.7236 50.7088 38.7235 50.709 38.7233C51.1879 38.266 51.1814 37.5256 50.7129 37.0563L50.712 37.0555M49.4517 39.9347L50.712 37.0555M35.0937 29.6585C40.4516 29.5862 45.5077 31.8776 50.0923 36.4407L35.0937 29.6585C35.0937 29.6585 35.0937 29.6585 35.0937 29.6585ZM50.712 37.0555L50.0926 36.441L50.712 37.0555Z" fill="#2D53A4" stroke="#2D53A4" stroke-width="0.5"/>
<path d="M57.1137 31.2856L55.3231 33.0109C54.7911 33.5184 53.9477 33.5057 53.4286 32.9982L52.5463 32.1229C47.0964 26.7058 41.2573 24.0036 35.2106 24.0797C25.1025 24.2193 17.6025 31.9833 17.5246 32.0594L16.6682 32.9728C16.1622 33.5057 15.3188 33.531 14.7738 33.0363L12.9312 31.3617C12.3862 30.8669 12.3603 30.0423 12.8663 29.5095L13.7227 28.6087C14.0861 28.2282 22.8447 19.1701 35.1328 19.0052C42.6458 18.9037 49.7565 22.1133 56.2314 28.558L57.1137 29.4334C57.6458 29.9535 57.6458 30.7781 57.1137 31.2856Z" fill="#DE515A"/>
<ellipse cx="35.0084" cy="48.9628" rx="3.29741" ry="3.26923" fill="#2D53A4"/>
</g>
<defs>
<clipPath id="clip0_1834_3872">
<rect width="40" height="45" fill="white" transform="translate(12.5156 55.6172) rotate(-90)"/>
</clipPath>
</defs>
</svg>
