<svg width="287" height="312" viewBox="0 0 287 312" fill="none" xmlns="http://www.w3.org/2000/svg">
<path d="M135.174 309.23C133.409 309.803 83.0795 309.152 81.1806 307.906C80.4508 307.451 80.1213 300.116 79.9722 291.252V290.969C79.9722 289.143 79.9094 287.262 79.9094 285.358C79.9094 285.091 79.9094 284.833 79.9094 284.574C79.8388 271.776 80.0428 258.499 80.0428 258.499L113.705 258.836L112.693 284.699V285.718L112.489 291.071V291.62C112.489 291.62 131.643 300.476 133.581 302.059C135.519 303.642 136.94 308.674 135.174 309.23Z" fill="#E59090"/>
<path d="M120.051 295.021C119.915 294.979 119.845 294.94 119.84 294.903L120.051 295.021Z" fill="#EBB129"/>
<path d="M135.178 309.231C133.413 309.795 83.0836 309.152 81.1847 307.906C80.5334 307.498 80.196 301.636 80.0312 294.144C89.2512 296.064 124.993 303.282 125.966 300.233C126.351 299.034 123.298 296.957 121.36 295.789C126.649 298.305 132.495 301.182 133.53 302.059C135.453 303.603 136.944 308.666 135.178 309.231Z" fill="#030629"/>
<path d="M69.7031 113.688C69.7031 113.688 77.2596 198.629 78.4915 205.111C78.774 206.592 78.9545 214.617 79.0722 224.939C79.3311 247.448 79.1742 288.062 79.1742 288.062H114.649C114.649 288.062 113.598 217.698 112.029 204.75C110.459 191.803 100.423 113.688 100.423 113.688H69.7031Z" fill="#2D53A4"/>
<path d="M113.049 281.886C107.517 281.777 109.125 281.73 103.57 281.675C100.855 281.675 83.0503 281.495 80.5237 281.918C80.5091 281.918 80.4951 281.924 80.4848 281.934C80.4745 281.944 80.4688 281.958 80.4688 281.973C80.4688 281.987 80.4745 282.001 80.4848 282.011C80.4951 282.022 80.5091 282.028 80.5237 282.028C83.0582 282.443 100.855 282.294 103.57 282.263C109.102 282.208 107.493 282.169 113.049 282.051C113.151 282.051 113.151 281.894 113.049 281.886Z" fill="#030629"/>
<path d="M85.9109 241.665C85.8743 236.524 85.8377 231.385 85.8011 226.249C85.7618 221.272 85.8011 216.288 85.5343 211.311C85.0556 201.248 83.0076 191.341 81.5481 181.388C80.0886 171.434 78.8802 161.434 77.7817 151.426C76.5497 140.195 75.4276 128.956 74.3056 117.725C74.3056 117.646 74.18 117.646 74.1879 117.725C75.8592 137.781 77.7267 157.837 80.5045 177.775C81.195 182.739 81.9509 187.702 82.7722 192.666C83.5961 197.666 84.42 202.674 84.8202 207.729C85.2204 212.785 85.2675 217.644 85.3146 222.62C85.3669 227.762 85.4192 232.898 85.4715 238.029C85.5814 249.44 85.6912 267.027 85.8011 278.407C85.8011 278.453 85.8193 278.497 85.8516 278.529C85.884 278.561 85.9279 278.579 85.9737 278.579C86.0195 278.579 86.0634 278.561 86.0958 278.529C86.1281 278.497 86.1463 278.453 86.1463 278.407C86.0679 268.171 85.9894 251.846 85.9109 241.665Z" fill="#030629"/>
<path d="M62.2695 113.688C62.2695 113.688 77.3039 198.629 78.5359 205.111C78.8183 206.592 78.9988 214.617 79.1165 224.939L96.0106 113.688H62.2695Z" fill="#030629"/>
<path d="M45.1273 311.965C43.3382 311.471 1.59347 283.382 0.683241 281.305C0.330137 280.521 4.07304 274.212 8.81249 266.712L8.96158 266.477C9.93458 264.909 10.9468 263.342 11.9904 261.774C12.1395 261.555 12.2808 261.335 12.4142 261.108C19.3821 250.363 26.8365 239.367 26.8365 239.367L54.8102 258.075L39.7915 279.134L39.203 279.965L36.0643 284.33L35.7504 284.777C35.7504 284.777 46.9085 302.67 47.6696 305.06C48.4308 307.451 46.9085 312.459 45.1273 311.965Z" fill="#E59090"/>
<path d="M40.9465 292.161C40.8682 292.068 40.8291 292.005 40.8369 291.974L40.9465 292.161Z" fill="#EBB129"/>
<path d="M45.1203 311.967C43.3312 311.481 1.59432 283.384 0.684097 281.307C0.378074 280.641 3.03813 275.93 6.81242 269.903C12.6269 275.389 40.734 301.856 43.2371 299.685C43.7707 299.231 43.551 297.993 43.0723 296.645C45.3636 300.493 47.3959 304.019 47.7019 304.999C48.4473 307.405 46.9094 312.46 45.1203 311.967Z" fill="#030629"/>
<path d="M39.3939 284.778L9.12109 262.99C9.12109 262.99 48.2764 210.793 48.4569 206.02C48.7237 198.919 52.1292 169.623 54.9933 145.899C54.9933 145.899 49.5633 133.062 59.7013 113.656H100.426C100.426 113.656 97.7267 132.105 93.05 143.862C89.9117 144.959 86.8806 146.342 83.9949 147.992C83.9949 147.992 80.6286 205.887 79.6164 212.407C76.9328 229.626 39.3939 284.778 39.3939 284.778Z" fill="#2D53A4"/>
<path d="M41.4932 277.426C37.0284 274.158 38.3545 275.028 33.8505 271.815C31.6455 270.247 17.1526 259.91 14.8456 258.797C14.7907 258.797 14.7358 258.852 14.775 258.891C16.6111 260.686 31.2532 270.765 33.5131 272.293C38.0799 275.428 36.8009 274.48 41.3598 277.56C41.3775 277.577 41.4015 277.587 41.4265 277.587C41.4515 277.587 41.4755 277.577 41.4932 277.56C41.5109 277.542 41.5208 277.518 41.5208 277.493C41.5208 277.468 41.5109 277.444 41.4932 277.426Z" fill="#030629"/>
<path d="M61.6306 130.969C62.5487 130.734 63.5452 130.664 64.4868 130.515C65.2715 130.389 66.0091 130.256 66.7624 130.092C68.2067 129.831 69.5758 129.256 70.7721 128.407C72.0746 127.388 72.7416 125.844 73.3772 124.363C73.746 123.485 74.1619 122.615 74.5307 121.745C74.719 121.322 74.9073 120.898 75.1035 120.475C75.3747 119.987 75.6132 119.482 75.8175 118.963C75.8175 118.884 75.9666 118.963 75.9352 118.963C75.809 119.32 75.7016 119.683 75.6135 120.052C75.4801 120.483 75.3624 120.906 75.229 121.329C74.9936 122.113 74.7661 122.842 74.5228 123.594C74.1431 124.974 73.6033 126.305 72.9142 127.56C71.5175 129.778 68.9909 130.695 66.5348 130.985C65.8208 131.079 65.0989 131.126 64.377 131.165C63.4712 131.248 62.5599 131.248 61.6541 131.165C61.6379 131.156 61.6241 131.142 61.6138 131.126C61.6034 131.11 61.5969 131.092 61.5946 131.073C61.5924 131.054 61.5944 131.035 61.6007 131.017C61.6069 130.999 61.6171 130.983 61.6306 130.969Z" fill="#030629"/>
<path d="M94.5931 143.023C90.9238 144.358 87.377 146.008 83.9922 147.953C83.8588 148.032 83.9451 148.235 84.0863 148.173C87.6644 146.644 91.3053 145.179 94.7893 143.47C94.8486 143.444 94.8952 143.396 94.9187 143.336C94.9423 143.275 94.9409 143.208 94.9149 143.149C94.8888 143.09 94.8403 143.043 94.78 143.02C94.7197 142.996 94.6524 142.997 94.5931 143.023Z" fill="#030629"/>
<path d="M95.7298 118.547C95.7298 118.422 95.5023 118.398 95.5023 118.547C95.5023 122.78 95.259 126.502 94.9059 130.46C94.7333 132.302 93.2581 142.451 90.0645 141.715C89.5309 141.589 89.2798 141.064 89.1778 140.265C89.186 139.206 89.3283 138.153 89.6015 137.13C89.9546 135.006 90.2371 132.874 90.3862 130.727C90.7604 126.728 90.7183 122.702 90.2606 118.712C90.2606 118.685 90.2499 118.659 90.2308 118.64C90.2116 118.621 90.1857 118.61 90.1586 118.61C90.1316 118.61 90.1056 118.621 90.0865 118.64C90.0674 118.659 90.0566 118.685 90.0566 118.712C90.1486 124.256 89.8233 129.8 89.0836 135.296C88.6834 137.929 87.3495 141.911 90.1194 142.35C92.8893 142.788 94.7568 136.08 95.1021 134.277C95.9909 129.083 96.2019 123.796 95.7298 118.547Z" fill="#030629"/>
<path d="M90.1497 141.973C89.8649 142.657 89.6264 143.358 89.4356 144.074C89.2281 144.627 89.127 145.215 89.1375 145.806C89.1375 145.916 89.2944 145.931 89.3572 145.853C89.6912 145.334 89.9402 144.765 90.0948 144.168C90.338 143.517 90.5969 142.875 90.8245 142.216C90.845 142.13 90.833 142.039 90.7908 141.961C90.7486 141.884 90.6792 141.824 90.5957 141.794C90.5123 141.764 90.4207 141.765 90.3384 141.799C90.2561 141.832 90.189 141.894 90.1497 141.973Z" fill="#030629"/>
<path d="M62.7053 116.432C61.612 118.689 60.7066 121.033 59.9981 123.438C59.2842 125.836 58.7595 128.286 58.4288 130.766C58.0865 133.238 57.9866 135.737 58.1306 138.227C58.28 140.715 58.7171 143.176 59.4332 145.563V145.61V145.657C58.5282 155.799 57.563 165.93 56.5377 176.051C55.5019 186.184 54.5289 196.303 53.1322 206.405C53.0537 207.04 52.9047 207.682 52.7948 208.317C52.6001 208.952 52.337 209.565 52.0101 210.143C51.3981 211.28 50.7233 212.361 50.0563 213.451C48.6988 215.614 47.2942 217.738 45.8818 219.854C43.0413 224.086 40.1144 228.248 37.1797 232.394C31.3182 240.725 25.3154 248.946 19.2734 257.144C25.1533 248.826 30.9808 240.479 36.756 232.104C39.6436 227.924 42.4999 223.712 45.3247 219.47C46.7293 217.346 48.1181 215.222 49.4599 213.067C50.1191 211.985 50.786 210.904 51.3745 209.791C51.666 209.264 51.8976 208.707 52.0651 208.129C52.1749 207.51 52.3083 206.922 52.3868 206.28C53.0851 201.264 53.6109 196.193 54.168 191.138L55.7923 175.964L58.931 145.595V145.696C58.227 143.266 57.8083 140.762 57.6833 138.235C57.5678 135.717 57.7124 133.193 58.1149 130.704C58.5058 128.22 59.0882 125.77 59.8569 123.376C60.6183 120.988 61.5708 118.666 62.7053 116.432Z" fill="#030629"/>
<path d="M96.6754 40.9642C94.6588 37.1787 90.0763 35.2899 85.227 35.0705C80.3777 34.851 74.3043 35.7523 71.9817 42.9941C70.0906 48.8721 70.6006 55.1656 68.9293 61.8038C67.2579 68.4421 55.3701 82.8316 66.1044 93.7961C75.7403 103.64 100.442 102.629 104.758 88.1375C108.179 76.64 96.3537 62.4308 95.9614 57.4619C95.569 52.493 98.8961 45.1102 96.6754 40.9642Z" fill="#050A3A"/>
<path d="M94.5217 74.462C108.771 75.8806 125.022 73.5293 128.906 69.4147C133.41 64.6496 140.912 45.1893 142.614 31.5523C142.983 28.5662 120.251 27.4847 120.212 29.5929C120.086 36.8425 113.016 56.1695 112.506 57.2041C111.918 58.3875 101.176 62.557 93.839 64.5634C82.2807 67.7218 84.4307 73.4588 94.5217 74.462Z" fill="#E59090"/>
<path d="M124.613 73.4121L111.494 57.4238C111.494 57.4238 101.104 60.8409 90.6761 65.2612C80.2477 69.6815 83.3551 74.0077 97.5106 75.5517C106.601 76.3922 115.768 75.6685 124.613 73.4121Z" fill="#EBB129"/>
<path d="M96.0997 72.4939C95.8638 72.4939 95.6332 72.5638 95.4371 72.6947C95.2409 72.8256 95.0881 73.0117 94.9978 73.2293C94.9075 73.447 94.8839 73.6865 94.9299 73.9176C94.976 74.1487 95.0895 74.361 95.2563 74.5276C95.4231 74.6942 95.6357 74.8076 95.867 74.8536C96.0984 74.8996 96.3382 74.876 96.5561 74.7858C96.7741 74.6957 96.9604 74.543 97.0914 74.3471C97.2225 74.1512 97.2924 73.9208 97.2924 73.6852C97.2924 73.5288 97.2616 73.3739 97.2016 73.2293C97.1417 73.0848 97.0538 72.9535 96.9431 72.8429C96.8323 72.7322 96.7009 72.6445 96.5561 72.5846C96.4114 72.5248 96.2563 72.4939 96.0997 72.4939ZM96.0997 74.6414C95.9104 74.6414 95.7253 74.5853 95.5679 74.4802C95.4104 74.3752 95.2877 74.2258 95.2153 74.0511C95.1428 73.8764 95.1239 73.6842 95.1608 73.4987C95.1977 73.3132 95.2889 73.1428 95.4228 73.0091C95.5567 72.8754 95.7273 72.7843 95.913 72.7474C96.0987 72.7105 96.2911 72.7295 96.4661 72.8018C96.641 72.8742 96.7905 72.9968 96.8957 73.154C97.0009 73.3113 97.057 73.4961 97.057 73.6852C97.057 73.9388 96.9562 74.182 96.7766 74.3613C96.5971 74.5407 96.3536 74.6414 96.0997 74.6414ZM106.85 72.6193C106.532 72.6214 106.228 72.7484 106.003 72.9728C105.778 73.1973 105.651 73.5011 105.649 73.8185C105.65 73.9749 105.682 74.1296 105.743 74.2737C105.804 74.4179 105.893 74.5486 106.004 74.6585C106.116 74.7684 106.248 74.8553 106.393 74.9142C106.538 74.9731 106.693 75.0029 106.85 75.0019C107.006 75.0029 107.16 74.9731 107.304 74.9139C107.449 74.8548 107.58 74.7677 107.69 74.6576C107.8 74.5475 107.887 74.4166 107.947 74.2726C108.006 74.1285 108.036 73.9742 108.035 73.8185C108.036 73.662 108.006 73.5069 107.947 73.362C107.888 73.217 107.801 73.0851 107.691 72.9738C107.581 72.8624 107.45 72.7738 107.306 72.713C107.161 72.6522 107.006 72.6204 106.85 72.6193ZM106.85 74.7746C106.658 74.7762 106.471 74.7208 106.311 74.6154C106.151 74.5101 106.026 74.3596 105.952 74.1832C105.878 74.0067 105.858 73.8122 105.895 73.6245C105.932 73.4368 106.024 73.2643 106.159 73.129C106.295 72.9937 106.468 72.9017 106.656 72.8648C106.844 72.8279 107.038 72.8476 107.215 72.9215C107.392 72.9955 107.542 73.1202 107.648 73.28C107.753 73.4397 107.809 73.6271 107.807 73.8185C107.805 74.0714 107.704 74.3134 107.524 74.4923C107.345 74.6712 107.103 74.7726 106.85 74.7746ZM101.647 67.9247C101.477 67.8968 101.302 67.9063 101.135 67.9525C100.969 67.9987 100.814 68.0806 100.682 68.1924C100.551 68.3043 100.445 68.4434 100.372 68.6002C100.299 68.7569 100.262 68.9276 100.262 69.1003C100.262 69.2731 100.299 69.4438 100.372 69.6005C100.445 69.7573 100.551 69.8964 100.682 70.0083C100.814 70.1201 100.969 70.202 101.135 70.2482C101.302 70.2944 101.477 70.3039 101.647 70.276C101.927 70.2303 102.18 70.087 102.364 69.8716C102.547 69.6563 102.647 69.3829 102.647 69.1003C102.647 68.8178 102.547 68.5444 102.364 68.3291C102.18 68.1137 101.927 67.9704 101.647 67.9247ZM101.647 70.0722C101.521 70.0732 101.396 70.0493 101.279 70.0017C101.162 69.9541 101.055 69.8838 100.965 69.7949C100.876 69.706 100.804 69.6003 100.756 69.4837C100.707 69.3672 100.682 69.2423 100.682 69.116C100.67 68.9827 100.686 68.8482 100.729 68.7213C100.772 68.5944 100.84 68.4778 100.931 68.379C101.021 68.2801 101.131 68.2011 101.254 68.1471C101.377 68.0931 101.509 68.0652 101.643 68.0652C101.778 68.0652 101.91 68.0931 102.033 68.1471C102.155 68.2011 102.266 68.2801 102.356 68.379C102.446 68.4778 102.515 68.5944 102.558 68.7213C102.601 68.8482 102.617 68.9827 102.605 69.116C102.605 69.3696 102.504 69.6128 102.324 69.7921C102.145 69.9714 101.901 70.0722 101.647 70.0722ZM111.574 67.721C111.256 67.723 110.953 67.8503 110.73 68.0749C110.506 68.2996 110.381 68.6034 110.381 68.9201C110.427 69.1989 110.57 69.4525 110.786 69.6354C111.001 69.8183 111.275 69.9188 111.558 69.9188C111.841 69.9188 112.114 69.8183 112.33 69.6354C112.546 69.4525 112.689 69.1989 112.735 68.9201C112.743 68.6033 112.626 68.2961 112.408 68.0656C112.191 67.835 111.891 67.6999 111.574 67.6896V67.721ZM111.574 69.8763C111.44 69.8883 111.305 69.8724 111.178 69.8297C111.051 69.7869 110.935 69.7182 110.836 69.6279C110.737 69.5375 110.658 69.4276 110.603 69.3051C110.549 69.1825 110.521 69.0501 110.521 68.9162C110.521 68.7823 110.549 68.6498 110.603 68.5273C110.658 68.4047 110.737 68.2948 110.836 68.2045C110.935 68.1142 111.051 68.0454 111.178 68.0026C111.305 67.9599 111.44 67.944 111.574 67.9561C111.813 67.9778 112.037 68.0883 112.199 68.2659C112.362 68.4436 112.452 68.6755 112.452 68.9162C112.452 69.1568 112.362 69.3887 112.199 69.5664C112.037 69.7441 111.813 69.8546 111.574 69.8763ZM117.812 72.1099C117.494 72.112 117.19 72.2389 116.965 72.4634C116.74 72.6878 116.613 72.9916 116.611 73.309C116.611 73.5462 116.682 73.778 116.813 73.9752C116.945 74.1724 117.133 74.3261 117.352 74.4169C117.572 74.5076 117.813 74.5314 118.046 74.4851C118.279 74.4388 118.493 74.3246 118.661 74.1569C118.829 73.9892 118.943 73.7756 118.989 73.543C119.036 73.3104 119.012 73.0693 118.921 72.8501C118.83 72.631 118.676 72.4438 118.479 72.312C118.281 72.1802 118.049 72.1099 117.812 72.1099ZM117.812 74.2652C117.62 74.2667 117.432 74.2113 117.273 74.106C117.113 74.0007 116.988 73.8502 116.914 73.6737C116.84 73.4973 116.82 73.3028 116.857 73.1151C116.894 72.9273 116.986 72.7549 117.121 72.6196C117.257 72.4843 117.43 72.3923 117.618 72.3554C117.805 72.3184 118 72.3382 118.177 72.4121C118.354 72.486 118.504 72.6108 118.61 72.7705C118.715 72.9302 118.771 73.1177 118.769 73.309C118.759 73.5565 118.654 73.7906 118.476 73.9628C118.297 74.135 118.06 74.232 117.812 74.2338V74.2652ZM121.398 69.5627C121.312 69.6718 121.202 69.7597 121.077 69.8195C120.952 69.8793 120.815 69.9094 120.676 69.9076C120.421 69.9076 120.177 69.8071 119.996 69.628C119.815 69.4489 119.713 69.2057 119.711 68.9514C119.71 68.7793 119.757 68.6103 119.845 68.4626C119.934 68.3148 120.061 68.1939 120.213 68.1128L120.056 67.9326C119.908 68.0204 119.781 68.1391 119.684 68.2804C119.586 68.4218 119.521 68.5826 119.491 68.7517C119.462 68.9208 119.469 69.0943 119.513 69.2603C119.557 69.4262 119.636 69.5808 119.745 69.7133C119.855 69.8458 119.991 69.9532 120.146 70.0281C120.3 70.103 120.469 70.1436 120.641 70.1472C120.813 70.1507 120.984 70.1172 121.141 70.0488C121.299 69.9804 121.44 69.8787 121.555 69.7509L121.398 69.5627ZM106.371 62.8775C106.2 62.8495 106.026 62.859 105.859 62.9052C105.692 62.9514 105.538 63.0333 105.406 63.1452C105.274 63.257 105.168 63.3961 105.096 63.5529C105.023 63.7097 104.986 63.8803 104.986 64.0531C104.986 64.2258 105.023 64.3965 105.096 64.5532C105.168 64.71 105.274 64.8491 105.406 64.961C105.538 65.0728 105.692 65.1547 105.859 65.2009C106.026 65.2471 106.2 65.2566 106.371 65.2287C106.65 65.183 106.904 65.0397 107.087 64.8243C107.27 64.609 107.371 64.3356 107.371 64.0531C107.371 63.7705 107.27 63.4971 107.087 63.2818C106.904 63.0664 106.65 62.9231 106.371 62.8775ZM106.371 65.0249C106.245 65.0259 106.119 65.002 106.002 64.9544C105.885 64.9068 105.779 64.8365 105.689 64.7476C105.599 64.6587 105.528 64.553 105.48 64.4365C105.431 64.3199 105.406 64.195 105.406 64.0687C105.406 63.8151 105.507 63.5719 105.686 63.3926C105.866 63.2133 106.109 63.1126 106.363 63.1126C106.617 63.1126 106.861 63.2133 107.04 63.3926C107.22 63.5719 107.321 63.8151 107.321 64.0687C107.307 64.3106 107.2 64.538 107.024 64.7041C106.847 64.8703 106.614 64.9626 106.371 64.9622V65.0249ZM117.357 64.6409C117.204 64.7439 117.023 64.7985 116.839 64.7976C116.65 64.7984 116.466 64.7435 116.308 64.64C116.151 64.5364 116.028 64.3888 115.954 64.2155C115.88 64.0423 115.859 63.8512 115.894 63.6661C115.928 63.4811 116.017 63.3103 116.148 63.1753L115.999 62.9872C115.887 63.0994 115.798 63.2326 115.737 63.3792C115.677 63.5258 115.646 63.6829 115.646 63.8414C115.646 63.9975 115.677 64.1521 115.737 64.2961C115.797 64.4402 115.885 64.5711 115.996 64.6811C116.107 64.7911 116.238 64.8781 116.383 64.9371C116.528 64.9961 116.682 65.0259 116.839 65.0249C117.074 65.0273 117.305 64.956 117.498 64.8211L117.357 64.6409ZM112.382 58.5904L112.044 58.1828C112.121 58.3251 112.161 58.4838 112.162 58.6453C112.162 58.8363 112.105 59.0229 111.999 59.1816C111.892 59.3403 111.741 59.4639 111.564 59.5366C111.388 59.6093 111.193 59.628 111.006 59.5901C110.818 59.5523 110.646 59.4597 110.512 59.3241C110.377 59.1885 110.286 59.016 110.249 58.8285C110.213 58.641 110.233 58.4469 110.307 58.2709C110.382 58.0949 110.507 57.9449 110.666 57.8399C110.826 57.7349 111.014 57.6797 111.205 57.6813C111.437 57.6815 111.661 57.7681 111.832 57.9242L111.479 57.4932L110.279 57.8929C110.094 58.1117 109.996 58.3906 110.004 58.6766C110.006 58.9933 110.134 59.2963 110.359 59.5195C110.583 59.7426 110.888 59.8679 111.205 59.8679C111.361 59.8679 111.516 59.837 111.66 59.7771C111.804 59.7171 111.935 59.6292 112.045 59.5185C112.155 59.4078 112.243 59.2764 112.302 59.1319C112.361 58.9874 112.391 58.8327 112.39 58.6766C112.4 58.6671 112.408 58.6555 112.414 58.6427C112.419 58.6299 112.422 58.6161 112.422 58.6022C112.422 58.5882 112.419 58.5744 112.414 58.5616C112.408 58.5488 112.4 58.5372 112.39 58.5277L112.382 58.5904ZM96.0448 63.1361C95.8856 63.1347 95.7279 63.1668 95.5818 63.2301C95.3642 63.3221 95.1783 63.4758 95.0472 63.6722C94.9161 63.8686 94.8455 64.0991 94.8442 64.3352C94.8453 64.4916 94.8771 64.6464 94.938 64.7905C94.9989 64.9346 95.0876 65.0654 95.1991 65.1753C95.3106 65.2852 95.4427 65.3721 95.5878 65.431C95.7329 65.4899 95.8882 65.5197 96.0448 65.5186C96.2007 65.5197 96.3552 65.4898 96.4995 65.4307C96.6437 65.3716 96.7747 65.2845 96.8849 65.1744C96.9952 65.0643 97.0824 64.9334 97.1416 64.7893C97.2008 64.6453 97.2307 64.4909 97.2297 64.3352C97.2307 64.1788 97.2009 64.0237 97.1419 63.8787C97.0829 63.7338 96.9959 63.6019 96.8859 63.4905C96.7759 63.3792 96.6449 63.2906 96.5006 63.2298C96.3563 63.1689 96.2014 63.1371 96.0448 63.1361ZM96.0448 65.2914C95.8532 65.2929 95.6656 65.2375 95.5057 65.1322C95.3457 65.0268 95.2208 64.8764 95.1468 64.6999C95.0728 64.5234 95.053 64.329 95.09 64.1412C95.127 63.9535 95.2191 63.781 95.3545 63.6458C95.49 63.5105 95.6627 63.4185 95.8506 63.3815C96.0385 63.3446 96.2333 63.3644 96.4099 63.4383C96.5866 63.5122 96.7373 63.637 96.8427 63.7967C96.9482 63.9564 97.0037 64.1439 97.0021 64.3352C97.0021 64.5895 96.9015 64.8335 96.7222 65.0141C96.5429 65.1947 96.2994 65.2971 96.0448 65.2992V65.2914ZM90.5521 67.6818C90.3165 67.6818 90.0862 67.7514 89.8903 67.882C89.6943 68.0126 89.5414 68.1982 89.4509 68.4154C89.3604 68.6326 89.3363 68.8717 89.3817 69.1026C89.4271 69.3335 89.5399 69.5457 89.7059 69.7127C89.872 69.8796 90.0838 69.9936 90.3146 70.0405C90.5454 70.0873 90.785 70.0649 91.0031 69.9759C91.2211 69.8869 91.408 69.7355 91.54 69.5406C91.672 69.3457 91.7432 69.1162 91.7448 68.8809C91.7438 68.7214 91.7109 68.5637 91.6482 68.4171C91.5854 68.2704 91.494 68.1377 91.3793 68.0268C91.2646 67.9159 91.1289 67.8289 90.9801 67.771C90.8313 67.7131 90.6724 67.6854 90.5128 67.6896L90.5521 67.6818ZM90.5521 69.8371C90.3608 69.8371 90.1739 69.7803 90.015 69.674C89.8562 69.5678 89.7325 69.4167 89.6596 69.2401C89.5868 69.0635 89.5682 68.8693 89.6061 68.6821C89.6439 68.4949 89.7366 68.3231 89.8724 68.1886C90.0082 68.0541 90.1809 67.9629 90.3686 67.9266C90.5564 67.8903 90.7507 67.9105 90.9269 67.9847C91.1031 68.0589 91.2533 68.1837 91.3584 68.3432C91.4635 68.5028 91.5188 68.6899 91.5172 68.8809C91.5162 69.0105 91.4893 69.1387 91.438 69.2578C91.3867 69.3768 91.312 69.4845 91.2184 69.5743C91.1248 69.6641 91.0142 69.7344 90.893 69.7808C90.7718 69.8273 90.6426 69.8491 90.5128 69.8449L90.5521 69.8371Z" fill="white"/>
<path d="M117.982 72.7383C114.372 68.5892 110.995 64.2432 107.867 59.7203C107.867 59.6733 107.922 59.6185 107.961 59.6733C108.746 60.7706 114.529 67.6596 118.084 72.6834C118.139 72.7382 118.044 72.7853 117.982 72.7383Z" fill="#050A3A"/>
<path opacity="0.1" d="M116.447 63.4648L124.608 73.4105C115.762 75.6616 106.594 76.38 97.505 75.5344C92.3261 74.9701 88.6303 74.0296 86.5195 72.854L116.447 63.4648Z" fill="#030629"/>
<path d="M126.191 33.5976C125.312 31.3561 120.957 18.7066 120.423 15.5716C119.443 9.84247 119.694 3.7058 121.946 2.77315C123.743 2.03644 125.273 5.12437 125.273 5.12437C125.273 5.12437 125.908 1.27621 128.364 1.08811C130.82 0.900012 130.985 5.14004 130.985 5.14004C130.985 5.14004 131.927 1.22134 134.391 1.22134C136.854 1.22134 136.321 5.42219 136.321 5.42219C136.321 5.42219 137.019 1.81699 139.052 2.65559C141.5 3.66661 139.467 10.1795 139.962 13.6279C140.032 14.1609 142.496 22.0923 143.163 27.4923C143.332 29.1901 143.028 30.9016 142.284 32.4377L126.191 33.5976Z" fill="#E59090"/>
<path d="M136.574 5.27425C135.099 10.0629 135.279 12.4141 136.574 17.1871C136.574 17.2811 136.464 17.336 136.433 17.242C134.746 12.6884 134.079 9.77291 136.354 5.18804C136.456 4.96075 136.645 5.04696 136.574 5.27425Z" fill="#030629"/>
<path d="M131.146 4.88928C130.471 10.0776 130.856 12.6091 132.245 17.6015C132.245 17.6721 132.151 17.7113 132.127 17.6015C130.346 12.8207 129.522 9.95224 130.879 4.85793C130.942 4.66983 131.178 4.65416 131.146 4.88928Z" fill="#030629"/>
<path d="M125.322 5.35936C125.157 10.4302 125.534 13.1968 127.637 17.8365C127.644 17.8577 127.644 17.8808 127.635 17.9016C127.627 17.9224 127.611 17.9395 127.592 17.9499C127.572 17.9603 127.549 17.9633 127.527 17.9583C127.505 17.9533 127.486 17.9407 127.472 17.9227C124.867 13.4162 124.373 9.94423 125.165 5.38287C125.22 5.0537 125.33 5.03802 125.322 5.35936Z" fill="#030629"/>
<path d="M123.99 34.8201C123.99 34.8201 119.337 30.5879 117.713 28.2837C116.088 25.9795 113.146 15.1404 115.461 14.3724C118.434 13.3848 121.361 19.3099 122.413 22.3978C122.413 22.3978 129.302 20.1093 132.323 23.9026C135.344 27.6959 123.99 34.8201 123.99 34.8201Z" fill="#E59090"/>
<path d="M121.527 20.2188C121.912 20.9084 122.257 21.6138 122.602 22.3192L122.351 22.1859C123.443 21.8798 124.568 21.7087 125.702 21.6765C126.836 21.6424 127.97 21.7344 129.084 21.9508C130.203 22.1595 131.286 22.5263 132.301 23.0402C133.311 23.5402 134.237 24.1932 135.047 24.976C134.11 24.416 133.125 23.9387 132.105 23.5496C131.09 23.1622 130.038 22.8786 128.966 22.7032C126.821 22.3392 124.632 22.3074 122.477 22.6092H122.273L122.218 22.4446C121.967 21.7314 121.731 20.979 121.527 20.2188Z" fill="#030629"/>
<path d="M100.447 100.631V113.688H59.7461C59.7461 113.688 65.4193 80.6772 76.6716 69.3208C82.3055 63.6387 88.6457 64.3049 92.5534 68.5371C93.5421 69.6108 101.97 83.6476 103.021 89.8626C103.931 95.341 100.447 100.631 100.447 100.631Z" fill="#EBB129"/>
<path d="M77.623 86.9618C77.306 86.9638 77.0026 87.0911 76.7792 87.3158C76.5557 87.5404 76.4303 87.8442 76.4303 88.1609C76.485 88.4325 76.6321 88.6768 76.8466 88.8523C77.0612 89.0278 77.33 89.1237 77.6073 89.1237C77.8847 89.1237 78.1535 89.0278 78.368 88.8523C78.5826 88.6768 78.7297 88.4325 78.7844 88.1609C78.7826 87.8501 78.6608 87.552 78.4445 87.3287C78.2282 87.1053 77.9339 86.9739 77.623 86.9618ZM77.623 89.1171C77.4315 89.1186 77.2438 89.0632 77.0839 88.9579C76.924 88.8525 76.7991 88.7021 76.725 88.5256C76.651 88.3491 76.6312 88.1547 76.6682 87.9669C76.7052 87.7792 76.7973 87.6067 76.9327 87.4714C77.0682 87.3361 77.2409 87.2442 77.4288 87.2072C77.6168 87.1703 77.8115 87.19 77.9882 87.264C78.1648 87.3379 78.3155 87.4627 78.421 87.6224C78.5264 87.7821 78.5819 87.9696 78.5803 88.1609C78.5803 88.4145 78.4795 88.6577 78.2999 88.837C78.1204 89.0163 77.8769 89.1171 77.623 89.1171ZM90.5153 67.6896C90.2797 67.6896 90.0494 67.7593 89.8535 67.8899C89.6575 68.0204 89.5046 68.206 89.4141 68.4232C89.3236 68.6405 89.2995 68.8796 89.3449 69.1104C89.3903 69.3413 89.5031 69.5536 89.6691 69.7205C89.8352 69.8874 90.047 70.0015 90.2778 70.0483C90.5086 70.0952 90.7482 70.0727 90.9663 69.9837C91.1843 69.8948 91.3712 69.7433 91.5032 69.5484C91.6352 69.3536 91.7064 69.124 91.708 68.8887C91.708 68.5721 91.5826 68.2682 91.3591 68.0436C91.1357 67.8189 90.8323 67.6917 90.5153 67.6896ZM90.5153 69.8449C90.324 69.8449 90.1371 69.7882 89.9783 69.6819C89.8194 69.5756 89.6957 69.4246 89.6228 69.248C89.55 69.0714 89.5314 68.8771 89.5693 68.6899C89.6071 68.5027 89.6998 68.331 89.8356 68.1965C89.9714 68.062 90.1441 67.9708 90.3318 67.9345C90.5196 67.8982 90.7139 67.9184 90.8901 67.9926C91.0663 68.0667 91.2165 68.1915 91.3216 68.3511C91.4267 68.5106 91.482 68.6978 91.4804 68.8887C91.4763 69.1424 91.3731 69.3844 91.1927 69.5631C91.0124 69.7418 90.7693 69.8429 90.5153 69.8449ZM85.5012 72.7291C85.222 72.7748 84.9682 72.9181 84.785 73.1334C84.6019 73.3488 84.5013 73.6221 84.5013 73.9047C84.5013 74.1872 84.6019 74.4606 84.785 74.6759C84.9682 74.8913 85.222 75.0346 85.5012 75.0803C85.6718 75.1082 85.8466 75.0987 86.0132 75.0525C86.1798 75.0063 86.3344 74.9244 86.4662 74.8126C86.598 74.7008 86.7039 74.5616 86.7765 74.4049C86.8491 74.2481 86.8867 74.0774 86.8867 73.9047C86.8867 73.7319 86.8491 73.5613 86.7765 73.4045C86.7039 73.2477 86.598 73.1086 86.4662 72.9968C86.3344 72.8849 86.1798 72.8031 86.0132 72.7568C85.8466 72.7106 85.6718 72.7011 85.5012 72.7291ZM85.5012 74.8765C85.31 74.8765 85.123 74.8198 84.9642 74.7135C84.8053 74.6072 84.6816 74.4562 84.6088 74.2796C84.536 74.103 84.5173 73.9088 84.5552 73.7215C84.5931 73.5343 84.6858 73.3626 84.8215 73.2281C84.9573 73.0936 85.13 73.0024 85.3177 72.9661C85.5055 72.9298 85.6998 72.95 85.876 73.0242C86.0522 73.0983 86.2024 73.2231 86.3075 73.3827C86.4126 73.5422 86.4679 73.7294 86.4663 73.9203C86.4705 74.1726 86.3748 74.4163 86.1999 74.5984C86.0249 74.7804 85.7851 74.886 85.5326 74.8922L85.5012 74.8765ZM63.3262 105.074C63.0256 105.098 62.7452 105.235 62.5407 105.456C62.3362 105.678 62.2227 105.968 62.2227 106.269C62.2227 106.57 62.3362 106.861 62.5407 107.082C62.7452 107.304 63.0256 107.44 63.3262 107.464C63.4915 107.478 63.6578 107.457 63.8146 107.403C63.9713 107.349 64.1152 107.263 64.2371 107.151C64.359 107.038 64.4563 106.902 64.5229 106.75C64.5894 106.599 64.6238 106.435 64.6238 106.269C64.6238 106.104 64.5894 105.94 64.5229 105.788C64.4563 105.636 64.359 105.5 64.2371 105.388C64.1152 105.275 63.9713 105.19 63.8146 105.136C63.6578 105.082 63.4915 105.061 63.3262 105.074ZM63.3262 107.229C63.1353 107.229 62.9487 107.173 62.79 107.067C62.6313 106.961 62.5076 106.81 62.4345 106.634C62.3615 106.458 62.3424 106.264 62.3796 106.077C62.4169 105.89 62.5088 105.718 62.6438 105.584C62.7787 105.449 62.9507 105.357 63.1379 105.32C63.3252 105.283 63.5192 105.302 63.6956 105.375C63.8719 105.448 64.0227 105.571 64.1287 105.73C64.2348 105.888 64.2914 106.075 64.2914 106.265C64.2935 106.516 64.1968 106.758 64.0221 106.938C63.8474 107.119 63.6088 107.223 63.3576 107.229H63.3262ZM75.1356 105.403C74.9793 105.402 74.8244 105.432 74.6798 105.491C74.5351 105.55 74.4036 105.637 74.2927 105.747C74.1819 105.857 74.0939 105.988 74.0338 106.132C73.9738 106.276 73.9429 106.431 73.9429 106.587C73.9149 106.757 73.9244 106.932 73.9707 107.098C74.017 107.264 74.0989 107.419 74.2109 107.55C74.3229 107.682 74.4622 107.788 74.6191 107.86C74.7761 107.933 74.947 107.971 75.1199 107.971C75.2929 107.971 75.4637 107.933 75.6207 107.86C75.7777 107.788 75.9169 107.682 76.0289 107.55C76.1409 107.419 76.2229 107.264 76.2691 107.098C76.3154 106.932 76.3249 106.757 76.2969 106.587C76.2973 106.282 76.18 105.989 75.9695 105.769C75.7591 105.548 75.4716 105.417 75.167 105.403H75.1356ZM75.1356 107.551C74.8957 107.529 74.6725 107.418 74.51 107.241C74.3475 107.063 74.2574 106.831 74.2574 106.591C74.2574 106.35 74.3475 106.118 74.51 105.94C74.6725 105.763 74.8957 105.652 75.1356 105.63C75.2691 105.618 75.4037 105.634 75.5308 105.677C75.6578 105.72 75.7746 105.789 75.8735 105.879C75.9725 105.969 76.0516 106.079 76.1057 106.202C76.1598 106.324 76.1877 106.457 76.1877 106.591C76.1877 106.724 76.1598 106.857 76.1057 106.979C76.0516 107.102 75.9725 107.212 75.8735 107.302C75.7746 107.393 75.6578 107.461 75.5308 107.504C75.4037 107.547 75.2691 107.563 75.1356 107.551ZM64.1188 95.2694L64.0481 95.4889C64.2117 95.5655 64.3497 95.6876 64.4457 95.8405C64.5417 95.9933 64.5916 96.1705 64.5896 96.351C64.5896 96.6053 64.489 96.8493 64.3097 97.0299C64.1304 97.2104 63.8869 97.3129 63.6323 97.315C63.6013 97.3226 63.569 97.3226 63.5381 97.315L63.4753 97.5423C63.53 97.55 63.5854 97.55 63.6401 97.5423C63.9564 97.5423 64.2598 97.4167 64.4835 97.1933C64.7071 96.9699 64.8328 96.6669 64.8328 96.351C64.833 96.1207 64.7654 95.8954 64.6384 95.7031C64.5115 95.5108 64.3308 95.36 64.1188 95.2694ZM70.8513 91.8915C70.6157 91.893 70.3859 91.9642 70.1908 92.0961C69.9957 92.2279 69.844 92.4145 69.755 92.6323C69.6659 92.8501 69.6434 93.0894 69.6903 93.32C69.7372 93.5505 69.8514 93.7621 70.0185 93.9279C70.1856 94.0937 70.3982 94.2064 70.6293 94.2517C70.8605 94.297 71.0999 94.273 71.3173 94.1826C71.5348 94.0922 71.7206 93.9395 71.8514 93.7438C71.9821 93.5481 72.0518 93.3181 72.0518 93.0828C72.0571 92.9224 72.0299 92.7626 71.9719 92.613C71.9138 92.4634 71.8261 92.3271 71.7139 92.2121C71.6018 92.0972 71.4676 92.0061 71.3194 91.9443C71.1711 91.8825 71.0119 91.8512 70.8513 91.8523V91.8915ZM70.8513 94.0468C70.598 94.0427 70.3566 93.9393 70.1789 93.7589C70.0013 93.5786 69.9018 93.3358 69.9018 93.0828C69.9018 92.8292 70.0027 92.586 70.1822 92.4067C70.3617 92.2274 70.6052 92.1266 70.8591 92.1266C71.113 92.1266 71.3565 92.2274 71.536 92.4067C71.7156 92.586 71.8164 92.8292 71.8164 93.0828C71.8044 93.3309 71.6977 93.5651 71.5182 93.7371C71.3387 93.9091 71.1 94.0059 70.8513 94.0076V94.0468ZM97.389 100.662C97.2183 100.634 97.0436 100.643 96.877 100.689C96.7104 100.736 96.5558 100.817 96.424 100.929C96.2922 101.041 96.1863 101.18 96.1137 101.337C96.0411 101.494 96.0035 101.664 96.0035 101.837C96.0035 102.01 96.0411 102.181 96.1137 102.337C96.1863 102.494 96.2922 102.633 96.424 102.745C96.5558 102.857 96.7104 102.939 96.877 102.985C97.0436 103.031 97.2183 103.041 97.389 103.013C97.6682 102.967 97.922 102.824 98.1052 102.608C98.2883 102.393 98.3889 102.12 98.3889 101.837C98.3889 101.555 98.2883 101.281 98.1052 101.066C97.922 100.851 97.6682 100.707 97.389 100.662ZM97.389 102.809C97.1993 102.809 97.014 102.753 96.8564 102.647C96.6988 102.542 96.5761 102.392 96.5039 102.217C96.4316 102.042 96.4131 101.849 96.4507 101.663C96.4883 101.478 96.5803 101.307 96.7149 101.174C96.8496 101.041 97.0209 100.95 97.2071 100.914C97.3933 100.878 97.5861 100.898 97.7608 100.972C97.9356 101.045 98.0846 101.169 98.1888 101.327C98.2931 101.486 98.3479 101.671 98.3463 101.861C98.3324 102.105 98.2256 102.336 98.0478 102.504C97.87 102.673 97.6344 102.768 97.389 102.77V102.809ZM97.389 109.965C97.2183 109.937 97.0436 109.946 96.877 109.992C96.7104 110.039 96.5558 110.12 96.424 110.232C96.2922 110.344 96.1863 110.483 96.1137 110.64C96.0411 110.797 96.0035 110.967 96.0035 111.14C96.0035 111.313 96.0411 111.484 96.1137 111.64C96.1863 111.797 96.2922 111.936 96.424 112.048C96.5558 112.16 96.7104 112.242 96.877 112.288C97.0436 112.334 97.2183 112.344 97.389 112.316C97.6682 112.27 97.922 112.127 98.1052 111.911C98.2883 111.696 98.3889 111.423 98.3889 111.14C98.3889 110.858 98.2883 110.584 98.1052 110.369C97.922 110.154 97.6682 110.01 97.389 109.965ZM97.389 112.12C97.1975 112.121 97.0098 112.066 96.8499 111.961C96.69 111.855 96.565 111.705 96.491 111.528C96.417 111.352 96.3972 111.157 96.4342 110.97C96.4712 110.782 96.5633 110.609 96.6987 110.474C96.8342 110.339 97.0069 110.247 97.1948 110.21C97.3828 110.173 97.5775 110.193 97.7542 110.267C97.9308 110.341 98.0815 110.465 98.1869 110.625C98.2924 110.785 98.3479 110.972 98.3463 111.164C98.3343 111.41 98.2284 111.642 98.0504 111.812C97.8723 111.983 97.6357 112.079 97.389 112.081V112.12ZM90.735 96.5391C90.4972 96.5375 90.2643 96.6065 90.0659 96.7373C89.8674 96.8681 89.7123 97.0549 89.6202 97.2738C89.5282 97.4928 89.5033 97.7342 89.5487 97.9673C89.5941 98.2004 89.7078 98.4148 89.8754 98.5833C90.043 98.7518 90.2569 98.8668 90.49 98.9137C90.7231 98.9606 90.9649 98.9373 91.1847 98.8468C91.4046 98.7562 91.5925 98.6026 91.7248 98.4052C91.8571 98.2078 91.9277 97.9757 91.9277 97.7382C91.9329 97.5781 91.906 97.4186 91.8485 97.2691C91.791 97.1196 91.7041 96.9831 91.593 96.8676C91.4818 96.7522 91.3486 96.6602 91.2012 96.597C91.0539 96.5339 90.8953 96.5009 90.735 96.4999V96.5391ZM90.735 98.6944C90.5434 98.6959 90.3557 98.6405 90.1958 98.5352C90.0359 98.4298 89.911 98.2794 89.837 98.1029C89.763 97.9264 89.7432 97.732 89.7802 97.5442C89.8172 97.3565 89.9092 97.184 90.0447 97.0487C90.1801 96.9134 90.3528 96.8215 90.5408 96.7845C90.7287 96.7476 90.9234 96.7673 91.1001 96.8413C91.2768 96.9152 91.4274 97.04 91.5329 97.1997C91.6383 97.3594 91.6938 97.5469 91.6923 97.7382C91.6802 97.9843 91.5743 98.2164 91.3963 98.3869C91.2183 98.5575 90.9816 98.6535 90.735 98.6552V98.6944ZM96.2983 74.6649H96.11C95.93 74.6608 95.7548 74.6061 95.6046 74.5071C95.4543 74.408 95.335 74.2687 95.2605 74.105C95.1859 73.9413 95.1591 73.76 95.183 73.5817C95.207 73.4035 95.2808 73.2357 95.3959 73.0974C95.3567 73.0191 95.3096 72.9485 95.2704 72.878C95.1582 72.9902 95.0693 73.1234 95.0087 73.27C94.9481 73.4166 94.9171 73.5737 94.9173 73.7323C94.9163 73.889 94.9464 74.0444 95.006 74.1894C95.0655 74.3344 95.1533 74.4661 95.2643 74.5769C95.3753 74.6878 95.5072 74.7755 95.6523 74.835C95.7975 74.8945 95.9531 74.9246 96.11 74.9235C96.2139 74.9244 96.3172 74.9085 96.416 74.8765L96.2983 74.6649ZM91.1508 77.7999C90.9149 77.7999 90.6844 77.8697 90.4882 78.0006C90.2921 78.1315 90.1392 78.3176 90.0489 78.5353C89.9587 78.7529 89.935 78.9925 89.9811 79.2236C90.0271 79.4546 90.1407 79.6669 90.3075 79.8335C90.4743 80.0001 90.6868 80.1136 90.9182 80.1595C91.1495 80.2055 91.3893 80.1819 91.6073 80.0917C91.8252 80.0016 92.0115 79.8489 92.1425 79.653C92.2736 79.4571 92.3436 79.2268 92.3436 78.9911C92.3467 78.8327 92.3181 78.6753 92.2596 78.528C92.2011 78.3808 92.1137 78.2467 92.0027 78.1335C91.8916 78.0204 91.759 77.9306 91.6128 77.8692C91.4665 77.8079 91.3095 77.7763 91.1508 77.7763V77.7999ZM91.1508 79.9473C90.897 79.9473 90.6535 79.8466 90.4739 79.6673C90.2944 79.4879 90.1935 79.2447 90.1935 78.9911C90.1935 78.7376 90.2944 78.4943 90.4739 78.315C90.6535 78.1357 90.897 78.035 91.1508 78.035C91.4047 78.035 91.6482 78.1357 91.8278 78.315C92.0073 78.4943 92.1082 78.7376 92.1082 78.9911C92.104 79.2413 92.0011 79.4797 91.8218 79.6544C91.6425 79.8291 91.4013 79.9259 91.1508 79.9238V79.9473ZM97.389 82.7766C97.2183 82.7487 97.0436 82.7582 96.877 82.8044C96.7104 82.8506 96.5558 82.9325 96.424 83.0443C96.2922 83.1561 96.1863 83.2953 96.1137 83.452C96.0411 83.6088 96.0035 83.7795 96.0035 83.9522C96.0035 84.125 96.0411 84.2956 96.1137 84.4524C96.1863 84.6092 96.2922 84.7483 96.424 84.8601C96.5558 84.972 96.7104 85.0538 96.877 85.1001C97.0436 85.1463 97.2183 85.1558 97.389 85.1278C97.6682 85.0821 97.922 84.9388 98.1052 84.7235C98.2883 84.5081 98.3889 84.2348 98.3889 83.9522C98.3889 83.6697 98.2883 83.3963 98.1052 83.1809C97.922 82.9656 97.6682 82.8223 97.389 82.7766ZM97.389 84.9241C97.2626 84.9251 97.1373 84.9011 97.0203 84.8535C96.9032 84.8059 96.7967 84.7357 96.707 84.6468C96.6173 84.5579 96.5461 84.4521 96.4975 84.3356C96.4489 84.2191 96.4239 84.0941 96.4239 83.9679C96.4118 83.8345 96.4277 83.7001 96.4705 83.5732C96.5133 83.4463 96.5821 83.3297 96.6726 83.2308C96.763 83.132 96.8731 83.053 96.9957 82.999C97.1184 82.945 97.251 82.9171 97.3851 82.9171C97.5192 82.9171 97.6518 82.945 97.7745 82.999C97.8971 83.053 98.0072 83.132 98.0976 83.2308C98.1881 83.3297 98.2569 83.4463 98.2997 83.5732C98.3425 83.7001 98.3584 83.8345 98.3463 83.9679C98.3402 84.2174 98.2366 84.4546 98.0577 84.6289C97.8789 84.8031 97.6389 84.9006 97.389 84.9005V84.9241ZM84.5831 82.7296C84.3472 82.7296 84.1166 82.7994 83.9205 82.9303C83.7243 83.0612 83.5715 83.2473 83.4812 83.465C83.3909 83.6827 83.3673 83.9222 83.4133 84.1533C83.4593 84.3844 83.5729 84.5966 83.7397 84.7632C83.9065 84.9298 84.1191 85.0433 84.3504 85.0893C84.5818 85.1352 84.8216 85.1116 85.0395 85.0215C85.2575 84.9313 85.4437 84.7786 85.5748 84.5827C85.7059 84.3868 85.7758 84.1565 85.7758 83.9209C85.7738 83.6056 85.6474 83.3037 85.4242 83.0808C85.201 82.8578 84.8988 82.7316 84.5831 82.7296ZM84.5831 84.877C84.4567 84.8781 84.3314 84.8541 84.2144 84.8065C84.0973 84.7589 83.9908 84.6887 83.9011 84.5998C83.8114 84.5109 83.7402 84.4051 83.6916 84.2886C83.643 84.1721 83.618 84.0471 83.618 83.9209C83.6059 83.7875 83.6218 83.6531 83.6646 83.5262C83.7074 83.3993 83.7762 83.2827 83.8666 83.1838C83.9571 83.0849 84.0671 83.006 84.1898 82.952C84.3125 82.8979 84.4451 82.87 84.5792 82.87C84.7133 82.87 84.8459 82.8979 84.9685 82.952C85.0912 83.006 85.2013 83.0849 85.2917 83.1838C85.3822 83.2827 85.451 83.3993 85.4938 83.5262C85.5366 83.6531 85.5525 83.7875 85.5404 83.9209C85.5447 84.0487 85.523 84.176 85.4767 84.2952C85.4304 84.4145 85.3604 84.5231 85.2709 84.6146C85.1815 84.7061 85.0745 84.7787 84.9563 84.8278C84.8381 84.8769 84.7111 84.9017 84.5831 84.9005V84.877ZM79.6553 67.6348C79.4201 67.6363 79.1906 67.7073 78.9957 67.8388C78.8007 67.9703 78.6491 68.1564 78.5598 68.3738C78.4705 68.5911 78.4475 68.83 78.4938 69.0604C78.5401 69.2907 78.6535 69.5022 78.8198 69.6684C78.9862 69.8345 79.198 69.9478 79.4286 69.994C79.6592 70.0402 79.8984 70.0173 80.116 69.9281C80.3336 69.8389 80.52 69.6875 80.6516 69.4928C80.7833 69.2981 80.8543 69.0688 80.8559 68.8339C80.8418 68.5255 80.7091 68.2344 80.4854 68.0212C80.2618 67.8081 79.9645 67.6893 79.6553 67.6896V67.6348ZM79.6553 69.79C79.4638 69.7916 79.2761 69.7362 79.1162 69.6309C78.9563 69.5255 78.8314 69.375 78.7573 69.1986C78.6833 69.0221 78.6636 68.8276 78.7005 68.6399C78.7375 68.4522 78.8296 68.2797 78.9651 68.1444C79.1005 68.0091 79.2732 67.9172 79.4612 67.8802C79.6491 67.8433 79.8438 67.863 80.0205 67.937C80.1972 68.0109 80.3478 68.1357 80.4533 68.2954C80.5587 68.4551 80.6142 68.6426 80.6127 68.8339C80.619 68.9637 80.599 69.0935 80.5538 69.2154C80.5087 69.3373 80.4393 69.4489 80.3499 69.5433C80.2604 69.6378 80.1528 69.7132 80.0335 69.765C79.9141 69.8168 79.7855 69.844 79.6553 69.8449V69.79ZM78.698 77.0475C78.4628 77.049 78.2333 77.12 78.0384 77.2515C77.8434 77.383 77.6918 77.5691 77.6025 77.7865C77.5132 78.0038 77.4902 78.2427 77.5365 78.4731C77.5828 78.7034 77.6962 78.915 77.8625 79.0811C78.0289 79.2472 78.2407 79.3605 78.4713 79.4067C78.7019 79.453 78.9411 79.43 79.1587 79.3408C79.3763 79.2516 79.5627 79.1002 79.6943 78.9055C79.826 78.7108 79.897 78.4815 79.8986 78.2466C79.8845 77.9382 79.7518 77.6471 79.5281 77.4339C79.3045 77.2208 79.0072 77.102 78.698 77.1023V77.0475ZM78.698 79.2028C78.5065 79.2043 78.3188 79.1489 78.1589 79.0436C77.999 78.9382 77.8741 78.7878 77.8 78.6113C77.726 78.4348 77.7062 78.2404 77.7432 78.0526C77.7802 77.8649 77.8723 77.6924 78.0078 77.5571C78.1432 77.4218 78.3159 77.3299 78.5038 77.2929C78.6918 77.256 78.8865 77.2757 79.0632 77.3497C79.2399 77.4236 79.3905 77.5484 79.496 77.7081C79.6014 77.8678 79.6569 78.0553 79.6553 78.2466C79.6617 78.3764 79.6417 78.5062 79.5965 78.6281C79.5514 78.75 79.482 78.8616 79.3926 78.956C79.3031 79.0505 79.1955 79.1259 79.0762 79.1777C78.9568 79.2295 78.8282 79.2567 78.698 79.2576V79.2028ZM91.1116 105.066C90.8324 105.112 90.5786 105.255 90.3955 105.471C90.2123 105.686 90.1118 105.959 90.1118 106.242C90.1118 106.524 90.2123 106.798 90.3955 107.013C90.5786 107.228 90.8324 107.372 91.1116 107.417C91.2823 107.445 91.457 107.436 91.6236 107.39C91.7903 107.343 91.9448 107.262 92.0767 107.15C92.2085 107.038 92.3143 106.899 92.3869 106.742C92.4596 106.585 92.4972 106.415 92.4972 106.242C92.4972 106.069 92.4596 105.898 92.3869 105.742C92.3143 105.585 92.2085 105.446 92.0767 105.334C91.9448 105.222 91.7903 105.14 91.6236 105.094C91.457 105.048 91.2823 105.038 91.1116 105.066ZM91.1116 107.214C90.9214 107.212 90.7359 107.154 90.5784 107.048C90.4209 106.941 90.2984 106.791 90.2263 106.615C90.1542 106.439 90.1358 106.246 90.1733 106.06C90.2108 105.873 90.3025 105.702 90.437 105.568C90.5715 105.434 90.7428 105.342 90.9293 105.305C91.1158 105.267 91.3092 105.286 91.4852 105.358C91.6612 105.43 91.812 105.552 91.9187 105.709C92.0253 105.866 92.0831 106.052 92.0846 106.242C92.0889 106.371 92.0668 106.5 92.0196 106.621C91.9724 106.742 91.9011 106.852 91.8101 106.944C91.7191 107.036 91.6103 107.109 91.4902 107.158C91.3701 107.207 91.2413 107.231 91.1116 107.229V107.214ZM77.623 96.4842C77.3856 96.4842 77.1535 96.5545 76.956 96.6863C76.7586 96.8181 76.6047 97.0053 76.5139 97.2244C76.423 97.4436 76.3992 97.6847 76.4455 97.9173C76.4919 98.1499 76.6062 98.3635 76.7741 98.5312C76.942 98.6989 77.1559 98.8131 77.3888 98.8594C77.6217 98.9057 77.8631 98.8819 78.0825 98.7912C78.3018 98.7004 78.4893 98.5467 78.6213 98.3495C78.7532 98.1523 78.8236 97.9205 78.8236 97.6833C78.8195 97.368 78.6912 97.067 78.4665 96.8455C78.2418 96.624 77.9387 96.4999 77.623 96.4999V96.4842ZM77.623 98.6395C77.4315 98.641 77.2438 98.5856 77.0839 98.4803C76.924 98.375 76.7991 98.2245 76.725 98.048C76.651 97.8716 76.6312 97.6771 76.6682 97.4894C76.7052 97.3016 76.7973 97.1292 76.9327 96.9939C77.0682 96.8586 77.2409 96.7666 77.4288 96.7297C77.6168 96.6927 77.8115 96.7125 77.9882 96.7864C78.1648 96.8603 78.3155 96.9851 78.421 97.1448C78.5264 97.3046 78.5819 97.492 78.5803 97.6833C78.5824 97.8102 78.5592 97.9362 78.512 98.0541C78.4648 98.1719 78.3947 98.2791 78.3056 98.3696C78.2165 98.4601 78.1102 98.5319 77.993 98.5809C77.8759 98.6299 77.7501 98.6552 77.623 98.6552V98.6395ZM84.3006 92.1109C84.13 92.083 83.9553 92.0925 83.7886 92.1387C83.622 92.1849 83.4674 92.2668 83.3356 92.3786C83.2038 92.4905 83.0979 92.6296 83.0253 92.7864C82.9527 92.9431 82.9151 93.1138 82.9151 93.2866C82.9151 93.4593 82.9527 93.63 83.0253 93.7867C83.0979 93.9435 83.2038 94.0826 83.3356 94.1945C83.4674 94.3063 83.622 94.3882 83.7886 94.4344C83.9553 94.4806 84.13 94.4901 84.3006 94.4622C84.5798 94.4165 84.8336 94.2732 85.0168 94.0578C85.1999 93.8425 85.3005 93.5691 85.3005 93.2866C85.3005 93.004 85.1999 92.7306 85.0168 92.5153C84.8336 92.2999 84.5798 92.1566 84.3006 92.1109ZM84.3006 94.2584C84.111 94.2599 83.9251 94.2052 83.7667 94.1011C83.6082 93.997 83.4843 93.8482 83.4106 93.6736C83.337 93.499 83.3169 93.3065 83.3529 93.1205C83.389 92.9345 83.4795 92.7635 83.6131 92.6289C83.7466 92.4944 83.9172 92.4026 84.1031 92.365C84.289 92.3275 84.4819 92.346 84.6573 92.4181C84.8327 92.4903 84.9826 92.6128 85.0882 92.7702C85.1937 92.9276 85.2501 93.1128 85.2501 93.3022C85.2522 93.5566 85.1536 93.8014 84.9757 93.9834C84.7979 94.1655 84.5552 94.2699 84.3006 94.2741V94.2584ZM97.6401 91.8366C97.3231 91.8387 97.0197 91.9659 96.7963 92.1906C96.5728 92.4153 96.4474 92.7191 96.4474 93.0358C96.4931 93.3146 96.6366 93.5681 96.8522 93.7511C97.0678 93.934 97.3415 94.0344 97.6244 94.0344C97.9073 94.0344 98.181 93.934 98.3966 93.7511C98.6122 93.5681 98.7557 93.3146 98.8014 93.0358C98.7974 92.7231 98.6712 92.4245 98.4499 92.2034C98.2286 91.9824 97.9296 91.8564 97.6166 91.8523L97.6401 91.8366ZM97.6401 93.9919C97.5066 94.004 97.372 93.9881 97.245 93.9454C97.1179 93.9026 97.0012 93.8339 96.9022 93.7435C96.8032 93.6532 96.7241 93.5433 96.6701 93.4207C96.616 93.2982 96.588 93.1658 96.588 93.0318C96.588 92.8979 96.616 92.7655 96.6701 92.643C96.7241 92.5204 96.8032 92.4105 96.9022 92.3202C97.0012 92.2298 97.1179 92.1611 97.245 92.1183C97.372 92.0756 97.5066 92.0597 97.6401 92.0718C97.8801 92.0934 98.1032 92.204 98.2657 92.3816C98.4282 92.5593 98.5183 92.7912 98.5183 93.0318C98.5183 93.2725 98.4282 93.5044 98.2657 93.6821C98.1032 93.8597 97.8801 93.9702 97.6401 93.9919ZM90.578 86.9383C90.2603 86.9403 89.9561 87.0673 89.7314 87.2918C89.5067 87.5162 89.3795 87.82 89.3775 88.1374C89.3785 88.2938 89.4104 88.4485 89.4713 88.5927C89.5322 88.7368 89.6209 88.8676 89.7324 88.9775C89.8438 89.0874 89.9759 89.1742 90.121 89.2332C90.2661 89.2921 90.4214 89.3219 90.578 89.3208C90.7339 89.3219 90.8885 89.292 91.0327 89.2329C91.1769 89.1738 91.308 89.0866 91.4182 88.9765C91.5284 88.8664 91.6157 88.7355 91.6748 88.5915C91.734 88.4474 91.7639 88.2931 91.7629 88.1374C91.7608 87.9809 91.728 87.8264 91.6661 87.6827C91.6043 87.5389 91.5147 87.4087 91.4025 87.2996C91.2903 87.1904 91.1576 87.1044 91.0121 87.0464C90.8666 86.9885 90.7111 86.9597 90.5545 86.9618L90.578 86.9383ZM90.578 89.0935C90.3865 89.0951 90.1988 89.0397 90.0389 88.9344C89.879 88.829 89.7541 88.6786 89.68 88.5021C89.606 88.3256 89.5862 88.1312 89.6232 87.9434C89.6602 87.7557 89.7523 87.5832 89.8878 87.4479C90.0232 87.3126 90.1959 87.2207 90.3838 87.1837C90.5718 87.1468 90.7665 87.1665 90.9432 87.2405C91.1198 87.3144 91.2705 87.4392 91.376 87.5989C91.4814 87.7586 91.5369 87.9461 91.5353 88.1374C91.5375 88.2666 91.5135 88.395 91.465 88.5148C91.4165 88.6346 91.3443 88.7434 91.2528 88.8348C91.1613 88.9262 91.0523 88.9983 90.9323 89.0468C90.8124 89.0953 90.6839 89.1192 90.5545 89.1171L90.578 89.0935ZM71.8478 81.5383C71.611 81.5336 71.3781 81.5995 71.1789 81.7275C70.9797 81.8556 70.8232 82.0399 70.7293 82.2572C70.6354 82.4744 70.6084 82.7146 70.6517 82.9472C70.695 83.1799 70.8067 83.3943 70.9725 83.5633C71.1384 83.7322 71.3508 83.8481 71.5828 83.896C71.8148 83.9439 72.0558 83.9217 72.2751 83.8323C72.4944 83.7428 72.6821 83.5902 72.8142 83.3938C72.9464 83.1974 73.0169 82.9662 73.017 82.7296C73.0088 82.4184 72.8798 82.1225 72.6573 81.9046C72.4347 81.6867 72.136 81.5637 71.8243 81.5618L71.8478 81.5383ZM71.8478 83.6857C71.5953 83.6837 71.3538 83.582 71.176 83.4029C70.9981 83.2239 70.8983 82.9818 70.8984 82.7296C70.8968 82.5386 70.9521 82.3515 71.0572 82.1919C71.1623 82.0323 71.3125 81.9076 71.4887 81.8334C71.6649 81.7592 71.8592 81.739 72.0469 81.7753C72.2347 81.8116 72.4074 81.9028 72.5432 82.0373C72.6789 82.1718 72.7716 82.3436 72.8095 82.5308C72.8474 82.718 72.8287 82.9122 72.7559 83.0888C72.6831 83.2654 72.5594 83.4164 72.4005 83.5227C72.2416 83.629 72.0547 83.6857 71.8635 83.6857H71.8478ZM73.9429 72.5802L73.7546 72.8388C73.7584 72.87 73.7584 72.9016 73.7546 72.9328C73.7542 73.1354 73.6893 73.3326 73.5695 73.496C73.4496 73.6594 73.2809 73.7805 73.0876 73.842C73.0248 73.9282 72.9699 74.0222 72.915 74.1084C73.2091 74.0829 73.4829 73.9478 73.6821 73.7301C73.8812 73.5123 73.9911 73.2278 73.99 72.9328C73.9845 72.82 73.9606 72.7088 73.9194 72.6037L73.9429 72.5802ZM82.5743 109.902C82.3384 109.902 82.1078 109.972 81.9117 110.103C81.7156 110.233 81.5627 110.42 81.4724 110.637C81.3822 110.855 81.3585 111.094 81.4045 111.326C81.4506 111.557 81.5642 111.769 81.731 111.935C81.8978 112.102 82.1103 112.216 82.3417 112.262C82.573 112.307 82.8128 112.284 83.0308 112.194C83.2487 112.104 83.435 111.951 83.566 111.755C83.6971 111.559 83.767 111.329 83.767 111.093C83.7609 110.783 83.6336 110.487 83.4123 110.269C83.191 110.051 82.8931 109.927 82.5822 109.925L82.5743 109.902ZM82.5743 112.057C82.319 112.055 82.0747 111.953 81.8941 111.773C81.7136 111.592 81.6112 111.348 81.6092 111.093C81.6113 110.839 81.7139 110.596 81.8946 110.417C82.0754 110.237 82.3197 110.137 82.5743 110.137C82.7003 110.136 82.8253 110.16 82.9419 110.208C83.0585 110.255 83.1645 110.326 83.2536 110.415C83.3427 110.504 83.4132 110.609 83.4609 110.726C83.5086 110.842 83.5327 110.967 83.5316 111.093C83.5348 111.22 83.5126 111.347 83.4665 111.466C83.4204 111.584 83.3512 111.693 83.2629 111.784C83.1746 111.876 83.069 111.95 82.9522 112.001C82.8354 112.051 82.7096 112.079 82.5822 112.081L82.5743 112.057ZM83.4532 100.881C83.2965 100.88 83.1412 100.91 82.9961 100.969C82.851 101.028 82.719 101.114 82.6075 101.224C82.496 101.334 82.4073 101.465 82.3464 101.609C82.2855 101.753 82.2536 101.908 82.2526 102.064C82.2392 102.23 82.2602 102.396 82.3143 102.552C82.3683 102.709 82.4543 102.852 82.5667 102.974C82.6791 103.096 82.8156 103.193 82.9675 103.26C83.1194 103.326 83.2834 103.36 83.4492 103.36C83.6151 103.36 83.7791 103.326 83.931 103.26C84.0829 103.193 84.2194 103.096 84.3318 102.974C84.4442 102.852 84.5302 102.709 84.5842 102.552C84.6383 102.396 84.6593 102.23 84.6459 102.064C84.6459 101.908 84.615 101.754 84.5549 101.61C84.4949 101.466 84.4069 101.335 84.2961 101.225C84.1852 101.115 84.0537 101.028 83.909 100.969C83.7643 100.91 83.6094 100.88 83.4532 100.881ZM83.4532 103.028C83.262 103.03 83.0746 102.975 82.9148 102.87C82.7551 102.765 82.6302 102.615 82.5559 102.439C82.4817 102.263 82.4614 102.069 82.4978 101.881C82.5341 101.694 82.6254 101.521 82.7601 101.386C82.8947 101.25 83.0667 101.157 83.2541 101.12C83.4416 101.082 83.636 101.1 83.8128 101.173C83.9897 101.246 84.1409 101.369 84.2473 101.528C84.3537 101.687 84.4105 101.873 84.4105 102.064C84.4105 102.319 84.3099 102.563 84.1306 102.743C83.9513 102.924 83.7078 103.026 83.4532 103.028ZM68.5836 110.654C68.2686 110.654 67.9664 110.779 67.743 111C67.5195 111.222 67.3929 111.523 67.3909 111.838C67.3877 112.076 67.4557 112.309 67.5861 112.509C67.7164 112.708 67.9033 112.864 68.1228 112.957C68.3424 113.05 68.5846 113.076 68.8188 113.031C69.0529 112.986 69.2683 112.872 69.4374 112.704C69.6066 112.536 69.7219 112.322 69.7686 112.088C69.8153 111.855 69.7914 111.613 69.6998 111.393C69.6082 111.173 69.4531 110.985 69.2543 110.854C69.0555 110.722 68.822 110.653 68.5836 110.654ZM68.5836 112.802C68.3927 112.802 68.2061 112.745 68.0474 112.639C67.8886 112.533 67.7649 112.383 67.6919 112.207C67.6188 112.03 67.5997 111.837 67.637 111.65C67.6742 111.463 67.7661 111.291 67.9011 111.156C68.0361 111.021 68.2081 110.929 68.3953 110.892C68.5825 110.855 68.7766 110.874 68.9529 110.947C69.1293 111.02 69.28 111.144 69.3861 111.302C69.4921 111.461 69.5487 111.647 69.5487 111.838C69.5487 112.093 69.447 112.339 69.266 112.519C69.085 112.7 68.8395 112.802 68.5836 112.802ZM69.7763 100.387C69.5407 100.389 69.3109 100.46 69.1158 100.592C68.9207 100.724 68.769 100.91 68.68 101.128C68.5909 101.346 68.5684 101.585 68.6153 101.816C68.6622 102.046 68.7764 102.258 68.9435 102.424C69.1106 102.589 69.3232 102.702 69.5543 102.747C69.7855 102.793 70.0249 102.769 70.2423 102.678C70.4598 102.588 70.6456 102.435 70.7764 102.24C70.9071 102.044 70.9768 101.814 70.9768 101.579C70.9748 101.262 70.8473 100.959 70.6224 100.736C70.3975 100.512 70.0933 100.387 69.7763 100.387ZM69.7763 102.543C69.5223 102.538 69.28 102.435 69.1011 102.255C68.9222 102.075 68.821 101.832 68.819 101.579C68.819 101.388 68.8758 101.201 68.9822 101.042C69.0886 100.883 69.2398 100.76 69.4166 100.687C69.5934 100.614 69.7879 100.596 69.9753 100.634C70.1628 100.671 70.3347 100.764 70.4694 100.9C70.604 101.035 70.6953 101.208 70.7317 101.395C70.768 101.583 70.7478 101.777 70.6735 101.953C70.5993 102.129 70.4744 102.279 70.3146 102.384C70.1549 102.489 69.9675 102.544 69.7763 102.543Z" fill="white"/>
<path d="M84.724 99.0012C87.1136 98.7831 89.516 98.7412 91.9117 98.8758C93.0965 98.9621 94.2657 99.1031 95.4584 99.2677C96.0469 99.3461 96.6354 99.4088 97.2239 99.4715C97.8413 99.5498 98.4662 99.5498 99.0836 99.4715C99.1385 99.4715 99.1542 99.5499 99.0836 99.5577C98.5134 99.6948 97.9338 99.7891 97.3495 99.8398C96.78 99.879 96.2084 99.879 95.6389 99.8398C94.4305 99.7615 93.2299 99.6361 92.0215 99.5499C89.589 99.3696 87.1565 99.1972 84.7084 99.1972C84.6142 99.1893 84.6063 99.0091 84.724 99.0012Z" fill="#050A3A"/>
<path d="M79.2852 102.136C81.1857 101.579 83.1165 101.132 85.0682 100.795C86.0412 100.631 87.0221 100.521 88.0108 100.443L89.4232 100.349C89.9489 100.349 90.4668 100.349 90.9925 100.349C91.0396 100.349 91.0553 100.427 90.9925 100.435C90.506 100.482 90.0274 100.607 89.5409 100.686L88.0736 100.913C87.1006 101.062 86.1276 101.226 85.1546 101.367C83.1929 101.657 81.2312 101.963 79.3087 102.316C79.2067 102.324 79.191 102.159 79.2852 102.136Z" fill="#050A3A"/>
<path d="M73.2492 70.5036C68.392 73.4348 43.0627 90.0971 40.2143 98.6477C35.9692 111.376 38.9117 126.956 39.8298 133.83C40.2378 136.831 61.0161 135.899 61.0631 132.662C61.1652 125.749 59.7135 107.959 60.404 105.646C61.0945 103.334 73.7435 86.053 80.2877 77.7453C89.0839 66.5849 85.0742 63.3794 73.2492 70.5036Z" fill="#E59090"/>
<path d="M60.1634 131.322C60.1634 131.322 64.5733 138.376 65.7346 142.804C66.8301 147.432 66.7843 152.257 65.6012 156.864C64.3457 161.841 57.8486 173.009 54.3019 171.7C51.0926 170.509 58.343 159.411 58.343 159.411C58.343 159.411 52.8502 171.951 49.2486 169.78C45.6469 167.609 54.7413 155.265 54.7413 155.265C54.7413 155.265 48.8092 167.985 45.4429 165.203C42.9005 163.095 50.5119 151.417 50.5119 151.417C50.5119 151.417 45.3409 162.311 42.6651 160.258C39.6755 157.993 46.0236 146.77 46.0236 146.77C40.0208 140.39 39.2989 133.775 40.2483 130.695C40.4837 129.755 60.1634 131.322 60.1634 131.322Z" fill="#E59090"/>
<path d="M60.4884 155.203C59.8999 156.699 59.3114 158.212 58.5895 159.646C57.8676 161.081 57.0907 162.491 56.2354 163.855C55.1603 165.657 53.8778 167.327 52.4141 168.832C54.8073 165.963 57.4752 160.869 58.1971 159.427C58.919 157.985 59.7116 156.598 60.4335 155.171C60.4491 155.14 60.5041 155.171 60.4884 155.203Z" fill="#030629"/>
<path d="M55.3458 152.483C54.5062 154.357 53.7765 156.245 52.827 158.079C51.8776 159.913 50.881 161.567 49.8374 163.323C49.7589 163.456 49.7119 163.37 49.7903 163.229C50.7555 161.434 51.5088 159.694 52.4582 157.883C53.4077 156.073 54.4278 154.294 55.3066 152.46C55.3144 152.483 55.3615 152.483 55.3458 152.483Z" fill="#030629"/>
<path d="M51.3451 149.396C50.1302 152.3 48.6182 155.07 46.8332 157.664C46.7469 157.797 46.6998 157.664 46.7782 157.539C48.3476 154.819 49.5717 152.695 51.2431 149.356C51.2744 149.349 51.3686 149.349 51.3451 149.396Z" fill="#030629"/>
<path d="M52.1836 83.5135L71.2748 90.0107C71.2748 90.0107 77.4972 83.1217 84.1278 73.9519C90.7583 64.7822 83.1469 64.2649 75.8102 68.0425C67.4756 72.4637 59.5666 77.6426 52.1836 83.5135Z" fill="#EBB129"/>
<path d="M64.6767 85.74C64.359 85.742 64.0548 85.869 63.8301 86.0934C63.6054 86.3179 63.4782 86.6217 63.4762 86.9391C63.4768 87.087 63.5061 87.2334 63.5625 87.3701L63.8842 87.4799C63.7713 87.3221 63.711 87.1329 63.7116 86.9391C63.6995 86.8057 63.7154 86.6713 63.7582 86.5444C63.801 86.4175 63.8698 86.3009 63.9603 86.202C64.0507 86.1032 64.1608 86.0242 64.2835 85.9702C64.4061 85.9161 64.5387 85.8882 64.6728 85.8882C64.8069 85.8882 64.9395 85.9161 65.0622 85.9702C65.1849 86.0242 65.2949 86.1032 65.3854 86.202C65.4758 86.3009 65.5446 86.4175 65.5874 86.5444C65.6302 86.6713 65.6461 86.8057 65.634 86.9391C65.6331 87.1426 65.5671 87.3406 65.4458 87.5041C65.3244 87.6676 65.1539 87.7882 64.9592 87.8482L65.2809 87.9579C65.4605 87.8553 65.6096 87.7069 65.713 87.5279C65.8164 87.3489 65.8704 87.1457 65.8694 86.9391C65.8695 86.6224 65.744 86.3186 65.5206 86.0939C65.2971 85.8693 64.9938 85.742 64.6767 85.74ZM65.6262 76.1391C65.3887 76.1391 65.1566 76.2095 64.9592 76.3412C64.7618 76.473 64.6079 76.6603 64.517 76.8794C64.4262 77.0985 64.4024 77.3396 64.4487 77.5722C64.495 77.8048 64.6094 78.0185 64.7773 78.1862C64.9452 78.3539 65.1591 78.4681 65.392 78.5143C65.6249 78.5606 65.8663 78.5369 66.0856 78.4461C66.305 78.3554 66.4925 78.2017 66.6244 78.0045C66.7563 77.8073 66.8267 77.5754 66.8267 77.3383C66.8247 77.0209 66.6975 76.7171 66.4728 76.4926C66.2481 76.2682 65.944 76.1412 65.6262 76.1391ZM65.6262 78.2944C65.435 78.2944 65.2481 78.2377 65.0892 78.1314C64.9303 78.0251 64.8066 77.8741 64.7338 77.6975C64.661 77.5209 64.6423 77.3267 64.6802 77.1395C64.7181 76.9522 64.8108 76.7805 64.9465 76.646C65.0823 76.5115 65.255 76.4203 65.4428 76.384C65.6305 76.3477 65.8248 76.3679 66.001 76.4421C66.1772 76.5162 66.3274 76.641 66.4325 76.8006C66.5376 76.9601 66.5929 77.1473 66.5913 77.3383C66.5913 77.4645 66.5663 77.5895 66.5177 77.706C66.4691 77.8225 66.3979 77.9283 66.3082 78.0172C66.2185 78.106 66.112 78.1763 65.9949 78.2239C65.8779 78.2715 65.7526 78.2955 65.6262 78.2944ZM84.4192 73.5215C84.5369 73.3569 84.6467 73.1923 84.7488 73.0355C84.5952 73.1632 84.481 73.3317 84.4192 73.5215ZM79.6562 67.6904C79.421 67.692 79.1915 67.763 78.9965 67.8945C78.8016 68.026 78.65 68.2121 78.5607 68.4294C78.4714 68.6468 78.4484 68.8857 78.4947 69.116C78.5409 69.3464 78.6544 69.5579 78.8207 69.7241C78.987 69.8902 79.1988 70.0035 79.4295 70.0497C79.6601 70.0959 79.8993 70.073 80.1169 69.9838C80.3345 69.8946 80.5208 69.7431 80.6525 69.5484C80.7841 69.3537 80.8552 69.1245 80.8568 68.8896C80.8568 68.5715 80.7303 68.2665 80.5051 68.0417C80.28 67.8168 79.9746 67.6904 79.6562 67.6904ZM79.6562 69.8457C79.4647 69.8473 79.277 69.7918 79.1171 69.6865C78.9572 69.5812 78.8322 69.4307 78.7582 69.2543C78.6842 69.0778 78.6644 68.8833 78.7014 68.6956C78.7384 68.5079 78.8305 68.3354 78.9659 68.2001C79.1014 68.0648 79.2741 67.9728 79.462 67.9359C79.65 67.8989 79.8447 67.9187 80.0213 67.9926C80.198 68.0666 80.3487 68.1913 80.4541 68.3511C80.5596 68.5108 80.6151 68.6982 80.6135 68.8896C80.6115 69.1425 80.5099 69.3845 80.3309 69.5634C80.1518 69.7423 79.9095 69.8437 79.6562 69.8457ZM78.6989 77.1031C78.4637 77.1047 78.2342 77.1757 78.0392 77.3072C77.8443 77.4387 77.6927 77.6248 77.6034 77.8422C77.5141 78.0595 77.4911 78.2984 77.5374 78.5287C77.5836 78.7591 77.6971 78.9706 77.8634 79.1368C78.0297 79.3029 78.2415 79.4162 78.4722 79.4624C78.7028 79.5086 78.9419 79.4857 79.1596 79.3965C79.3772 79.3073 79.5635 79.1558 79.6952 78.9611C79.8268 78.7664 79.8979 78.5372 79.8995 78.3023C79.8995 77.9842 79.773 77.6792 79.5478 77.4544C79.3227 77.2295 79.0173 77.1031 78.6989 77.1031ZM78.6989 79.2584C78.5074 79.26 78.3197 79.2046 78.1598 79.0992C77.9998 78.9939 77.8749 78.8434 77.8009 78.667C77.7269 78.4905 77.7071 78.296 77.7441 78.1083C77.7811 77.9206 77.8732 77.7481 78.0086 77.6128C78.1441 77.4775 78.3168 77.3856 78.5047 77.3486C78.6927 77.3117 78.8874 77.3314 79.064 77.4053C79.2407 77.4793 79.3914 77.604 79.4968 77.7638C79.6023 77.9235 79.6578 78.111 79.6562 78.3023C79.6542 78.5552 79.5526 78.7972 79.3735 78.9761C79.1945 79.155 78.9522 79.2564 78.6989 79.2584ZM59.3959 80.5986C59.0781 80.6007 58.7739 80.7277 58.5492 80.9521C58.3245 81.1765 58.1974 81.4803 58.1953 81.7977C58.1969 82.0327 58.2679 82.2619 58.3996 82.4566C58.5312 82.6513 58.7176 82.8028 58.9352 82.892C59.1528 82.9812 59.392 83.0041 59.6226 82.9579C59.8532 82.9117 60.065 82.7984 60.2314 82.6322C60.3977 82.4661 60.5111 82.2546 60.5574 82.0242C60.6037 81.7939 60.5807 81.555 60.4914 81.3376C60.4021 81.1203 60.2505 80.9341 60.0555 80.8027C59.8606 80.6712 59.6311 80.6002 59.3959 80.5986ZM59.3959 82.7539C59.2043 82.7555 59.0166 82.7 58.8567 82.5947C58.6968 82.4894 58.5719 82.3389 58.4979 82.1625C58.4239 81.986 58.4041 81.7915 58.4411 81.6038C58.4781 81.4161 58.5701 81.2436 58.7056 81.1083C58.841 80.973 59.0137 80.881 59.2017 80.8441C59.3896 80.8071 59.5843 80.8269 59.761 80.9008C59.9377 80.9748 60.0883 81.0995 60.1938 81.2592C60.2992 81.419 60.3547 81.6064 60.3532 81.7977C60.3451 82.0466 60.2409 82.2826 60.0625 82.4565C59.884 82.6303 59.6451 82.7285 59.3959 82.7304V82.7539ZM71.8251 81.5626C71.5882 81.5627 71.3567 81.6332 71.1601 81.7651C70.9635 81.8971 70.8107 82.0846 70.7211 82.3036C70.6316 82.5227 70.6094 82.7634 70.6574 82.9951C70.7053 83.2268 70.8213 83.439 70.9904 83.6046C71.1596 83.7703 71.3743 83.8818 71.6072 83.9251C71.8401 83.9684 72.0806 83.9414 72.2981 83.8476C72.5156 83.7538 72.7002 83.5975 72.8284 83.3985C72.9566 83.1995 73.0225 82.967 73.0178 82.7304C73.0097 82.4192 72.8807 82.1233 72.6581 81.9054C72.4355 81.6875 72.1368 81.5645 71.8251 81.5626ZM71.8251 83.7101C71.5726 83.7019 71.3335 83.5943 71.1601 83.4108C70.9866 83.2273 70.8929 82.9827 70.8992 82.7304C70.8977 82.5394 70.9529 82.3523 71.058 82.1927C71.1631 82.0332 71.3133 81.9084 71.4896 81.8342C71.6658 81.76 71.8601 81.7398 72.0478 81.7761C72.2355 81.8124 72.4083 81.9036 72.544 82.0381C72.6798 82.1726 72.7725 82.3444 72.8104 82.5316C72.8482 82.7188 72.8296 82.913 72.7568 83.0896C72.684 83.2662 72.5603 83.4173 72.4014 83.5235C72.2425 83.6298 72.0556 83.6866 71.8644 83.6866L71.8251 83.7101ZM72.7746 71.758C72.4954 71.8037 72.2416 71.947 72.0584 72.1624C71.8753 72.3777 71.7747 72.6511 71.7747 72.9336C71.7747 73.2162 71.8753 73.4896 72.0584 73.7049C72.2416 73.9203 72.4954 74.0636 72.7746 74.1093C72.9453 74.1372 73.12 74.1277 73.2866 74.0815C73.4532 74.0353 73.6078 73.9534 73.7396 73.8416C73.8714 73.7297 73.9773 73.5906 74.0499 73.4338C74.1225 73.2771 74.1601 73.1064 74.1601 72.9336C74.1601 72.7609 74.1225 72.5902 74.0499 72.4335C73.9773 72.2767 73.8714 72.1376 73.7396 72.0257C73.6078 71.9139 73.4532 71.832 73.2866 71.7858C73.12 71.7396 72.9453 71.7301 72.7746 71.758ZM72.7746 73.9133C72.52 73.9113 72.2765 73.8088 72.0972 73.6282C71.9179 73.4477 71.8173 73.2036 71.8173 72.9493C71.839 72.7097 71.9496 72.4868 72.1275 72.3245C72.3054 72.1622 72.5376 72.0722 72.7785 72.0722C73.0194 72.0722 73.2517 72.1622 73.4295 72.3245C73.6074 72.4868 73.718 72.7097 73.7397 72.9493C73.7398 73.2057 73.6383 73.4517 73.4575 73.6338C73.2768 73.8158 73.0313 73.9191 72.7746 73.9212V73.9133Z" fill="white"/>
<path d="M72.5436 86.4996C67.2436 85.0274 62.0281 83.2666 56.9207 81.2251C56.858 81.2251 56.9207 81.1075 56.9757 81.131C58.2154 81.6248 66.8626 84.1641 72.5986 86.3978C72.6692 86.4213 72.6143 86.5153 72.5436 86.4996Z" fill="#050A3A"/>
<path d="M80.8777 80.1753C80.4226 80.5359 79.9831 80.912 79.528 81.2726L79.2298 81.5155C80.2892 80.1283 81.3171 78.7097 82.3058 77.2755C82.3058 77.2755 82.3058 77.205 82.2509 77.2755C80.4304 79.4073 78.5864 81.5312 76.7581 83.6865C74.9298 85.8418 73.078 87.8246 71.4302 90.0348L70.5435 89.7605C70.5347 89.7574 70.5254 89.756 70.5162 89.7565C70.5069 89.757 70.4978 89.7593 70.4894 89.7633C70.4811 89.7674 70.4735 89.773 70.4673 89.7799C70.4611 89.7868 70.4563 89.7948 70.4532 89.8036C70.4502 89.8123 70.4488 89.8216 70.4493 89.8309C70.4498 89.8401 70.4521 89.8492 70.4561 89.8576C70.4602 89.8659 70.4658 89.8734 70.4727 89.8796C70.4796 89.8858 70.4877 89.8906 70.4964 89.8937L71.4302 90.3561C71.4534 90.3716 71.4807 90.3799 71.5086 90.3799C71.5366 90.3799 71.5639 90.3716 71.5871 90.3561C73.5876 88.4154 75.4541 86.3416 77.174 84.1489C77.6605 83.5611 78.1392 82.9576 78.61 82.3541L78.7198 82.2679L79.1749 81.8917C79.7791 81.3901 80.3441 80.8572 80.8934 80.3242C80.9561 80.1988 80.9169 80.144 80.8777 80.1753Z" fill="#050A3A"/>
<path d="M83.2898 68.6236C83.6116 69.4073 88.2961 73.7806 91.8507 72.9498C93.012 72.6833 91.8507 66.3037 91.8507 66.3037V65.8099L92.1175 58.9366L83.4546 55.3862L82.2148 54.9316C82.2148 54.9316 82.2619 56.8126 82.3482 59.1638C82.3482 59.2736 82.3482 59.3833 82.3482 59.5008C82.3482 59.6184 82.3482 59.7595 82.3482 59.877C82.3482 60.2297 82.3482 60.5902 82.3482 60.9429C82.3482 61.2956 82.3482 61.4837 82.3953 61.7659C82.4424 62.048 82.3953 62.3301 82.4502 62.6123C82.5888 64.6332 82.8694 66.6419 83.2898 68.6236Z" fill="#E59090"/>
<path d="M82.3169 59.1638C83.3238 60.8973 84.697 62.3906 86.3408 63.5398C87.9847 64.689 89.8596 65.4663 91.835 65.8178L92.1018 58.9444L83.4546 55.3862L82.2148 54.9316C82.2148 54.9316 82.2305 56.8126 82.3169 59.1638Z" fill="#030629"/>
<path d="M99.6073 47.7674C102.289 59.5235 95.8081 62.5095 93.3082 63.1052C91.0819 63.646 83.4304 65.1899 79.5705 53.7865C75.7105 42.3831 80.1631 37.375 85.2084 35.8624C90.2537 34.3498 96.9174 36.0191 99.6073 47.7674Z" fill="#E59090"/>
<path d="M98.0676 45.2678C97.7906 45.2835 97.5129 45.2835 97.2358 45.2678C96.943 45.321 96.6407 45.2711 96.3805 45.1267C96.3066 45.0673 96.2549 44.9847 96.2335 44.8923C96.2122 44.8 96.2225 44.7031 96.2628 44.6173C96.3664 44.4584 96.5103 44.3297 96.6798 44.2444C96.8493 44.159 97.0385 44.12 97.228 44.1314C97.6149 44.1027 97.9993 44.214 98.3108 44.4449C98.3833 44.5021 98.4369 44.5797 98.4648 44.6677C98.4928 44.7556 98.4937 44.8499 98.4676 44.9384C98.4414 45.0269 98.3893 45.1056 98.3181 45.1643C98.2468 45.223 98.1596 45.259 98.0676 45.2678Z" fill="#050A3A"/>
<path d="M90.3549 47.1332C90.6239 47.0328 90.886 46.915 91.1396 46.7805C91.4244 46.6923 91.6724 46.5133 91.8458 46.2711C91.8826 46.184 91.8902 46.0873 91.8676 45.9955C91.845 45.9038 91.7933 45.8217 91.7202 45.7616C91.5562 45.6651 91.3692 45.6143 91.1788 45.6143C90.9884 45.6143 90.8015 45.6651 90.6374 45.7616C90.2717 45.9067 89.9764 46.1876 89.8135 46.5454C89.787 46.6227 89.782 46.7058 89.7988 46.7858C89.8157 46.8659 89.8538 46.9399 89.9092 47C89.9647 47.0602 90.0353 47.1043 90.1138 47.1278C90.1922 47.1512 90.2755 47.1531 90.3549 47.1332Z" fill="#050A3A"/>
<path d="M90.8548 50.0013C90.838 49.7729 90.887 49.5445 90.996 49.343C91.0578 49.235 91.1413 49.141 91.2412 49.0668C91.3412 48.9926 91.4554 48.9399 91.5767 48.9119C91.7028 48.8873 91.8329 48.8922 91.9568 48.9262C92.0807 48.9602 92.195 49.0224 92.2908 49.1079C92.4537 49.2605 92.5798 49.4481 92.6596 49.6565C92.7044 49.782 92.7411 49.9103 92.7694 50.0405C92.8275 50.2986 92.8275 50.5662 92.7694 50.8243C92.7415 50.6277 92.6888 50.4355 92.6125 50.2521C92.5511 50.0813 92.475 49.9161 92.3849 49.7584C92.2045 49.4371 91.9377 49.1941 91.6709 49.2725C91.4041 49.3508 91.2158 49.6095 91.1765 49.9778C91.1376 50.3609 91.1376 50.7469 91.1765 51.1299C90.9841 50.7833 90.8741 50.3972 90.8548 50.0013Z" fill="#050A3A"/>
<path d="M98.8421 48.0734C98.7376 47.8705 98.5769 47.7018 98.3792 47.5875C98.2694 47.5286 98.1488 47.4927 98.0247 47.482C97.9006 47.4712 97.7756 47.4857 97.6573 47.5248C97.5356 47.5668 97.4261 47.6381 97.3385 47.7325C97.2509 47.8268 97.1879 47.9412 97.1551 48.0655C97.1046 48.2821 97.1046 48.5073 97.1551 48.7239C97.1797 48.855 97.2165 48.9836 97.2649 49.1079C97.3562 49.3691 97.5035 49.6071 97.6965 49.8054C97.62 49.6216 97.5648 49.4296 97.5317 49.2333C97.4958 49.0551 97.4748 48.8742 97.469 48.6925C97.469 48.3242 97.5553 47.9793 97.8299 47.9088C98.1046 47.8383 98.387 47.9637 98.6146 48.2536C98.8435 48.5636 99.0382 48.8973 99.1952 49.249C99.1765 48.834 99.0552 48.4301 98.8421 48.0734Z" fill="#050A3A"/>
<path d="M92.4168 37.9944C92.6813 39.0309 92.6294 40.1226 92.2677 41.1294C90.973 43.849 87.693 43.1436 86.5709 44.2173C85.4488 45.291 85.8961 47.3523 84.9467 48.3319C83.6284 49.727 81.808 49.1941 81.6196 50.1345C81.4313 51.075 80.7879 54.0532 79.5873 54.4529C78.3868 54.8527 72.8391 34.9457 88.5248 35.5256C88.5248 35.5256 90.6748 34.6479 94.0175 36.3094C97.7055 38.1512 99.3219 44.2016 99.3219 44.2016C99.3219 44.2016 99.2435 44.1233 98.7099 43.653C97.9252 42.9868 97.6506 42.3677 97.1013 41.9366C96.2225 41.2626 95.7438 41.5212 94.8414 40.8629C93.8642 40.0631 93.0423 39.0908 92.4168 37.9944Z" fill="#050A3A"/>
<path d="M92.1727 37.1328C92.4202 37.9088 92.5756 38.7111 92.6356 39.5232C92.7437 40.3223 92.6297 41.1357 92.3061 41.8744C91.8976 42.5446 91.2589 43.0433 90.5092 43.2773C89.7245 43.5516 88.9398 43.6378 88.1552 43.9592C87.7398 44.12 87.3762 44.391 87.1037 44.7429C86.8726 45.1108 86.7179 45.5212 86.6486 45.9499C86.5646 46.7363 86.266 47.4845 85.7854 48.113C85.5207 48.4052 85.1955 48.6365 84.8323 48.7908C84.4692 48.945 84.0769 49.0186 83.6825 49.0065C82.8719 48.8753 82.0427 48.9181 81.25 49.1319C82.0535 48.9806 82.88 49.002 83.6746 49.1946C84.1068 49.2303 84.5416 49.1709 84.9483 49.0206C85.3551 48.8702 85.7238 48.6327 86.0287 48.3246C86.5762 47.6715 86.9223 46.8738 87.0252 46.0283C87.0885 45.6456 87.2301 45.2801 87.4411 44.9545C87.6741 44.6601 87.9835 44.4351 88.3356 44.304C89.0575 43.9984 89.905 43.9043 90.6897 43.5987C91.0901 43.4528 91.4658 43.2466 91.8039 42.9873C92.1593 42.7347 92.4431 42.3945 92.6278 41.9998C92.9394 41.2134 93.0263 40.3561 92.8789 39.5232C92.7418 38.7007 92.5046 37.8979 92.1727 37.1328Z" fill="#030629"/>
<path d="M92.4688 37.8457C92.633 38.5958 92.8969 39.3207 93.2534 40.001C93.5947 40.7179 94.1407 41.3178 94.8228 41.7252C95.1715 41.8937 95.5337 42.0326 95.9056 42.1406C96.2367 42.2431 96.531 42.4391 96.7531 42.7049C96.9511 43.0358 97.1825 43.3457 97.4436 43.6297C97.7267 43.8953 98.0679 44.0912 98.4401 44.2018C98.108 44.0269 97.8145 43.787 97.577 43.4965C97.3564 43.1964 97.1647 42.8763 97.0042 42.5403C96.7682 42.1993 96.4304 41.9415 96.039 41.8036C95.6864 41.6911 95.3428 41.5522 95.0111 41.3882C94.3853 41.0026 93.8693 40.4628 93.5124 39.8207C93.122 39.1857 92.7733 38.526 92.4688 37.8457Z" fill="#030629"/>
<path d="M91.6307 54.3969C90.9589 54.4899 90.2745 54.3928 89.6552 54.1167C89.0359 53.8406 88.5066 53.3964 88.1274 52.8348C87.7482 52.2732 87.5344 51.6166 87.5101 50.9397C87.4859 50.2627 87.6523 49.5926 87.9904 49.0053C88.3284 48.4181 88.8247 47.9374 89.4226 47.6178C90.0206 47.2982 90.6963 47.1526 91.373 47.1974C92.0497 47.2422 92.7003 47.4758 93.2507 47.8715C93.8012 48.2672 94.2294 48.8092 94.4869 49.4359C94.8403 50.323 94.8302 51.3135 94.4588 52.1933C94.0874 53.0731 93.3844 53.7717 92.5016 54.1383C92.2242 54.2629 91.9312 54.3499 91.6307 54.3969ZM90.689 47.7038C90.4194 47.7358 90.1555 47.8044 89.9044 47.9076C89.1651 48.2058 88.5672 48.7739 88.232 49.4964C87.8969 50.2189 87.8495 51.0418 88.0997 51.7979C88.3498 52.554 88.8787 53.1867 89.5788 53.5676C90.279 53.9484 91.0981 54.0488 91.8697 53.8484C92.6413 53.6481 93.3077 53.1619 93.7335 52.4886C94.1593 51.8154 94.3126 51.0055 94.1624 50.2235C94.0121 49.4414 93.5695 48.7458 92.9244 48.2778C92.2793 47.8099 91.4801 47.6046 90.689 47.7038Z" fill="#050A3A"/>
<path d="M99.4991 52.2738C98.1181 52.3992 96.7292 51.106 96.3604 49.2564C96.1624 48.3736 96.2418 47.4512 96.5879 46.6152C96.7287 46.2551 96.954 45.934 97.2448 45.6789C97.5357 45.4239 97.8836 45.2424 98.2593 45.1496C98.6395 45.0802 99.0309 45.1054 99.3991 45.223C99.7672 45.3405 100.101 45.5468 100.37 45.8236C101.038 46.4496 101.487 47.2741 101.649 48.1748C102.057 50.1342 101.21 51.9681 99.758 52.2816L99.4991 52.2738ZM98.5182 45.5963H98.3299C98.0307 45.6748 97.7547 45.824 97.5253 46.0314C97.2959 46.2387 97.1197 46.498 97.0117 46.7876C96.6955 47.53 96.6268 48.3543 96.8155 49.1388C97.1764 50.8317 98.4319 52.0073 99.6325 51.7487C100.833 51.49 101.508 49.9147 101.147 48.2218C100.997 47.4349 100.605 46.7143 100.025 46.1606C99.8268 45.9671 99.5905 45.817 99.3311 45.7199C99.0717 45.6227 98.7948 45.5806 98.5182 45.5963Z" fill="#050A3A"/>
<path d="M94.4392 49.8756L94.0469 49.5935C94.4628 49.0057 95.5299 48.0887 96.6285 48.8097L96.3695 49.2173C95.4201 48.5668 94.5098 49.8129 94.4392 49.8756Z" fill="#050A3A"/>
<path d="M79.0841 54.8689L78.6133 54.767C78.6604 54.5476 79.1233 52.6039 80.1277 52.1572C81.1321 51.7104 87.5037 50.6837 87.7783 50.6367L87.8568 51.1148C86.0049 51.4205 81.0458 52.2747 80.3239 52.5961C79.602 52.9174 79.2018 54.336 79.0841 54.8689Z" fill="#050A3A"/>
<path d="M82.0999 53.0654C82.0999 53.0654 78.9612 49.711 77.3918 50.8866C75.8225 52.0622 78.5845 57.1565 80.6796 57.6346C80.945 57.7111 81.2232 57.7333 81.4973 57.6996C81.7715 57.666 82.036 57.5774 82.275 57.439C82.514 57.3006 82.7225 57.1154 82.8879 56.8944C83.0533 56.6735 83.1723 56.4214 83.2377 56.1533L82.0999 53.0654Z" fill="#E59090"/>
<path d="M208.845 257.833C208.845 257.833 208.845 290.891 208.845 290.915C208.845 297.239 208.79 302.78 208.476 305.641C208.48 305.657 208.48 305.673 208.476 305.688C208.481 306.368 208.325 307.039 208.021 307.647H207.982C206.107 308.933 155.534 310.657 153.753 310.124C151.972 309.591 153.345 304.473 155.252 302.843C157.158 301.213 176.242 291.871 176.242 291.871L176.556 258.828L208.845 257.833Z" fill="#894549"/>
<path d="M208.845 284.15C208.845 284.15 208.845 290.914 208.845 290.938C208.845 297.262 208.79 302.803 208.476 305.664C208.48 305.68 208.48 305.696 208.476 305.711C208.406 306.38 208.253 307.039 208.021 307.67H207.982C206.107 308.956 155.534 310.68 153.753 310.147C151.972 309.614 153.345 304.496 155.252 302.866C157.158 301.236 176.242 291.894 176.242 291.894L176.148 285.005L208.845 284.15Z" fill="white"/>
<path d="M153.748 310.171C155.529 310.704 206.102 308.972 207.985 307.687C208.707 307.209 208.887 299.85 208.84 290.915V290.641L176.198 291.424V291.973C176.198 291.973 157.138 301.284 155.216 302.945C153.293 304.607 151.959 309.638 153.748 310.171Z" fill="#2D53A4"/>
<path d="M154.254 308.188C162.767 307.687 197.167 306.472 205.626 306.621C205.697 306.621 205.697 306.668 205.626 306.668C197.199 307.35 162.791 308.29 154.261 308.322C154.081 308.329 154.081 308.204 154.254 308.188Z" fill="#030629"/>
<path d="M173.495 292.137C176.83 291.392 180.949 291.769 183.594 294.065C183.696 294.159 183.594 294.3 183.46 294.269C180.219 293.348 176.889 292.773 173.526 292.552C173.477 292.547 173.431 292.525 173.396 292.489C173.361 292.454 173.34 292.407 173.337 292.358C173.333 292.308 173.347 292.259 173.376 292.219C173.404 292.178 173.447 292.149 173.495 292.137Z" fill="#030629"/>
<path d="M171.126 293.672C174.461 292.936 178.581 293.304 181.225 295.608C181.327 295.694 181.225 295.843 181.092 295.812C177.852 294.884 174.521 294.309 171.158 294.096C171.13 294.098 171.102 294.094 171.076 294.085C171.049 294.077 171.025 294.063 171.003 294.045C170.961 294.008 170.934 293.956 170.93 293.9C170.926 293.843 170.944 293.788 170.981 293.745C171.018 293.703 171.07 293.676 171.126 293.672Z" fill="#030629"/>
<path d="M168.755 295.217C172.09 294.472 176.21 294.849 178.854 297.145C178.956 297.239 178.854 297.38 178.721 297.349C175.48 296.428 172.149 295.855 168.787 295.64C168.731 295.644 168.675 295.626 168.632 295.589C168.59 295.553 168.563 295.5 168.559 295.444C168.555 295.388 168.573 295.333 168.61 295.29C168.647 295.247 168.699 295.221 168.755 295.217Z" fill="#030629"/>
<path d="M210.478 234.07L210.47 234.438L209.741 292.31L174.344 291.604L181.61 115.169H211.514L210.478 234.07Z" fill="#DDDFEE"/>
<path d="M175.819 285.719C181.351 285.672 179.742 285.609 185.29 285.625C187.997 285.625 205.77 285.687 208.289 286.142C208.303 286.142 208.317 286.148 208.327 286.158C208.338 286.168 208.344 286.182 208.344 286.197C208.344 286.211 208.338 286.225 208.327 286.235C208.317 286.246 208.303 286.252 208.289 286.252C205.754 286.636 187.989 286.252 185.282 286.212C179.789 286.087 181.359 286.063 175.819 285.883C175.717 285.86 175.717 285.719 175.819 285.719Z" fill="#030629"/>
<path d="M203.741 266.125C203.809 260.837 203.895 255.55 204 250.262C204.199 239.682 204.392 229.106 204.581 218.536C204.973 197.49 205.313 176.449 205.601 155.414C205.781 143.54 205.773 131.667 206.079 119.801C206.079 119.801 206.126 119.801 206.134 119.801C206.331 130.373 206.205 140.962 206.189 151.534C206.174 162.107 206.126 172.695 206.024 183.26C205.82 204.304 205.53 225.347 205.028 246.39C204.887 252.323 204.745 258.256 204.541 264.189C204.337 270.122 204.204 276.063 203.757 281.98C203.757 281.999 203.749 282.017 203.736 282.03C203.723 282.043 203.705 282.051 203.686 282.051C203.667 282.051 203.649 282.043 203.636 282.03C203.623 282.017 203.616 281.999 203.616 281.98C203.514 276.658 203.67 271.368 203.741 266.125Z" fill="#030629"/>
<path d="M211.518 115.522L210.734 205.62L186.762 115.169H211.51L211.518 115.522Z" fill="#030629"/>
<path d="M263.012 241.296L280.094 269.04C282.872 274.722 285.202 279.754 286.16 282.474C286.164 282.486 286.164 282.5 286.16 282.513C286.457 283.123 286.608 283.794 286.599 284.472C286.6 284.49 286.6 284.509 286.599 284.527C285.461 286.502 240.641 309.959 238.82 310.249C237 310.539 236.003 305.335 237.016 303.039C238.028 300.743 251.14 284.088 251.14 284.088L234.355 256.242L263.012 241.296Z" fill="#894549"/>
<path d="M286.62 284.48C286.623 284.487 286.625 284.495 286.625 284.503C286.625 284.511 286.623 284.519 286.62 284.527C285.482 286.494 240.669 309.959 238.825 310.257C236.981 310.555 236.008 305.335 237.012 303.039C238.017 300.742 251.176 284.088 251.176 284.088L248.178 279.119C255.507 275.2 268.823 268.366 277.086 264.126C278.891 267.041 280.115 269.032 280.115 269.048C282.892 274.722 285.223 279.754 286.18 282.465C286.184 282.481 286.184 282.497 286.18 282.513C286.479 283.125 286.629 283.799 286.62 284.48Z" fill="white"/>
<path d="M238.827 310.259C240.671 309.961 285.484 286.504 286.621 284.529C287.069 283.745 284.024 277.059 280.116 269.042L279.991 268.791L250.911 283.612L251.177 284.09C251.177 284.09 238.042 300.736 237.053 303.04C236.065 305.345 236.975 310.556 238.827 310.259Z" fill="#2D53A4"/>
<path d="M238.404 308.251C245.858 304.113 276.327 288.117 284.017 284.59C284.08 284.59 284.103 284.59 284.017 284.637C276.711 288.9 246.117 304.654 238.443 308.376C238.302 308.447 238.247 308.337 238.404 308.251Z" fill="#030629"/>
<path d="M248.777 285.452C251.461 283.336 255.337 281.894 258.719 282.818C258.852 282.818 258.798 283.038 258.68 283.061C255.373 283.634 252.137 284.559 249.028 285.82C248.979 285.853 248.919 285.866 248.861 285.855C248.803 285.844 248.752 285.81 248.718 285.761C248.685 285.712 248.673 285.652 248.684 285.594C248.695 285.536 248.728 285.485 248.777 285.452Z" fill="#030629"/>
<path d="M247.302 287.865C249.986 285.757 253.862 284.307 257.244 285.232C257.369 285.271 257.322 285.451 257.205 285.475C253.885 286.044 250.636 286.969 247.514 288.233C247.465 288.261 247.407 288.269 247.352 288.254C247.298 288.24 247.252 288.204 247.224 288.155C247.195 288.106 247.188 288.048 247.203 287.994C247.217 287.939 247.253 287.893 247.302 287.865Z" fill="#030629"/>
<path d="M245.841 290.279C248.525 288.171 252.401 286.721 255.783 287.646C255.908 287.685 255.861 287.865 255.744 287.889C252.424 288.458 249.175 289.383 246.053 290.647C246.004 290.675 245.946 290.683 245.892 290.668C245.837 290.654 245.791 290.618 245.763 290.569C245.735 290.52 245.727 290.462 245.742 290.408C245.756 290.353 245.792 290.307 245.841 290.279Z" fill="#030629"/>
<path d="M184.684 115.137C184.817 115.756 186.904 125.443 189.078 133.758C190.647 139.84 192.271 145.185 193.197 145.734C194.257 146.361 199.388 148.634 201.107 149.347C201.107 149.347 212.657 206.913 218.754 224.766C224.373 241.225 247.654 285.271 247.654 285.271L281.395 268.232C281.395 268.232 255.022 223.559 252.252 215.526C247.952 203.096 231.85 142.403 231.85 142.403C231.85 142.403 231.968 123.405 225.573 115.105L184.684 115.137Z" fill="#DDDFEE"/>
<path d="M248.148 278.727C252.974 276.031 251.553 276.737 256.403 274.103C258.757 272.81 274.403 264.338 276.804 263.523C276.817 263.522 276.829 263.524 276.84 263.53C276.851 263.536 276.86 263.545 276.866 263.555C276.871 263.566 276.874 263.579 276.873 263.591C276.872 263.603 276.867 263.615 276.859 263.625C274.827 265.192 259.063 273.374 256.662 274.597C251.749 277.136 253.131 276.353 248.203 278.845C248.19 278.843 248.178 278.838 248.168 278.83C248.158 278.822 248.149 278.812 248.144 278.801C248.139 278.789 248.136 278.776 248.137 278.764C248.137 278.751 248.141 278.738 248.148 278.727Z" fill="#030629"/>
<path d="M223.206 137.152C222.28 136.909 221.291 136.838 220.35 136.689C219.565 136.564 218.827 136.431 218.074 136.266C216.627 136.007 215.255 135.432 214.056 134.581C212.754 133.562 212.087 132.026 211.459 130.545C211.083 129.667 210.675 128.789 210.306 127.919C210.11 127.496 209.921 127.073 209.725 126.658C209.46 126.164 209.222 125.656 209.011 125.137C209.011 125.059 208.87 125.098 208.893 125.137C209.021 125.497 209.128 125.863 209.215 126.234C209.348 126.657 209.466 127.081 209.599 127.504C209.835 128.288 210.062 129.017 210.314 129.769C210.69 131.153 211.23 132.487 211.922 133.743C213.311 135.953 215.806 136.877 218.302 137.167C219.016 137.254 219.73 137.309 220.452 137.348C221.357 137.426 222.268 137.426 223.174 137.348C223.308 137.379 223.347 137.183 223.206 137.152Z" fill="#030629"/>
<path d="M190.465 144.411C194.13 145.749 197.672 147.401 201.051 149.349C201.184 149.419 201.098 149.631 200.957 149.568C197.386 148.04 193.753 146.574 190.277 144.866C190.217 144.841 190.169 144.793 190.144 144.733C190.119 144.673 190.119 144.605 190.144 144.545C190.169 144.484 190.217 144.436 190.277 144.411C190.337 144.386 190.405 144.386 190.465 144.411Z" fill="#030629"/>
<path d="M189.387 120.019C189.387 119.894 189.615 119.87 189.615 120.019C189.615 123.992 189.814 127.963 190.211 131.916C190.376 133.75 191.859 143.884 195.044 143.147C195.578 143.022 195.829 142.497 195.931 141.697C195.92 140.639 195.777 139.586 195.507 138.562C195.154 136.438 194.872 134.314 194.723 132.167C194.349 128.176 194.391 124.158 194.848 120.176C194.848 120.149 194.859 120.123 194.878 120.104C194.897 120.085 194.923 120.074 194.95 120.074C194.977 120.074 195.003 120.085 195.022 120.104C195.042 120.123 195.052 120.149 195.052 120.176C194.96 125.71 195.286 131.243 196.025 136.728C196.426 139.362 197.752 143.335 194.99 143.735C192.228 144.135 190.36 137.465 190.015 135.686C189.13 130.513 188.919 125.247 189.387 120.019Z" fill="#030629"/>
<path d="M194.962 143.407C195.244 144.091 195.483 144.793 195.676 145.507C195.884 146.058 195.985 146.643 195.974 147.232C195.968 147.254 195.956 147.275 195.94 147.291C195.923 147.307 195.902 147.318 195.879 147.323C195.856 147.328 195.832 147.326 195.81 147.318C195.788 147.311 195.769 147.297 195.754 147.279C195.422 146.762 195.173 146.196 195.017 145.601C194.774 144.951 194.515 144.3 194.295 143.65C194.279 143.606 194.272 143.56 194.274 143.513C194.276 143.467 194.287 143.421 194.307 143.379C194.326 143.337 194.354 143.299 194.388 143.267C194.423 143.236 194.463 143.211 194.507 143.195C194.551 143.179 194.597 143.172 194.644 143.174C194.69 143.176 194.736 143.187 194.778 143.207C194.82 143.227 194.858 143.254 194.89 143.289C194.921 143.323 194.946 143.363 194.962 143.407Z" fill="#030629"/>
<path d="M272.304 262.668C267.494 253.624 262.543 244.642 257.568 235.723C255.112 231.311 252.554 226.953 250.216 222.478C248.009 218.053 246.221 213.433 244.872 208.676C241.901 199.021 239.084 189.321 236.421 179.576C233.758 169.832 231.263 160.045 228.935 150.217C228.347 147.756 227.703 145.303 227.232 142.819C226.809 140.313 226.809 137.754 227.232 135.248C227.597 132.912 227.615 130.535 227.287 128.194C226.916 125.859 226.365 123.556 225.64 121.305C225.263 120.114 224.855 118.954 224.455 117.763C224.446 117.735 224.427 117.711 224.401 117.697C224.376 117.683 224.345 117.68 224.317 117.688C224.289 117.696 224.266 117.716 224.252 117.741C224.238 117.767 224.235 117.797 224.243 117.825C225.702 122.583 227.193 127.395 226.879 132.434C226.73 134.856 226.095 137.239 226.095 139.676C226.251 142.095 226.661 144.49 227.319 146.824C229.615 156.714 232.082 166.558 234.718 176.355C237.355 186.152 240.14 195.909 243.075 205.628C244.511 210.33 245.853 215.15 247.885 219.657C249.917 224.163 252.499 228.434 254.947 232.753C259.964 241.667 265.046 250.549 270.193 259.4C270.845 260.521 271.512 261.634 272.171 262.747C272.234 262.801 272.336 262.739 272.304 262.668Z" fill="#030629"/>
<path d="M210.573 69.3365C212.794 75.7554 211.633 107.387 208.345 111.165C202.664 117.701 174.408 122.357 167.063 121.839C161.759 121.463 161.327 99.5654 166.004 98.8522C173.85 97.6687 194.903 95.874 195.335 94.6121C197.563 87.9739 199.133 81.845 202.154 71.3821C204.296 64.0855 208.125 62.2515 210.573 69.3365Z" fill="#894549"/>
<path d="M170.607 121.305C172.961 119.682 171.776 100.316 169.132 99.0073C168.63 98.7643 165.663 97.5417 164.534 96.9382C160.762 94.9187 157.353 92.2889 154.443 89.1557C151.202 85.4956 146.823 79.6881 144.791 81.3183C141.809 83.7322 146.47 91.742 149.421 96.1701C146.533 96.3896 144.061 96.8442 142.72 97.6357C138.27 100.261 142.72 120.137 147.898 120.874C152.912 121.618 168.206 122.927 170.607 121.305Z" fill="#894549"/>
<path d="M154.026 97.951C155.596 100.122 152.128 100.733 152.128 100.733C152.128 100.733 157.33 101.055 158.091 103.923C158.852 106.792 154.599 107.277 154.293 107.325C154.568 107.325 159.347 107.771 159.786 110.734C160.225 113.696 155.925 113.673 155.651 113.665C155.902 113.767 159.237 115.146 159.08 117.474C158.797 121.479 150.174 118.187 147.263 119.637C147.263 119.637 147.639 120.554 147.663 120.719C147.663 120.719 140.844 120.217 139.173 118.015C137.776 116.173 140.059 114.621 140.059 114.621C140.059 114.621 137.281 113.963 136.85 111.643C136.622 110.452 138.333 109.033 138.333 109.033C137.713 108.851 137.156 108.501 136.723 108.023C136.289 107.544 135.997 106.955 135.877 106.321C135.665 104.66 137.446 103.5 137.446 103.5C137.446 103.5 135.61 101.932 135.947 100.153C136.607 96.5794 150.644 93.2956 154.026 97.951Z" fill="#894549"/>
<path d="M138.284 109.024C138.229 109.024 138.198 108.946 138.284 108.922C142.78 106.673 148.964 105.615 154.448 107.159C154.637 107.214 154.754 107.449 154.527 107.402C150.776 106.657 142.71 107.574 138.284 109.024Z" fill="#030629"/>
<path d="M156.015 113.906C150.694 112.629 145.508 113.177 140.258 114.509C140.188 114.509 140.172 114.431 140.258 114.4C142.612 113.052 146.088 112.55 148.795 112.386C151.303 112.185 153.819 112.645 156.093 113.718C156.148 113.757 156.124 113.93 156.015 113.906Z" fill="#030629"/>
<path d="M152.197 100.662C152.386 100.662 152.127 100.944 152.323 100.976C153.107 101.132 157.816 102.465 157.886 104.22C157.886 105.615 156.058 106.634 155.187 106.744L153.005 107.018L155.155 107.52C156.111 107.734 157.025 108.102 157.863 108.609C158.263 108.823 158.613 109.119 158.892 109.476C159.17 109.834 159.37 110.246 159.479 110.686C159.575 111.097 159.526 111.528 159.342 111.907C159.158 112.287 158.849 112.592 158.467 112.771C157.603 113.156 156.655 113.315 155.713 113.233L153.107 113.092L155.509 114.072C156.179 114.342 156.812 114.698 157.392 115.13C157.959 115.516 158.399 116.062 158.655 116.697C158.757 116.988 158.776 117.301 158.709 117.601C158.643 117.902 158.493 118.178 158.278 118.398C157.723 118.82 157.059 119.078 156.364 119.143C154.859 119.288 153.346 119.32 151.836 119.237C151.052 119.237 150.306 119.198 149.537 119.237C148.766 119.209 147.998 119.348 147.285 119.644C148.016 119.434 148.781 119.368 149.537 119.448C150.322 119.448 151.052 119.558 151.813 119.636C153.348 119.829 154.898 119.876 156.442 119.778C157.288 119.758 158.108 119.485 158.796 118.994C159.136 118.687 159.378 118.287 159.494 117.845C159.61 117.402 159.594 116.935 159.448 116.501C159.156 115.702 158.631 115.009 157.941 114.511C157.304 114.017 156.605 113.608 155.862 113.296L155.65 114.08C156.764 114.199 157.89 114.023 158.914 113.57C159.473 113.304 159.922 112.852 160.185 112.293C160.425 111.735 160.491 111.117 160.374 110.522C160.239 109.962 159.987 109.438 159.634 108.984C159.281 108.53 158.835 108.156 158.326 107.888C157.398 107.34 156.384 106.951 155.328 106.736L155.289 107.52C156.395 107.34 158.6 106.43 158.82 104.252C158.663 101.375 153.202 100.756 152.197 100.662Z" fill="#030629"/>
<path d="M152.122 100.756C152.639 100.556 153.123 100.278 153.558 99.933C153.735 99.799 153.873 99.62 153.957 99.4146C154.041 99.2091 154.069 98.9848 154.036 98.7652C153.9 98.2919 153.627 97.8693 153.252 97.5504C152.859 97.1742 152.467 96.8059 151.973 96.4375C152.562 96.5397 153.123 96.7639 153.62 97.0958C153.907 97.267 154.156 97.4939 154.353 97.7632C154.55 98.0325 154.69 98.3386 154.766 98.6633C154.823 99.022 154.765 99.3894 154.601 99.7135C154.437 100.017 154.189 100.267 153.887 100.435C153.347 100.724 152.729 100.837 152.122 100.756Z" fill="#030629"/>
<path d="M169.203 97.6217L171.879 124.582C171.879 124.582 202.442 120.052 209.253 111.698C212.69 107.481 212.431 79.8935 211.513 71.7897C210.595 63.6858 205.149 61.6794 201.948 70.6297C198.746 79.5801 195.78 92.9977 195.113 93.7814C194.446 94.5652 169.203 97.6217 169.203 97.6217Z" fill="#050A3A"/>
<path d="M177.311 120.35C176.777 116.909 175.083 102.739 174.957 99.6588C174.957 99.4472 175.083 99.3845 175.122 99.604C176.373 106.448 177.159 113.368 177.476 120.318C177.452 120.428 177.327 120.459 177.311 120.35Z" fill="#9DA1C7"/>
<path d="M231.663 127.035C231.537 127.16 180.29 125.875 179.835 125.319C179.199 124.535 188.733 74.8535 197.631 63.8577C199.852 61.1067 206.992 60.7227 210.296 63.4188C226.633 76.6483 232.11 126.557 231.663 127.035Z" fill="#BF4A51"/>
<path d="M231.273 122.294L180.387 120.836C180.583 119.676 180.826 118.32 181.109 116.815L230.732 118.234C230.975 119.754 231.132 121.134 231.273 122.294Z" fill="#030629"/>
<path d="M230.452 116.344L181.48 114.949C181.567 114.534 181.653 114.103 181.739 113.664L230.248 115.051C230.319 115.49 230.381 115.921 230.452 116.344Z" fill="#030629"/>
<path d="M199.952 70.9175C202.126 71.3485 207.273 67.9471 209.564 64.773C209.721 64.5535 209.666 62.0534 209.745 59.0047C209.808 57.1629 209.91 55.086 210.145 53.2363L198.022 54.6236C198.401 57.0447 198.48 59.5032 198.257 61.9437C198.228 62.2104 198.17 62.4731 198.084 62.7274C198.084 62.7274 198.084 62.8058 198.084 62.8528C197.661 64.2557 196.554 70.2513 199.952 70.9175Z" fill="#894549"/>
<path d="M198.11 62.7055C198.11 62.7447 198.11 62.7761 198.11 62.8309C198.504 62.9316 198.905 63.0024 199.31 63.0425C206.004 63.7166 208.64 55.8008 209.291 53.3398L198.016 54.6252C198.395 57.0487 198.48 59.5093 198.267 61.9531C198.232 62.2073 198.179 62.4586 198.11 62.7055Z" fill="#030629"/>
<path d="M212.322 37.4225C213.585 41.6155 211.341 53.7086 208.351 56.3968C204.02 60.3155 196.934 60.6525 193.623 55.4563C190.414 50.4091 193.623 34.7029 196.958 32.2577C201.87 28.6525 210.447 31.2231 212.322 37.4225Z" fill="#894549"/>
<path d="M202.061 43.4242C203.395 43.581 202.987 46.2222 201.755 46.0811C200.524 45.9401 200.947 43.2988 202.061 43.4242Z" fill="#030629"/>
<path d="M195.743 42.2647C194.44 41.959 193.938 44.6159 195.138 44.8667C196.339 45.1175 196.841 42.5155 195.743 42.2647Z" fill="#030629"/>
<path d="M203.29 42.3814C202.959 42.2261 202.637 42.0535 202.325 41.8641C201.955 41.7296 201.64 41.4759 201.43 41.1431C201.387 41.0269 201.383 40.8999 201.418 40.7812C201.454 40.6625 201.527 40.5585 201.626 40.4847C201.848 40.3684 202.096 40.3135 202.346 40.3259C202.596 40.3383 202.838 40.4175 203.047 40.5553C203.514 40.7655 203.887 41.1429 204.09 41.6133C204.128 41.7235 204.134 41.8422 204.106 41.9554C204.079 42.0686 204.019 42.1716 203.935 42.2523C203.851 42.3329 203.746 42.388 203.631 42.4108C203.517 42.4337 203.399 42.4235 203.29 42.3814Z" fill="#030629"/>
<path d="M194.989 41.0892C195.357 41.0721 195.723 41.0355 196.087 40.9795C196.477 40.995 196.862 40.8791 197.178 40.6503C197.264 40.5609 197.318 40.4451 197.331 40.3216C197.344 40.198 197.315 40.0737 197.249 39.9685C197.087 39.7778 196.878 39.6332 196.642 39.5493C196.406 39.4653 196.153 39.445 195.907 39.4904C195.394 39.5101 194.908 39.7197 194.541 40.0782C194.462 40.1647 194.41 40.2723 194.391 40.388C194.372 40.5037 194.387 40.6224 194.434 40.7297C194.482 40.8369 194.559 40.928 194.658 40.9919C194.756 41.0557 194.871 41.0896 194.989 41.0892Z" fill="#030629"/>
<path d="M208.445 43.5423C207.66 41.1283 209.174 37.1626 208.005 36.0575C205.479 33.7063 200.064 37.9777 196.423 37.9072C192.782 37.8366 191.778 35.5559 192.5 32.7031C193.222 29.8503 195.694 28.0007 199.664 27.5226C203.13 27.2168 206.595 28.1318 209.457 30.109C209.457 30.109 208.602 28.6669 208.947 28.228C209.292 27.7891 210.979 29.2077 211.497 29.7955C211.859 30.316 212.125 30.8974 212.282 31.5119C212.809 31.3946 213.351 31.3523 213.89 31.3865C214.676 31.4658 215.409 31.8181 215.962 32.3818C216.017 32.5934 214.73 32.7188 213.827 32.7423C213.827 32.7423 215.444 35.0073 215.358 36.9118C215.271 38.8163 212.07 47.7823 211.356 47.8842C210.461 47.9782 208.751 44.5219 208.445 43.5423Z" fill="#030629"/>
<path d="M213.514 32.5156C213.514 32.5156 213.435 32.5156 213.466 32.5705C214.323 33.2959 214.959 34.246 215.303 35.3136C215.629 36.6028 215.604 37.9556 215.232 39.2323C214.612 41.7167 213.325 43.9347 212.203 46.2389C212.203 46.3016 212.282 46.3565 212.321 46.2938C213.797 43.9657 214.901 41.422 215.593 38.7542C216.064 36.4892 215.609 33.848 213.514 32.5156Z" fill="#030629"/>
<path d="M207.302 29.0585C205.894 28.3074 204.385 27.7636 202.821 27.444C201.329 27.0888 199.787 26.9934 198.262 27.1618C195.641 27.5224 193.193 29.1212 192.511 31.7859C192.139 33.1505 192.293 34.6044 192.942 35.8613C192.946 35.8707 192.951 35.8792 192.958 35.8863C192.965 35.8934 192.973 35.8989 192.982 35.9026C192.992 35.9062 193.001 35.9079 193.011 35.9075C193.021 35.907 193.031 35.9045 193.04 35.9001C193.049 35.8957 193.057 35.8894 193.063 35.8817C193.069 35.874 193.074 35.8651 193.076 35.8556C193.079 35.846 193.08 35.836 193.078 35.8262C193.077 35.8164 193.073 35.807 193.068 35.7987C192.545 34.6409 192.411 33.3457 192.686 32.1058C192.96 30.8658 193.628 29.7475 194.59 28.9174C196.779 27.1148 199.792 27.0521 202.437 27.5459C204.101 27.8978 205.724 28.4232 207.278 29.1133C207.278 29.1133 207.309 29.0585 207.302 29.0585Z" fill="#030629"/>
<path d="M209.699 47.273C209.699 47.273 212.531 43.4248 214.289 44.4359C216.047 45.4469 213.85 51.082 211.747 51.8109C211.483 51.9221 211.2 51.979 210.913 51.9782C210.627 51.9774 210.344 51.9189 210.081 51.8062C209.818 51.6935 209.58 51.5289 209.383 51.3223C209.185 51.1157 209.031 50.8714 208.93 50.6039L209.699 47.273Z" fill="#894549"/>
<path d="M213.621 46.0352V46.09C212.146 46.6543 211.338 47.9867 210.773 49.3817C210.861 49.2372 210.979 49.1135 211.12 49.0192C211.26 48.9248 211.419 48.8621 211.587 48.8352C211.754 48.8084 211.925 48.8181 212.088 48.8638C212.251 48.9094 212.402 48.9899 212.531 49.0996C212.57 49.0996 212.531 49.1858 212.491 49.178C212.235 49.09 211.958 49.0835 211.698 49.1593C211.438 49.2351 211.208 49.3895 211.04 49.6012C210.765 49.9582 210.525 50.3414 210.326 50.7454C210.255 50.8787 210.02 50.8003 210.075 50.6514C210.106 48.7547 211.62 46.1762 213.621 46.0352Z" fill="#030629"/>
<path d="M204.859 81.2493C199.193 80.9201 169.007 78.0124 162.486 71.7738C152.78 62.5022 148.103 47.3525 145.702 40.8475C144.658 38.0103 163.491 29.1384 165.005 31.9677C168.332 38.0417 175.371 54.4454 177.065 56.1696C178.76 57.8938 197.6 65.2374 207.268 69.548C220.238 75.332 218.614 82.0408 204.859 81.2493Z" fill="#894549"/>
<path d="M164.829 33.6206C164.829 33.6206 165.425 25.3208 164.39 20.8692C163.191 16.2659 160.891 12.0219 157.688 8.5018C154.252 4.68499 143.29 -2.15706 140.763 0.664404C138.48 3.20372 150.038 9.63039 150.038 9.63039C150.038 9.63039 139.335 1.13464 137.146 4.7085C134.956 8.28235 148.806 14.9677 148.806 14.9677C148.806 14.9677 137.601 6.47975 135.937 10.516C134.674 13.5648 146.868 20.3363 146.868 20.3363C146.868 20.3363 137.2 13.1102 135.765 16.1903C134.195 19.5995 145.047 26.5513 145.047 26.5513C142.693 34.9922 145.181 41.1837 147.456 43.4566C148.131 44.1306 164.829 33.6206 164.829 33.6206Z" fill="#894549"/>
<path d="M153.93 12.327C152.706 11.2846 151.474 10.2187 150.171 9.28606C148.869 8.35341 147.511 7.4913 146.123 6.70756C144.327 5.61809 142.413 4.7372 140.418 4.08203C143.871 5.5006 148.618 8.78447 149.928 9.6936C151.239 10.6027 152.588 11.4884 153.891 12.4132L153.93 12.327Z" fill="#030629"/>
<path d="M150.636 17.1074C149.019 15.8456 147.497 14.5289 145.794 13.3376C144.091 12.1463 142.444 11.1666 140.702 10.1008C140.568 10.0145 140.568 10.1008 140.702 10.2026C142.404 11.3391 143.887 12.5539 145.567 13.6824C147.246 14.811 148.988 15.9396 150.62 17.1544C150.636 17.1701 150.667 17.1309 150.636 17.1074Z" fill="#030629"/>
<path d="M148.588 21.7239C146.159 19.7235 143.529 17.9795 140.741 16.5199C140.6 16.4415 140.615 16.5747 140.741 16.6609C143.385 18.3381 145.449 19.6392 148.517 21.8023C148.588 21.8415 148.588 21.7631 148.588 21.7239Z" fill="#030629"/>
<path d="M143.875 45.5957L166.631 33.5967C166.631 33.5967 175.411 53.4174 177.247 55.3925C179.083 57.3675 206.712 67.8383 212.926 72.3369C219.141 76.8356 217.415 81.3656 209.27 81.8045C201.125 82.2434 168.953 78.0661 163.123 73.3793C157.293 68.6925 143.875 45.5957 143.875 45.5957Z" fill="#050A3A"/>
<path d="M167.216 39.9926C164.187 41.7247 151.523 48.3629 148.721 49.6169C148.525 49.7031 148.423 49.6169 148.611 49.4837C154.56 45.8618 160.75 42.6514 167.138 39.875C167.216 39.8437 167.287 39.9456 167.216 39.9926Z" fill="#9DA1C7"/>
</svg>
