<svg width="356" height="68" viewBox="0 0 356 68" fill="none" xmlns="http://www.w3.org/2000/svg">
<path d="M161.21 16.25V50H157.367V46.0156C156.554 47.2656 155.445 48.3594 154.038 49.2969C152.663 50.2344 151.085 50.7031 149.304 50.7031C147.304 50.7031 145.476 50.2031 143.82 49.2031C142.163 48.1719 140.835 46.75 139.835 44.9375C138.867 43.125 138.382 41.0312 138.382 38.6562C138.382 36.0625 138.867 33.8281 139.835 31.9531C140.835 30.0781 142.195 28.6406 143.913 27.6406C145.632 26.6094 147.554 26.0938 149.679 26.0938C151.023 26.0938 152.382 26.4219 153.757 27.0781C155.163 27.7031 156.367 28.5781 157.367 29.7031V16.25H161.21ZM150.382 29.9375C148.695 29.9375 147.257 30.3594 146.07 31.2031C144.882 32.0156 143.96 33.0781 143.304 34.3906C142.679 35.7031 142.367 37.125 142.367 38.6562C142.367 40.1562 142.679 41.5469 143.304 42.8281C143.929 44.0781 144.804 45.0781 145.929 45.8281C147.085 46.5781 148.413 46.9531 149.913 46.9531C151.351 46.9531 152.632 46.5781 153.757 45.8281C154.882 45.0781 155.773 44.0469 156.429 42.7344C157.085 41.3906 157.398 39.8906 157.367 38.2344L157.32 33.7344C156.351 32.5156 155.304 31.5781 154.179 30.9219C153.085 30.2656 151.82 29.9375 150.382 29.9375ZM178.985 26.0938C181.392 26.0938 183.392 26.5938 184.985 27.5938C186.579 28.5938 187.767 29.9531 188.548 31.6719C189.36 33.3906 189.767 35.3281 189.767 37.4844V39.7812H171.767C171.954 41.0938 172.407 42.2969 173.126 43.3906C173.845 44.4844 174.782 45.3594 175.938 46.0156C177.095 46.6406 178.423 46.9531 179.923 46.9531C181.61 46.9531 183.188 46.5312 184.657 45.6875C186.126 44.8125 187.36 43.8594 188.36 42.8281L188.313 47C187.876 47.5312 187.22 48.0938 186.345 48.6875C185.501 49.25 184.517 49.7188 183.392 50.0938C182.298 50.5 181.142 50.7031 179.923 50.7031C177.548 50.7031 175.438 50.1406 173.595 49.0156C171.751 47.8906 170.298 46.4062 169.235 44.5625C168.204 42.6875 167.688 40.6406 167.688 38.4219C167.688 36.2031 168.173 34.1562 169.142 32.2812C170.11 30.4062 171.438 28.9062 173.126 27.7812C174.845 26.6562 176.798 26.0938 178.985 26.0938ZM178.985 29.8438C177.048 29.8438 175.454 30.5 174.204 31.8125C172.954 33.0938 172.173 34.6562 171.86 36.5H185.97C185.813 34.9688 185.376 33.7188 184.657 32.75C183.97 31.7812 183.126 31.0625 182.126 30.5938C181.126 30.0938 180.079 29.8438 178.985 29.8438ZM203.229 26.0938C204.604 26.0938 205.885 26.2969 207.073 26.7031C208.26 27.0781 209.12 27.4688 209.651 27.875V32C208.995 31.5 208.104 31.0156 206.979 30.5469C205.854 30.0781 204.698 29.8438 203.51 29.8438C202.042 29.8438 200.932 30.1875 200.182 30.875C199.463 31.5625 199.104 32.2812 199.104 33.0312C199.104 33.625 199.307 34.2344 199.713 34.8594C200.151 35.4531 200.901 35.9375 201.963 36.3125L205.901 37.7188C207.432 38.25 208.573 39.0156 209.323 40.0156C210.073 41.0156 210.448 42.1875 210.448 43.5312C210.448 44.8438 210.073 46.0469 209.323 47.1406C208.604 48.2344 207.588 49.1094 206.276 49.7656C204.995 50.3906 203.51 50.7031 201.823 50.7031C200.917 50.7031 199.963 50.5781 198.963 50.3281C197.995 50.1094 197.12 49.8438 196.338 49.5312C195.557 49.1875 194.979 48.8906 194.604 48.6406V44.5156C195.042 44.8281 195.651 45.1875 196.432 45.5938C197.245 45.9688 198.104 46.2969 199.01 46.5781C199.917 46.8281 200.76 46.9531 201.542 46.9531C203.01 46.9531 204.167 46.625 205.01 45.9688C205.885 45.3125 206.323 44.5 206.323 43.5312C206.323 42.7812 206.026 42.1875 205.432 41.75C204.87 41.3125 204.042 40.8906 202.948 40.4844L199.479 39.2188C197.667 38.5312 196.463 37.6719 195.87 36.6406C195.276 35.5781 194.979 34.375 194.979 33.0312C194.979 31.0312 195.729 29.375 197.229 28.0625C198.729 26.75 200.729 26.0938 203.229 26.0938ZM220.207 15.3125C221.113 15.3125 221.863 15.6406 222.457 16.2969C223.082 16.9219 223.395 17.6562 223.395 18.5C223.395 19.3125 223.082 20.0469 222.457 20.7031C221.863 21.3594 221.113 21.6875 220.207 21.6875C219.301 21.6875 218.535 21.3594 217.91 20.7031C217.317 20.0469 217.02 19.3125 217.02 18.5C217.02 17.6562 217.317 16.9219 217.91 16.2969C218.535 15.6406 219.301 15.3125 220.207 15.3125ZM222.598 26.5625V50H218.754V30.1719H215.051V26.5625H222.598ZM240.701 26.0938C242.045 26.0938 243.404 26.4219 244.779 27.0781C246.185 27.7031 247.388 28.5781 248.388 29.7031V26.5625H252.232V49.5312C252.232 52.3125 251.67 54.625 250.545 56.4688C249.42 58.3125 247.92 59.6875 246.045 60.5938C244.17 61.5 242.123 61.9531 239.904 61.9531C238.467 61.9531 237.232 61.7812 236.201 61.4375C235.201 61.125 234.342 60.7188 233.623 60.2188C232.904 59.75 232.248 59.2969 231.654 58.8594V54.7344C232.123 55.0781 232.732 55.5156 233.482 56.0469C234.263 56.6094 235.185 57.1094 236.248 57.5469C237.342 57.9844 238.56 58.2031 239.904 58.2031C241.435 58.2031 242.842 57.9219 244.123 57.3594C245.404 56.7969 246.435 55.9688 247.217 54.875C247.998 53.7812 248.388 52.4688 248.388 50.9375V46.0156C247.576 47.2656 246.467 48.3594 245.06 49.2969C243.685 50.2344 242.107 50.7031 240.326 50.7031C238.326 50.7031 236.498 50.2031 234.842 49.2031C233.185 48.1719 231.857 46.75 230.857 44.9375C229.888 43.125 229.404 41.0312 229.404 38.6562C229.404 36.0625 229.888 33.8281 230.857 31.9531C231.857 30.0781 233.217 28.6406 234.935 27.6406C236.654 26.6094 238.576 26.0938 240.701 26.0938ZM241.404 29.8906C239.717 29.8906 238.279 30.3125 237.092 31.1562C235.904 31.9688 234.982 33.0469 234.326 34.3906C233.701 35.7031 233.388 37.125 233.388 38.6562C233.388 40.1562 233.701 41.5312 234.326 42.7812C234.951 44.0312 235.826 45.0312 236.951 45.7812C238.107 46.5312 239.435 46.9062 240.935 46.9062C242.373 46.9062 243.654 46.5312 244.779 45.7812C245.904 45.0312 246.795 44 247.451 42.6875C248.107 41.375 248.42 39.8906 248.388 38.2344L248.342 33.7344C247.373 32.5156 246.326 31.5781 245.201 30.9219C244.107 30.2344 242.842 29.8906 241.404 29.8906ZM264.195 26.5625V30.2656C264.695 29.6406 265.335 29.0156 266.117 28.3906C266.898 27.7344 267.773 27.1875 268.742 26.75C269.742 26.3125 270.773 26.0938 271.835 26.0938C273.429 26.0938 274.882 26.4531 276.195 27.1719C277.507 27.8594 278.554 28.9219 279.335 30.3594C280.117 31.7656 280.507 33.5469 280.507 35.7031V50H276.663L276.617 36.0781C276.617 34.0469 276.163 32.5 275.257 31.4375C274.382 30.375 273.023 29.8438 271.179 29.8438C269.929 29.8438 268.679 30.3125 267.429 31.25C266.21 32.1562 265.132 33.2188 264.195 34.4375V50H260.351V26.5625H264.195ZM297.579 26.0938C299.985 26.0938 301.985 26.5938 303.579 27.5938C305.173 28.5938 306.36 29.9531 307.142 31.6719C307.954 33.3906 308.36 35.3281 308.36 37.4844V39.7812H290.36C290.548 41.0938 291.001 42.2969 291.72 43.3906C292.438 44.4844 293.376 45.3594 294.532 46.0156C295.688 46.6406 297.017 46.9531 298.517 46.9531C300.204 46.9531 301.782 46.5312 303.251 45.6875C304.72 44.8125 305.954 43.8594 306.954 42.8281L306.907 47C306.47 47.5312 305.813 48.0938 304.938 48.6875C304.095 49.25 303.11 49.7188 301.985 50.0938C300.892 50.5 299.735 50.7031 298.517 50.7031C296.142 50.7031 294.032 50.1406 292.188 49.0156C290.345 47.8906 288.892 46.4062 287.829 44.5625C286.798 42.6875 286.282 40.6406 286.282 38.4219C286.282 36.2031 286.767 34.1562 287.735 32.2812C288.704 30.4062 290.032 28.9062 291.72 27.7812C293.438 26.6562 295.392 26.0938 297.579 26.0938ZM297.579 29.8438C295.642 29.8438 294.048 30.5 292.798 31.8125C291.548 33.0938 290.767 34.6562 290.454 36.5H304.563C304.407 34.9688 303.97 33.7188 303.251 32.75C302.563 31.7812 301.72 31.0625 300.72 30.5938C299.72 30.0938 298.673 29.8438 297.579 29.8438ZM318.682 26.5625V31.25C319.588 29.6875 320.682 28.4375 321.963 27.5C323.245 26.5625 324.557 26.0938 325.901 26.0938C326.807 26.0938 327.62 26.25 328.338 26.5625V31.0156C327.338 30.4219 326.338 30.125 325.338 30.125C323.745 30.125 322.448 30.6875 321.448 31.8125C320.479 32.9375 319.557 34.2812 318.682 35.8438V50H314.838V26.5625H318.682ZM340.395 26.0938C341.77 26.0938 343.051 26.2969 344.238 26.7031C345.426 27.0781 346.285 27.4688 346.817 27.875V32C346.16 31.5 345.27 31.0156 344.145 30.5469C343.02 30.0781 341.863 29.8438 340.676 29.8438C339.207 29.8438 338.098 30.1875 337.348 30.875C336.629 31.5625 336.27 32.2812 336.27 33.0312C336.27 33.625 336.473 34.2344 336.879 34.8594C337.317 35.4531 338.067 35.9375 339.129 36.3125L343.067 37.7188C344.598 38.25 345.738 39.0156 346.488 40.0156C347.238 41.0156 347.613 42.1875 347.613 43.5312C347.613 44.8438 347.238 46.0469 346.488 47.1406C345.77 48.2344 344.754 49.1094 343.442 49.7656C342.16 50.3906 340.676 50.7031 338.988 50.7031C338.082 50.7031 337.129 50.5781 336.129 50.3281C335.16 50.1094 334.285 49.8438 333.504 49.5312C332.723 49.1875 332.145 48.8906 331.77 48.6406V44.5156C332.207 44.8281 332.817 45.1875 333.598 45.5938C334.41 45.9688 335.27 46.2969 336.176 46.5781C337.082 46.8281 337.926 46.9531 338.707 46.9531C340.176 46.9531 341.332 46.625 342.176 45.9688C343.051 45.3125 343.488 44.5 343.488 43.5312C343.488 42.7812 343.192 42.1875 342.598 41.75C342.035 41.3125 341.207 40.8906 340.113 40.4844L336.645 39.2188C334.832 38.5312 333.629 37.6719 333.035 36.6406C332.442 35.5781 332.145 34.375 332.145 33.0312C332.145 31.0312 332.895 29.375 334.395 28.0625C335.895 26.75 337.895 26.0938 340.395 26.0938Z" fill="#DE515A"/>
<path d="M20.6022 27.1985V30.4664C21.3046 29.5274 22.2504 28.6488 23.435 27.8353C24.6524 27.0172 26.0431 26.6081 27.5976 26.6081C29.9435 26.6081 31.9101 27.3937 33.4974 28.9696C35.0847 30.5454 35.876 32.9022 35.876 36.0493V50.1204H30.0699L30.0231 36.8209C30.0231 35.2776 29.6438 34.1294 28.8806 33.3717C28.1502 32.614 27.1294 32.2375 25.8184 32.2375C24.7836 32.2375 23.8049 32.5722 22.8919 33.2369C22.0069 33.9017 21.2437 34.6919 20.6069 35.5984V50.1251H14.8008V27.1985H20.6022ZM53.0696 26.6081C54.7787 26.6081 56.1787 26.8824 57.2744 27.4262C58.3701 27.9701 59.241 28.5001 59.8825 29.016V34.3293C59.0911 33.7529 58.1921 33.2695 57.1854 32.8743C56.2115 32.4792 55.0081 32.284 53.5707 32.284C52.4141 32.284 51.3325 32.5722 50.3258 33.1486C49.3519 33.725 48.5746 34.4967 47.994 35.4636C47.4134 36.4305 47.1231 37.5368 47.1231 38.778C47.1231 40.656 47.7318 42.1993 48.9539 43.4079C50.1713 44.6166 51.7118 45.2255 53.5707 45.2255C55.0035 45.2255 56.2068 45.0442 57.1854 44.6816C58.1921 44.2865 59.0911 43.8031 59.8825 43.2266V48.4934C59.241 49.0373 58.3747 49.5673 57.2744 50.0832C56.1787 50.5667 54.774 50.8084 53.0696 50.8084C50.7238 50.8084 48.6355 50.2645 46.8047 49.1721C45.0066 48.0518 43.5738 46.5829 42.5063 44.77C41.4715 42.9245 40.9517 40.9256 40.9517 38.778C40.9517 37.1742 41.242 35.6449 41.8226 34.1945C42.4313 32.7395 43.2882 31.4565 44.3839 30.3362C45.4795 29.188 46.7625 28.2769 48.2234 27.6122C49.7171 26.9428 51.3325 26.6081 53.0696 26.6081ZM70.8579 17.4365V50.1204H65.0518V17.4365H70.8579ZM98.3386 27.1985V40.8605C98.3386 42.8873 97.8797 44.6444 96.9667 46.1273C96.0536 47.5777 94.8034 48.698 93.2161 49.4882C91.6616 50.2738 89.8916 50.669 87.911 50.669C85.8976 50.669 84.0996 50.2738 82.5169 49.4882C80.9624 48.7026 79.7263 47.5823 78.8132 46.1273C77.9282 44.6444 77.4881 42.8873 77.4881 40.8605V27.1985H83.341L83.3879 39.8193C83.3879 41.6043 83.7999 42.9384 84.624 43.8124C85.4481 44.6909 86.5438 45.1279 87.9157 45.1279C89.2595 45.1279 90.3411 44.6909 91.1606 43.8124C92.0127 42.9338 92.4389 41.6043 92.4389 39.8193V27.1985H98.3386ZM114.113 26.6081C115.364 26.6081 116.628 26.8963 117.911 27.4727C119.189 28.0491 120.257 28.8208 121.114 29.7877V27.1985H126.92V50.1251H121.114V46.2668C120.444 47.5079 119.47 48.5818 118.187 49.4882C116.909 50.3668 115.415 50.8038 113.706 50.8038C111.847 50.8038 110.124 50.3343 108.537 49.3953C106.982 48.4563 105.732 47.0942 104.786 45.3092C103.84 43.5241 103.367 41.3579 103.367 38.8198C103.367 36.2771 103.84 34.0969 104.786 32.284C105.76 30.4664 107.057 29.0765 108.673 28.1096C110.321 27.1055 112.133 26.6081 114.113 26.6081ZM115.303 32.2375C114.085 32.2375 113.032 32.5536 112.147 33.1904C111.295 33.7947 110.625 34.5989 110.133 35.5984C109.646 36.5978 109.403 37.6716 109.403 38.8198C109.403 40.5444 109.923 42.0134 110.958 43.222C112.025 44.4306 113.425 45.0396 115.162 45.0396C116.197 45.0396 117.157 44.7653 118.042 44.2214C118.955 43.6775 119.685 42.9198 120.238 41.9529C120.819 40.9535 121.109 39.7588 121.109 38.3689V35.101C120.285 34.2224 119.386 33.5251 118.412 33.0138C117.466 32.4932 116.431 32.2375 115.303 32.2375Z" fill="#274D9B"/>
<path d="M7.55176 34.1201V50.1529H1.46094V34.1201H7.55176Z" fill="#D04B54"/>
<path d="M4.10174 25.3393C6.368 25.3393 8.20348 23.5171 8.20348 21.2672C8.20348 19.0173 6.368 17.1904 4.10174 17.1904C1.83548 17.1904 0 19.0127 0 21.2626C0 23.5124 1.83548 25.3393 4.10174 25.3393Z" fill="#EBB129"/>
<path fill-rule="evenodd" clip-rule="evenodd" d="M1.46094 41.1769C4.89259 41.1769 7.68285 38.0717 7.68285 34.2413C7.68753 30.4109 4.90195 27.3057 1.46562 27.3057L1.46094 41.1769Z" fill="#646DC8"/>
</svg>
