<svg width="221" height="161" viewBox="0 0 221 161" fill="none" xmlns="http://www.w3.org/2000/svg">
<path fill-rule="evenodd" clip-rule="evenodd" d="M207.98 139.098L218.383 128.758C221.27 131.628 221.282 136.27 218.41 139.125C215.537 141.98 210.868 141.968 207.98 139.098Z" fill="#FFA589"/>
<path fill-rule="evenodd" clip-rule="evenodd" d="M26.1147 5.52583L13.3852 23.1027C13.3851 23.1026 13.385 23.1025 13.3849 23.1025C8.47624 19.5903 7.34662 12.8084 10.8618 7.95472C14.3769 3.101 21.2057 2.01342 26.1144 5.52556C26.1145 5.52565 26.1146 5.52574 26.1147 5.52583Z" fill="#FFA589"/>
<rect width="20.4407" height="3.74491" transform="matrix(-0.825449 0.564476 -0.569133 -0.822245 22.3359 46.6719)" fill="#9AB9FF"/>
<ellipse rx="6.5" ry="6.46078" transform="matrix(1 0 0 -1 201.48 6.9943)" fill="#FFD675"/>
<ellipse rx="4.2925" ry="4.26751" transform="matrix(-0.991275 0.131806 0.133383 0.991065 5.38252 140.681)" fill="#FFD675"/>
<mask id="mask0_2887_4723" style="mask-type:alpha" maskUnits="userSpaceOnUse" x="66" y="9" width="142" height="152">
<rect x="66.748" y="9.2002" width="141.234" height="150.842" fill="#C4C4C4"/>
</mask>
<g mask="url(#mask0_2887_4723)">
<path d="M168.831 28.0557H89.5117V246.937H168.831V28.0557Z" fill="#647279"/>
<path d="M172.301 24.397H86.0332V28.0625H172.301V24.397Z" fill="#41454C"/>
<path d="M204.615 24.397H172.307V28.0625H204.615V24.397Z" fill="#647279"/>
<path d="M200.691 28.0557H168.83V246.937H200.691V28.0557Z" fill="#41454C"/>
<path d="M161.189 160.043H97.1738V128.242H161.21L161.189 160.043ZM97.5097 159.695H160.853V128.59H97.5027L97.5097 159.695Z" fill="#41454C"/>
<path d="M136.046 137.57H117.537V143.83H136.046V137.57Z" fill="#41454C"/>
<path d="M139.46 143.537H120.602V137.869H139.46V143.537ZM120.951 143.19H139.11V138.216H120.965L120.951 143.19Z" fill="#41454C"/>
<path d="M161.189 80.7848H97.1738V48.9844H161.21L161.189 80.7848ZM97.5097 80.437H160.853V49.3321H97.5027L97.5097 80.437Z" fill="#41454C"/>
<path d="M136.046 58.3115H117.537V64.5714H136.046V58.3115Z" fill="#41454C"/>
<path d="M139.46 64.28H120.602V58.6113H139.46V64.28ZM120.951 63.9323H139.11V58.9591H120.965L120.951 63.9323Z" fill="#41454C"/>
<path d="M161.012 88.6729H104.877V120.132H161.012V88.6729Z" fill="#41454C"/>
<path d="M133.975 88.6729H70.2891V120.132H133.975V88.6729Z" fill="#647279"/>
<path d="M134.142 120.299H70.1133V88.499H134.142V120.299ZM70.4632 119.952H133.792V88.8468H70.4632V119.952Z" fill="#41454C"/>
<path d="M108.999 97.8257H90.4902V104.086H108.999V97.8257Z" fill="#41454C"/>
<path d="M112.423 103.794H93.5293V98.125H112.423V103.794ZM93.9072 103.446H112.101V98.4728H93.9072V103.446Z" fill="#41454C"/>
<path d="M161.012 93.3809H134.105V120.125H161.012V93.3809Z" fill="#41454C"/>
<path d="M106.445 91.6836H97.8105V95.3002H106.445V91.6836Z" fill="white"/>
<path d="M106.445 92.4907H97.8105V92.8385H106.445V92.4907Z" fill="#FFC727"/>
<path d="M106.445 94.1538H97.8105V94.5016H106.445V94.1538Z" fill="#FFC727"/>
<path d="M133.492 52.3789H124.857V55.9955H133.492V52.3789Z" fill="white"/>
<path d="M133.492 53.1855H124.857V53.5333H133.492V53.1855Z" fill="#FFC727"/>
<path d="M133.492 54.8408H124.857V55.1886H133.492V54.8408Z" fill="#FFC727"/>
<path d="M133.547 131.65H124.912V135.267H133.547V131.65Z" fill="white"/>
<path d="M133.547 132.451H124.912V132.798H133.547V132.451Z" fill="#FFC727"/>
<path d="M133.547 134.112H124.912V134.46H133.547V134.112Z" fill="#FFC727"/>
<path d="M122.562 33.7451H97.3281V42.822H122.562V33.7451Z" fill="white"/>
<path d="M122.562 35.853H97.3281V36.5486H122.562V35.853Z" fill="#FFC727"/>
<path d="M122.562 40.019H97.3281V40.7146H122.562V40.019Z" fill="#FFC727"/>
<path d="M101.54 37.6263L103.016 35.978C103.053 35.9352 103.099 35.9012 103.151 35.8783C103.204 35.8555 103.26 35.8444 103.317 35.8458V35.8458C103.358 35.8446 103.398 35.8529 103.436 35.8699C103.473 35.8869 103.505 35.9122 103.531 35.9438C103.557 35.9755 103.575 36.0126 103.584 36.0523C103.593 36.092 103.592 36.1332 103.583 36.1727L102.967 39.6502C102.95 39.7418 102.901 39.8248 102.83 39.8855C102.759 39.9462 102.669 39.9809 102.575 39.984C102.533 39.9852 102.492 39.9767 102.454 39.9594C102.416 39.942 102.382 39.9162 102.356 39.8839C102.33 39.8517 102.311 39.8138 102.302 39.7733C102.292 39.7328 102.293 39.6906 102.302 39.6502L102.743 37.1603L101.68 38.3427C101.643 38.3848 101.598 38.4188 101.547 38.4428C101.497 38.4667 101.442 38.48 101.386 38.4818V38.4818C101.335 38.4835 101.285 38.4714 101.24 38.4469C101.196 38.4224 101.159 38.3864 101.134 38.3427L100.49 37.1603L100.049 39.6502C100.032 39.7407 99.9847 39.8228 99.9149 39.8834C99.8451 39.9439 99.7568 39.9794 99.6643 39.984C99.6219 39.9863 99.5796 39.9787 99.5407 39.9618C99.5018 39.9449 99.4674 39.9192 99.4402 39.8868C99.413 39.8544 99.3938 39.8162 99.3842 39.7751C99.3745 39.734 99.3746 39.6912 99.3844 39.6502L100.007 36.1727C100.025 36.0818 100.073 35.9997 100.145 35.9402C100.216 35.8806 100.306 35.8473 100.399 35.8458C100.449 35.84 100.5 35.8504 100.544 35.8754C100.588 35.9004 100.623 35.9388 100.644 35.9849L101.54 37.6263Z" fill="#41454C"/>
<path d="M107.046 37.8144L106.717 39.6436C106.641 40.0371 106.433 40.3932 106.127 40.6536C105.82 40.9139 105.434 41.063 105.031 41.0763C104.818 41.0794 104.608 41.0266 104.422 40.9233C104.388 40.9017 104.358 40.8731 104.335 40.8395C104.313 40.8059 104.297 40.7679 104.29 40.728C104.283 40.6881 104.284 40.6471 104.293 40.6077C104.303 40.5683 104.321 40.5313 104.345 40.499C104.394 40.4258 104.466 40.3713 104.55 40.3447C104.634 40.3181 104.725 40.321 104.807 40.353C104.911 40.4067 105.026 40.4353 105.143 40.4364C105.32 40.43 105.492 40.3761 105.641 40.2807C105.79 40.1852 105.911 40.0516 105.99 39.8939C105.802 39.9843 105.596 40.0318 105.388 40.033C105.23 40.0378 105.074 40.0068 104.93 39.9422C104.786 39.8776 104.659 39.7813 104.559 39.6605C104.458 39.5398 104.387 39.3978 104.35 39.2454C104.313 39.093 104.311 38.9342 104.345 38.7811L104.597 37.3554C104.616 37.2687 104.663 37.1908 104.732 37.1341C104.8 37.0774 104.886 37.0451 104.975 37.0424C105.015 37.0404 105.055 37.0475 105.091 37.0633C105.128 37.0791 105.16 37.1031 105.186 37.1334C105.212 37.1637 105.23 37.1995 105.24 37.238C105.249 37.2765 105.25 37.3167 105.241 37.3554L104.989 38.7811C104.971 38.8566 104.97 38.9353 104.987 39.011C105.005 39.0867 105.039 39.1574 105.089 39.2174C105.139 39.2774 105.201 39.3252 105.273 39.3569C105.344 39.3886 105.422 39.4034 105.5 39.4001C105.675 39.3942 105.842 39.3298 105.975 39.2175C106.109 39.1052 106.2 38.9514 106.235 38.7811L106.48 37.3554C106.494 37.2941 106.523 37.2371 106.563 37.1884C106.599 37.1448 106.644 37.1091 106.695 37.0839C106.745 37.0588 106.801 37.0446 106.857 37.0424C106.889 37.0397 106.92 37.0432 106.95 37.0528C106.98 37.0623 107.008 37.0777 107.032 37.098C107.071 37.1276 107.1 37.1676 107.116 37.2133C107.132 37.259 107.135 37.3083 107.123 37.3554L107.046 37.8144Z" fill="#41454C"/>
<path d="M110.868 36.8544V36.9379H111.043C111.084 36.9359 111.125 36.9433 111.162 36.9594C111.2 36.9755 111.233 37 111.259 37.031C111.286 37.0619 111.304 37.0984 111.314 37.1378C111.324 37.1771 111.325 37.2182 111.316 37.2578C111.299 37.3494 111.25 37.4324 111.179 37.4931C111.108 37.5538 111.018 37.5886 110.924 37.5917H110.749L110.379 39.6782C110.361 39.7691 110.312 39.8512 110.241 39.9107C110.17 39.9702 110.08 40.0035 109.987 40.0051C109.946 40.0062 109.905 39.998 109.868 39.981C109.831 39.964 109.798 39.9387 109.772 39.907C109.747 39.8754 109.729 39.8383 109.72 39.7986C109.711 39.7589 109.711 39.7177 109.721 39.6782L110.092 37.5917H109.938C109.895 37.5939 109.853 37.5863 109.814 37.5694C109.775 37.5525 109.741 37.5269 109.714 37.4945C109.686 37.462 109.667 37.4238 109.658 37.3827C109.648 37.3416 109.648 37.2989 109.658 37.2578C109.679 37.1693 109.729 37.0902 109.8 37.0324C109.87 36.9747 109.958 36.9415 110.05 36.9379H110.204V36.8544C110.228 36.6465 110.3 36.4468 110.414 36.2702C110.533 36.0975 110.709 35.9701 110.91 35.9086C111.028 35.8703 111.151 35.8515 111.274 35.8529C111.317 35.8507 111.359 35.8583 111.398 35.8752C111.437 35.8921 111.471 35.9177 111.498 35.9501C111.525 35.9825 111.545 36.0208 111.554 36.0619C111.564 36.103 111.564 36.1457 111.554 36.1868C111.534 36.2765 111.485 36.3573 111.414 36.4164C111.343 36.4755 111.255 36.5097 111.162 36.5136H111.008H110.966C110.905 36.6169 110.871 36.7343 110.868 36.8544V36.8544Z" fill="#41454C"/>
<path d="M111.972 37.3692C111.989 37.2794 112.037 37.1982 112.107 37.1388C112.177 37.0794 112.265 37.0454 112.357 37.0423C112.398 37.04 112.44 37.0474 112.478 37.0639C112.516 37.0805 112.55 37.1056 112.576 37.1374C112.603 37.1692 112.621 37.2067 112.631 37.247C112.64 37.2872 112.64 37.3291 112.63 37.3692L112.196 39.6921C112.177 39.7814 112.13 39.8619 112.06 39.9211C111.99 39.9803 111.903 40.0147 111.811 40.019C111.77 40.021 111.728 40.0134 111.69 39.9969C111.651 39.9804 111.617 39.9554 111.59 39.9239C111.563 39.8923 111.544 39.855 111.534 39.8148C111.524 39.7747 111.523 39.7327 111.531 39.6921L111.972 37.3692ZM112.406 36.6737C112.364 36.6751 112.323 36.6668 112.285 36.6495C112.247 36.6321 112.214 36.6061 112.188 36.5736C112.162 36.5411 112.144 36.503 112.136 36.4624C112.128 36.4218 112.129 36.3798 112.14 36.3398V36.2146C112.16 36.1248 112.209 36.0441 112.28 35.985C112.351 35.9259 112.439 35.8917 112.532 35.8878C112.573 35.8869 112.614 35.8952 112.651 35.9122C112.688 35.9292 112.721 35.9543 112.748 35.9857C112.774 36.0171 112.793 36.0541 112.803 36.0937C112.812 36.1333 112.813 36.1747 112.805 36.2146V36.3398C112.781 36.4269 112.729 36.5037 112.657 36.5589C112.585 36.6141 112.497 36.6446 112.406 36.6459V36.6737Z" fill="#41454C"/>
<path d="M114.141 35.8594C114.182 35.8568 114.224 35.864 114.262 35.8805C114.3 35.8971 114.333 35.9224 114.359 35.9544C114.385 35.9865 114.403 36.0242 114.412 36.0646C114.42 36.1049 114.418 36.1467 114.407 36.1863L113.791 39.6638C113.772 39.7544 113.723 39.836 113.652 39.8963C113.581 39.9566 113.492 39.9922 113.399 39.9977C113.358 39.9988 113.316 39.9903 113.278 39.973C113.24 39.9556 113.207 39.9298 113.18 39.8976C113.154 39.8653 113.135 39.8274 113.126 39.7869C113.117 39.7464 113.117 39.7043 113.127 39.6638L113.749 36.1863C113.767 36.0954 113.816 36.0133 113.887 35.9538C113.958 35.8943 114.048 35.8609 114.141 35.8594Z" fill="#41454C"/>
<path d="M114.753 38.5236C114.832 38.1205 115.044 37.7552 115.356 37.4865C115.668 37.2178 116.062 37.0613 116.475 37.0422C116.652 37.0327 116.83 37.0642 116.993 37.134C117.156 37.2039 117.301 37.3103 117.416 37.4449C117.531 37.5795 117.614 37.7387 117.657 37.9101C117.7 38.0816 117.702 38.2606 117.664 38.4332C117.664 38.4332 117.664 38.4332 117.664 38.4332C117.667 38.4516 117.667 38.4704 117.664 38.4888C117.638 38.5596 117.59 38.6204 117.528 38.6628C117.465 38.7052 117.39 38.727 117.314 38.7253H115.369C115.366 38.8655 115.41 39.0029 115.495 39.1148C115.561 39.1929 115.642 39.2572 115.734 39.3038C115.825 39.3504 115.925 39.3783 116.027 39.386C116.281 39.4029 116.532 39.3206 116.727 39.1565C116.754 39.1265 116.788 39.1026 116.825 39.0863C116.862 39.0699 116.903 39.0615 116.944 39.0615C116.984 39.0615 117.025 39.0699 117.062 39.0863C117.099 39.1026 117.133 39.1265 117.161 39.1565C117.212 39.2085 117.241 39.2784 117.241 39.3512C117.241 39.4241 117.212 39.494 117.161 39.546C117 39.7051 116.807 39.8283 116.595 39.9075C116.382 39.9867 116.155 40.0199 115.929 40.005C115.746 40.0074 115.564 39.9678 115.398 39.8893C115.233 39.8108 115.087 39.6955 114.974 39.5523C114.86 39.4091 114.781 39.2419 114.743 39.0635C114.705 38.8851 114.708 38.7004 114.753 38.5236V38.5236ZM115.453 38.2384H117.147C117.116 38.0598 117.023 37.8977 116.883 37.7816C116.743 37.6655 116.566 37.603 116.384 37.6055C116.183 37.6124 115.989 37.6755 115.823 37.7875C115.657 37.8995 115.527 38.0558 115.446 38.2384H115.453Z" fill="#41454C"/>
<path d="M118.111 39.1638C118.139 39.13 118.173 39.102 118.212 39.0816C118.251 39.0612 118.293 39.0486 118.337 39.0447C118.38 39.0408 118.424 39.0457 118.466 39.059C118.508 39.0722 118.547 39.0937 118.58 39.122C118.736 39.2774 118.947 39.3671 119.168 39.3724C119.32 39.3731 119.469 39.3347 119.602 39.2611C119.7 39.1916 119.742 39.1359 119.749 39.0942C119.752 39.0712 119.752 39.0477 119.749 39.0247C119.731 38.9965 119.71 38.9707 119.686 38.9482C119.542 38.8683 119.386 38.8142 119.224 38.7882C119.055 38.7582 118.89 38.7068 118.734 38.6352C118.587 38.5549 118.47 38.4308 118.398 38.2805C118.351 38.1636 118.336 38.0362 118.356 37.9119C118.425 37.6472 118.589 37.417 118.818 37.265C119.052 37.1234 119.32 37.0466 119.595 37.0425C119.904 37.0502 120.199 37.1688 120.427 37.3763C120.458 37.4031 120.483 37.4362 120.5 37.4734C120.518 37.5106 120.526 37.551 120.526 37.5919C120.526 37.6328 120.518 37.6733 120.5 37.7105C120.483 37.7477 120.458 37.7808 120.427 37.8075C120.379 37.8774 120.305 37.9258 120.222 37.9427C120.138 37.9595 120.051 37.9435 119.979 37.898C119.839 37.7674 119.66 37.6867 119.469 37.6684C119.333 37.6659 119.2 37.7074 119.091 37.7867C119.037 37.8131 118.995 37.8575 118.972 37.9119C118.968 37.9279 118.968 37.9445 118.972 37.9605L119.035 38.0231C119.156 38.0971 119.292 38.1423 119.434 38.1553V38.1553C119.617 38.1836 119.795 38.2424 119.958 38.3292C120.116 38.4018 120.242 38.5275 120.315 38.6839C120.372 38.8104 120.387 38.9518 120.357 39.0873C120.292 39.374 120.116 39.6238 119.867 39.7828C119.621 39.9339 119.338 40.0157 119.049 40.0192C118.681 40.0122 118.331 39.8653 118.069 39.6089C118.04 39.578 118.018 39.5414 118.004 39.5014C117.991 39.4614 117.986 39.419 117.99 39.377C117.994 39.3349 118.006 39.2942 118.027 39.2574C118.048 39.2207 118.077 39.1887 118.111 39.1638Z" fill="#41454C"/>
</g>
<mask id="mask1_2887_4723" style="mask-type:alpha" maskUnits="userSpaceOnUse" x="0" y="9" width="120" height="152">
<rect x="0.957031" y="9.2002" width="118.905" height="150.842" fill="#C4C4C4"/>
</mask>
<g mask="url(#mask1_2887_4723)">
<path d="M82.3428 253.74H47.2004C47.2004 253.74 54.254 172.152 53.9811 170.726C53.6312 168.897 51.5529 160.641 48.7888 149.86C47.9211 146.486 46.9834 142.863 45.9898 139.107C43.3656 128.959 40.4756 117.865 37.9564 108.217C34.1706 93.757 31.2246 86.3008 31.2246 86.3008H61.0068C61.0068 86.3008 85.4988 155.981 86.4714 170.385C87.3182 182.933 82.3428 253.74 82.3428 253.74Z" fill="#68768D"/>
<path d="M60.5937 165.747C59.4391 160.697 57.7177 155.745 56.2132 150.792C53.1575 140.721 50.0902 130.654 47.0112 120.592C45.4717 115.563 38.3341 96.7414 37.6343 94.2653C37.3474 93.2428 37.1934 93.8062 37.5643 95.093C38.3061 97.7013 50.5101 135.017 53.603 145.235C55.1472 150.363 56.6983 155.487 58.2565 160.607C59.0334 163.029 59.6643 165.496 60.1459 167.993C60.5595 170.625 60.6628 173.295 60.4538 175.95C60.1179 181.299 59.4951 186.634 59.0052 191.948L57.5147 207.945C56.5304 218.578 55.5507 229.213 54.5757 239.85C54.4568 241.2 54.3378 242.549 54.2328 243.898C54.1978 244.35 54.8836 244.316 54.9326 243.898C56.0872 233.389 56.9759 222.837 57.9626 212.307C58.9493 201.776 59.9359 191.343 60.9156 180.868C61.1675 178.232 61.4474 175.596 61.4474 172.953C61.4328 170.527 61.1464 168.11 60.5937 165.747Z" fill="#050A3A"/>
<path d="M57.6562 86.2939C55.5569 102.201 51.6592 128.228 48.7901 149.86C42.0653 123.652 31.2539 86.3009 31.2539 86.3009L57.6562 86.2939Z" fill="#050A3A"/>
<path d="M60.8328 86.2939C60.2204 93.6042 58.9011 100.839 56.8931 107.898C56.6341 108.83 56.3472 109.741 56.0393 110.617C56.0393 110.617 53.4082 111.841 48.2159 114.999C48.2159 114.999 47.88 126.399 47.5161 139.107C47.1383 153.317 46.7464 169.168 46.8164 172.493C47.1523 185.103 45.2839 254.241 45.2839 254.241L10.1484 254.387C10.1484 254.387 16.4814 177.181 16.4464 172.556C16.3764 165.148 18.1398 132.416 19.4974 108.565C20.3301 93.8615 21.0159 86.3079 21.0159 86.3079L60.8328 86.2939Z" fill="#68768D"/>
<path d="M23.9615 91.3645C23.3177 110.84 22.6389 126.559 21.7642 146.034C20.8895 165.51 19.7069 185.117 18.0694 204.613C17.1527 215.506 16.292 230.822 15.1094 241.693C15.1094 241.763 15.2143 241.79 15.2213 241.693C17.7755 222.357 19.196 198.458 20.4556 179.01C21.7152 159.563 22.5549 140.06 23.2547 120.584C23.6256 109.567 23.9125 102.326 24.2414 91.3089C24.2134 91.1976 23.9685 91.2115 23.9615 91.3645Z" fill="#050A3A"/>
<path d="M25.3136 104.002C26.1813 103.787 27.1049 103.717 27.9866 103.578C28.6863 103.467 29.386 103.342 30.0858 103.182C31.4379 102.945 32.7196 102.411 33.8363 101.617C35.5856 100.226 37.6008 93.3542 37.8457 92.916C38.2655 92.1579 38.3915 92.8256 38.3915 92.916C38.3915 93.7159 36.5512 99.7528 35.8375 100.88C34.536 102.966 32.1989 103.773 29.8688 104.072C29.2041 104.155 28.5324 104.197 27.8606 104.239C27.0132 104.312 26.1611 104.312 25.3136 104.239C25.2157 104.239 25.1807 104.058 25.3136 104.002Z" fill="#050A3A"/>
<path d="M55.9268 110.785C52.5004 112.019 49.1897 113.551 46.0327 115.361C45.9068 115.431 45.9907 115.625 46.1237 115.563C49.4544 114.172 52.855 112.781 56.1087 111.174C56.1555 111.147 56.1905 111.104 56.2067 111.052C56.223 111.001 56.2193 110.946 56.1966 110.897C56.1738 110.848 56.1335 110.809 56.0836 110.789C56.0337 110.768 55.9777 110.766 55.9268 110.785V110.785Z" fill="#050A3A"/>
<path d="M56.9279 88.0815C56.9279 87.9702 56.7179 87.9424 56.7179 88.0815C56.7195 91.7796 56.5326 95.4753 56.1581 99.1546C56.0042 100.859 54.6256 110.283 51.6446 109.588C51.1478 109.47 50.8958 108.983 50.8189 108.231C50.8282 107.257 50.9599 106.287 51.2107 105.345C51.5396 103.37 51.8055 101.387 51.9805 99.3911C52.3216 95.687 52.2794 91.9579 51.8545 88.2623C51.8488 88.2418 51.8365 88.2236 51.8194 88.2107C51.8024 88.1978 51.7815 88.1907 51.76 88.1907C51.7386 88.1907 51.7177 88.1978 51.7007 88.2107C51.6836 88.2236 51.6713 88.2418 51.6656 88.2623C51.7547 93.4133 51.4506 98.5635 50.7559 103.669C50.385 106.124 49.1394 109.817 51.7216 110.193C54.3037 110.569 56.0531 104.392 56.375 102.695C57.1967 97.8683 57.3825 92.9558 56.9279 88.0815V88.0815Z" fill="#050A3A"/>
<path d="M51.7278 109.845C51.4496 110.48 51.2158 111.133 51.0281 111.799C50.8386 112.314 50.7438 112.858 50.7482 113.406C50.7529 113.428 50.7637 113.448 50.7796 113.464C50.7954 113.48 50.8155 113.492 50.8376 113.497C50.8596 113.502 50.8826 113.501 50.904 113.493C50.9254 113.486 50.9441 113.472 50.9581 113.455C51.2689 112.971 51.5047 112.443 51.6578 111.89C51.8817 111.285 52.1196 110.68 52.3575 110.075C52.3882 109.992 52.3844 109.9 52.347 109.82C52.3096 109.739 52.2416 109.677 52.1581 109.647C52.0746 109.616 51.9824 109.62 51.9017 109.657C51.821 109.695 51.7584 109.762 51.7278 109.845V109.845Z" fill="#050A3A"/>
<path d="M46.2424 43.4904C47.0261 52.7551 53.1351 73.5659 57.1588 77.3149C60.2308 80.1875 75.8636 82.4063 82.3505 82.4967C85.1496 82.4967 85.6604 65.9914 83.5681 65.7062C77.1092 64.8228 66.6687 62.8753 64.8493 62.2284C63.5687 61.7694 60.2308 55.0504 52.8622 42.4193C48.7895 35.4151 45.8015 38.2947 46.2424 43.4904Z" fill="#B63C44"/>
<path d="M92.5865 81.5647C91.5299 81.8151 91.6558 82.3715 93.4192 83.1783C95.1827 83.9852 102.838 85.6893 102.012 88.2906C101.187 90.892 90.4172 88.3393 87.5902 86.7743C84.7631 85.2093 80.7324 81.6899 80.7324 81.6899C82.9297 81.7455 88.2759 81.4603 92.5865 81.5647Z" fill="#B63C44"/>
<path d="M83.1196 65.7476C89.2986 66.1997 97.024 66.3875 102.769 70.3451C103.424 70.7649 103.917 71.3923 104.169 72.1257C106.779 73.8507 106.744 75.6035 106.744 75.6035C108.675 77.9475 108.388 79.7281 108.388 79.7281C108.388 79.7281 111.432 81.8147 110.488 83.8248C109.438 86.1062 105.372 82.7676 102.006 82.2877C94.3089 81.1887 83.0286 81.773 80.7754 81.6756L83.1196 65.7476Z" fill="#B63C44"/>
<path d="M94.7014 75.4854C96.9597 75.7792 99.1948 76.2278 101.391 76.8277C103.756 77.6296 106.057 78.606 108.276 79.7489C108.285 79.746 108.293 79.7411 108.3 79.7347C108.307 79.7283 108.312 79.7205 108.315 79.7119C108.318 79.7032 108.32 79.694 108.319 79.6847C108.318 79.6755 108.316 79.6665 108.311 79.6584C104.251 77.0243 99.5406 75.5494 94.6945 75.395C94.6035 75.402 94.5825 75.4854 94.7014 75.4854Z" fill="#050A3A"/>
<path d="M94.7308 68.2445C98.023 69.1168 101.18 70.4319 104.114 72.1532C104.114 72.1532 104.156 72.1532 104.114 72.1185C100.357 69.559 98.7053 69.0513 94.7238 68.1193C94.6119 68.0845 94.5909 68.2097 94.7308 68.2445Z" fill="#050A3A"/>
<path d="M79.7543 84.1801L81.4828 64.357C81.4828 64.357 66.9835 61.9574 64.9402 61.4357C64.0725 61.2201 56.1021 46.9405 52.3444 40.8405C49.8462 36.8272 45.1227 35.7422 45.8435 44.826C46.2634 50.14 51.9595 74.9293 56.34 78.1497C59.7619 80.7232 79.7543 84.1801 79.7543 84.1801Z" fill="#2D53A4"/>
<path d="M76.1221 82.5523C76.0171 81.1195 76.5909 75.2073 76.7519 73.7397C76.9128 72.2721 77.7526 66.3878 77.9205 64.8785C77.9205 64.795 78.0465 64.7811 78.0395 64.8785C77.8995 66.3808 77.5217 72.3278 77.3747 73.8023C77.2277 75.2769 76.5909 81.1682 76.1991 82.5732C76.1942 82.5805 76.1871 82.5861 76.1788 82.5892C76.1706 82.5923 76.1615 82.5928 76.153 82.5905C76.1445 82.5881 76.1369 82.5832 76.1313 82.5764C76.1258 82.5695 76.1226 82.5611 76.1221 82.5523V82.5523Z" fill="#050A3A"/>
<path opacity="0.1" d="M71.2246 82.5451C65.3325 81.3071 58.2089 79.596 56.2635 78.1562C51.8969 74.9359 46.2008 50.1466 45.767 44.8326C45.3051 38.9969 47.0895 37.3554 49.0839 38.0023L71.2246 82.5451Z" fill="#929397"/>
<path d="M20.3927 89.953C20.4907 90.0642 62.3789 89.953 62.7428 89.4939C62.8293 88.3227 62.8434 87.1473 62.7847 85.9744C62.7847 85.9744 65.5208 82.5871 64.0163 77.2036C60.8324 65.8244 53.1139 41.9185 50.8187 39.5606C48.8033 37.4739 43.4011 36.528 40.0702 38.4755C33.0725 42.5653 22.1211 72.0704 19.385 79.0537C18.0345 82.5315 20.6026 84.6877 21.0085 86.3083C20.7301 87.5098 20.5245 88.7269 20.3927 89.953Z" fill="#2D53A4"/>
<path d="M61.9035 86.503C60.5949 86.4473 59.2864 86.503 57.9778 86.503C56.6692 86.503 55.4726 86.4404 54.227 86.4473C51.6659 86.4473 49.1047 86.496 46.5296 86.503C41.4073 86.503 36.278 86.503 31.1346 86.503H26.8381C25.3475 86.503 23.857 86.5795 22.3665 86.5795C22.3517 86.5795 22.3374 86.5853 22.3269 86.5958C22.3164 86.6062 22.3105 86.6204 22.3105 86.6351C22.3105 86.6499 22.3164 86.664 22.3269 86.6745C22.3374 86.6849 22.3517 86.6908 22.3665 86.6908C23.6751 86.7464 24.9837 86.8855 26.2922 86.9203L30.043 87.0107C32.6042 87.0733 35.1653 87.1011 37.7405 87.115C42.8628 87.115 47.9921 87.115 53.1354 87.0246C54.5699 87.0246 55.9975 86.9203 57.432 86.8368C58.8665 86.7534 60.42 86.7951 61.9035 86.6629C62.0015 86.656 62.0155 86.503 61.9035 86.503Z" fill="#050A3A"/>
<path d="M48.832 47.2457C46.2848 47.3501 42.3591 42.4326 41.2955 39.1148C41.2255 38.8922 41.9952 36.7847 42.751 34.1903C43.2128 32.6114 43.6957 30.8447 44.0246 29.1963L53.9123 33.7173C52.9157 35.6591 52.1614 37.7146 51.666 39.8382C51.6251 40.0678 51.604 40.3005 51.6031 40.5337C51.6064 40.5731 51.6064 40.6126 51.6031 40.6519C51.5751 41.9665 51.3092 47.1484 48.832 47.2457Z" fill="#B63C44"/>
<path d="M51.6309 40.5335C51.6309 40.5335 51.6309 40.596 51.6309 40.6378C51.2683 40.6226 50.9078 40.5761 50.5533 40.4987C44.5707 39.1981 44.5917 31.6171 44.7247 29.5098L47.1947 30.6365L53.94 33.7245C52.9458 35.6665 52.1939 37.7218 51.7009 39.8449C51.6574 40.072 51.634 40.3023 51.6309 40.5335V40.5335Z" fill="#050A3A"/>
<path d="M45.1794 18.6729C43.5069 22.1994 43.9058 33.1403 46.1941 35.8947C49.511 39.8941 55.7319 41.1322 59.3427 36.9867C62.8416 32.9734 62.0788 18.7216 59.4477 16.1203C55.571 12.3296 47.6566 13.4703 45.1794 18.6729Z" fill="#B63C44"/>
<path d="M54.031 26.3725C52.8414 26.3169 52.8205 28.7025 53.926 28.7512C55.0316 28.7998 55.0386 26.4143 54.031 26.3725Z" fill="#050A3A"/>
<path d="M59.6028 26.2546C60.7923 26.1711 60.8693 28.5497 59.7637 28.6262C58.6582 28.7027 58.6302 26.3241 59.6028 26.2546Z" fill="#050A3A"/>
<path d="M53.0708 24.8358C53.3887 24.7563 53.7018 24.6588 54.0085 24.5437C54.3537 24.4895 54.6711 24.3232 54.9111 24.0707C54.9718 23.9767 54.9987 23.8649 54.9872 23.7538C54.9758 23.6426 54.9268 23.5386 54.8481 23.4587C54.674 23.3186 54.4646 23.2283 54.2427 23.1977C54.0208 23.167 53.7946 23.1972 53.5886 23.2848C53.1464 23.3856 52.7575 23.6458 52.4971 24.0151C52.436 24.1046 52.4037 24.2105 52.4043 24.3187C52.4049 24.4268 52.4385 24.5323 52.5006 24.6211C52.5628 24.71 52.6505 24.778 52.7522 24.8163C52.854 24.8547 52.9651 24.8614 53.0708 24.8358V24.8358Z" fill="#050A3A"/>
<path d="M60.5322 24.2585C60.2107 24.1922 59.893 24.1086 59.5806 24.0081C59.2349 23.9615 58.9135 23.8054 58.664 23.563C58.5981 23.4744 58.5625 23.3671 58.5625 23.257C58.5625 23.1468 58.5981 23.0395 58.664 22.9509C58.8341 22.8067 59.0398 22.71 59.2599 22.6709C59.48 22.6318 59.7066 22.6516 59.9165 22.7284C60.3639 22.8133 60.7632 23.0614 61.036 23.4239C61.0942 23.5085 61.1268 23.6079 61.1298 23.7103C61.1329 23.8127 61.1063 23.9138 61.0533 24.0017C61.0003 24.0896 60.923 24.1605 60.8306 24.206C60.7383 24.2515 60.6347 24.2697 60.5322 24.2585V24.2585Z" fill="#050A3A"/>
<path d="M54.8739 35.7002C54.3652 35.1945 53.8565 34.4866 53.0628 34.4259C52.26 34.4293 51.4679 34.6089 50.743 34.9518C50.743 34.9518 50.6006 34.9518 50.743 34.8304C51.0546 34.4118 51.4748 34.0853 51.9587 33.8858C52.4426 33.6863 52.972 33.6213 53.4902 33.6977C53.9266 33.8145 54.3183 34.0576 54.6154 34.3961C54.9126 34.7346 55.1017 35.1534 55.1588 35.599C55.2199 35.7204 55.0571 35.7608 54.8739 35.7002Z" fill="#050A3A"/>
<path d="M47.7601 24.7452C48.7607 22.7559 48.033 19.1043 49.2086 18.3114C51.7558 16.5934 55.8564 21.0936 59.0404 21.5526C62.1193 21.9908 63.4209 20.1615 63.239 17.595C63.057 15.0284 61.1397 13.0669 57.7388 12.0862C54.7586 11.331 51.6062 11.6387 48.8307 12.9557C48.8307 12.9557 49.7754 11.815 49.5305 11.3907C49.2856 10.9664 47.6201 11.9541 47.0883 12.3992C46.6882 12.8027 46.3636 13.2737 46.1296 13.7903C45.682 13.6116 45.2105 13.4991 44.7301 13.4565C44.0366 13.414 43.3502 13.6159 42.7917 14.0268C42.7077 14.2007 43.8134 14.4928 44.5971 14.6389C44.5971 14.6389 42.8617 16.3778 42.6658 18.0401C42.4698 19.7025 43.9883 27.9308 44.6041 28.0977C45.3739 28.3064 47.3612 25.552 47.7601 24.7452Z" fill="#050A3A"/>
<path d="M44.9125 14.4644C44.9125 14.4644 44.9755 14.4644 44.9125 14.513C44.0686 15.0123 43.3806 15.7346 42.9253 16.5995C42.4553 17.6732 42.2814 18.8519 42.4215 20.0145C42.6105 22.254 43.4081 24.3752 44.0659 26.5104C44.0659 26.573 43.9819 26.6078 43.9539 26.5104C42.9989 24.2819 42.3993 21.9189 42.1766 19.5067C42.1207 17.5454 42.8973 15.3268 44.9125 14.4644Z" fill="#050A3A"/>
<path d="M49.2017 17.4908C50.1618 17.5034 51.1111 17.6945 52.0006 18.0542C52.807 18.4603 53.5592 18.965 54.2397 19.5565C55.8126 20.8285 57.7134 21.6358 59.7255 21.8864V21.9281C57.8629 21.8296 56.0712 21.1859 54.5756 20.0781C53.8299 19.4897 53.0495 18.9463 52.2385 18.4506C51.268 18.0293 50.2354 17.7663 49.1807 17.6717C49.1566 17.6689 49.1345 17.6567 49.1194 17.6378C49.1044 17.6189 49.0974 17.5948 49.1002 17.5708C49.103 17.5468 49.1153 17.5249 49.1343 17.5099C49.1533 17.4949 49.1776 17.4881 49.2017 17.4908V17.4908Z" fill="#050A3A"/>
<path d="M50.8184 12.3368C52.156 11.8902 53.5508 11.6349 54.9607 11.5787C56.3102 11.4802 57.6666 11.6143 58.9701 11.9751C61.2023 12.6706 63.1055 14.3885 63.3224 16.7949C63.4504 18.0313 63.1112 19.2708 62.3708 20.2725C62.3218 20.342 62.2238 20.2724 62.2658 20.1959C62.8861 19.2657 63.1872 18.161 63.1242 17.0467C63.0611 15.9324 62.6373 14.8682 61.916 14.0129C60.2646 12.142 57.6477 11.6621 55.2616 11.7178C53.7642 11.7742 52.2771 11.9887 50.8254 12.3576L50.8184 12.3368Z" fill="#050A3A"/>
<path d="M52.9735 30.6638C52.3952 30.5823 51.8515 30.3411 51.4043 29.9677C50.9571 29.5942 50.6243 29.1035 50.4438 28.5514C50.2633 27.9992 50.2423 27.4078 50.3832 26.8444C50.5241 26.281 50.8212 25.7682 51.2408 25.3643C51.6604 24.9604 52.1856 24.6817 52.7567 24.5598C53.3277 24.438 53.9217 24.4778 54.4712 24.6749C55.0206 24.872 55.5033 25.2184 55.8644 25.6746C56.2256 26.1309 56.4507 26.6788 56.5141 27.2559C56.6025 28.0737 56.3612 28.8929 55.8432 29.5343C55.3252 30.1756 54.5726 30.5868 53.7502 30.6778C53.4919 30.7081 53.2306 30.7034 52.9735 30.6638V30.6638ZM53.7852 24.9329C53.2281 24.8565 52.6609 24.9548 52.1628 25.2141C51.6646 25.4735 51.2603 25.8809 51.0063 26.3796C50.7522 26.8783 50.6611 27.4433 50.7457 27.9959C50.8302 28.5485 51.0862 29.0611 51.4778 29.4622C51.8695 29.8633 52.3774 30.1329 52.9306 30.2333C53.4838 30.3337 54.0547 30.26 54.5638 30.0225C55.0728 29.7849 55.4946 29.3953 55.7702 28.9081C56.0458 28.4209 56.1615 27.8603 56.1013 27.3046C56.0391 26.7082 55.7768 26.1501 55.3567 25.7199C54.9365 25.2897 54.383 25.0125 53.7852 24.9329V24.9329Z" fill="#2D53A4"/>
<path d="M60.14 30.7958C58.9574 30.6288 58.0408 29.2726 58.0898 27.6521C58.0947 26.8812 58.3391 26.1306 58.7895 25.503C58.9692 25.2218 59.2189 24.9914 59.5145 24.8344C59.8101 24.6773 60.1415 24.5988 60.4766 24.6065C60.8116 24.6142 61.1391 24.7078 61.427 24.8783C61.715 25.0488 61.9538 25.2903 62.1202 25.5795C62.5496 26.2255 62.7627 26.9898 62.7289 27.7634C62.687 29.4743 61.6164 30.8375 60.3359 30.8097L60.14 30.7958ZM60.6368 25.037H60.4758C60.2125 25.0391 59.9535 25.1032 59.7199 25.2241C59.4864 25.345 59.285 25.5193 59.1324 25.7325C58.7278 26.2892 58.5099 26.9584 58.5096 27.6451C58.4746 29.1266 59.2933 30.3506 60.3499 30.3715C61.4065 30.3924 62.2811 29.21 62.3161 27.7286C62.3493 27.0444 62.1631 26.3674 61.7843 25.7951C61.6568 25.5961 61.4889 25.4259 61.2913 25.2953C61.0936 25.1648 60.8707 25.0768 60.6368 25.037V25.037Z" fill="#2D53A4"/>
<path d="M56.4046 27.6105L56.1387 27.2906C56.6215 26.9011 57.727 26.4003 58.4757 27.228L58.1609 27.4992C57.4961 26.7968 56.4466 27.5757 56.4046 27.6105Z" fill="#2D53A4"/>
<path d="M42.4771 28.0906L42.1133 27.8958C42.2042 27.722 43.0509 26.2336 43.9885 26.1014C44.9262 25.9693 50.44 26.63 50.6779 26.6578L50.6289 27.0751C49.0266 26.8874 44.7163 26.4214 44.0445 26.5118C43.3728 26.6022 42.7011 27.6802 42.4771 28.0906Z" fill="#2D53A4"/>
<path d="M46.1943 27.6939C46.1943 27.6939 44.2001 23.9313 42.5207 24.5989C40.8414 25.2666 42.024 30.4968 43.7943 31.4148C44.0122 31.548 44.2551 31.6357 44.5082 31.6728C44.7613 31.7098 45.0193 31.6954 45.2667 31.6304C45.514 31.5653 45.7454 31.4511 45.947 31.2945C46.1485 31.1379 46.316 30.9422 46.4392 30.7193L46.1943 27.6939Z" fill="#B63C44"/>
<path d="M42.8976 26.1016C42.8976 26.1016 42.8556 26.1016 42.8976 26.1502C44.1291 26.8457 44.6609 28.1185 44.9967 29.4191C44.9376 29.2806 44.8491 29.1565 44.7372 29.0552C44.6253 28.9539 44.4927 28.8778 44.3485 28.8322C44.2043 28.7867 44.0518 28.7726 43.9016 28.7911C43.7514 28.8095 43.607 28.8601 43.4783 28.9392C43.4708 28.9425 43.4645 28.9478 43.46 28.9546C43.4555 28.9614 43.4531 28.9693 43.4531 28.9775C43.4531 28.9856 43.4555 28.9935 43.46 29.0003C43.4645 29.0071 43.4708 29.0125 43.4783 29.0157C43.7161 28.9701 43.9623 29 44.182 29.1011C44.4018 29.2022 44.584 29.3694 44.7029 29.5791C44.9031 29.927 45.065 30.2954 45.1857 30.678C45.2346 30.8031 45.4516 30.7684 45.4236 30.6293C45.6475 28.9392 44.6329 26.4771 42.8976 26.1016Z" fill="#050A3A"/>
<path d="M37.0541 48.9779C38.6985 61.0804 45.2554 82.3642 48.4393 85.3759C51.2384 88.0329 66.7453 88.4363 73.631 88.0538C76.2062 87.9077 74.0789 68.2515 71.3288 68.4602C68.0329 68.7106 58.2641 69.114 57.6763 68.4602C57.0885 67.8064 49.7549 54.5493 44.2967 46.4879C39.3423 39.2264 36.4313 44.4012 37.0541 48.9779Z" fill="#B63C44"/>
<path d="M80.1602 67.1386C86.1852 67.0552 87.7457 67.9524 92.791 65.198C96.1079 63.3966 98.6901 64.7181 96.5208 67.9802C92.9659 73.3081 85.2195 75.04 82.3574 74.8661L80.1602 67.1386Z" fill="#B63C44"/>
<path d="M63.7168 70.825C63.7168 70.825 70.8335 67.9802 77.2503 67.2638C81.6799 66.763 91.4487 66.7491 99.461 77.3283C101.357 79.8323 102.26 84.7498 97.6766 81.7729C94.4087 79.6862 92.9812 77.3353 90.8539 76.452C90.8539 76.452 91.2737 82.8371 88.6706 84.6316C86.3947 86.1866 84.012 87.5811 81.5399 88.8049C81.2076 88.4051 80.9014 87.9846 80.6232 87.5459C80.6232 87.5459 78.0341 88.9927 73.6255 88.0189L63.7168 70.825Z" fill="#B63C44"/>
<path d="M81.5525 67.459C83.4769 68.7805 87.5075 71.6323 89.9497 75.11C92.6998 78.9842 96.9474 87.1777 94.0434 89.167C91.9441 90.6207 90.0197 87.6368 90.0197 87.6368C90.0197 87.6368 91.0554 91.3928 88.8511 92.29C86.8358 93.1108 85.5062 90.7111 85.5062 90.7111C85.5062 90.7111 85.7371 93.0968 83.6518 93.4933C81.1326 93.9941 81.0557 88.9097 78.0536 87.2334C77.4239 86.9065 81.5525 67.459 81.5525 67.459Z" fill="#B63C44"/>
<path d="M85.3823 77.3427C87.9714 80.1975 89.6238 83.7687 90.1194 87.5805C90.1194 87.6778 90.0565 87.7335 90.0285 87.65C88.8998 84.0474 87.3325 80.5953 85.3613 77.3705C85.3613 77.3705 85.3613 77.3288 85.3823 77.3427Z" fill="#050A3A"/>
<path d="M81.5244 80.2148C82.7699 81.6824 85.3869 86.37 85.6178 90.7099C85.6178 90.8073 85.5478 90.863 85.5268 90.7725C84.5846 87.1193 83.2277 83.5844 81.4824 80.2357L81.5244 80.2148Z" fill="#050A3A"/>
<path d="M81.2441 67.1392C82.0138 67.1392 82.7765 67.1392 83.5462 67.1392C84.3159 67.1392 85.0716 67.1392 85.8343 67.0975C86.597 67.0558 87.3527 67.0279 88.1084 66.9445C88.8664 66.8707 89.6092 66.6856 90.3125 66.395C89.6556 66.8107 88.9196 67.0877 88.1504 67.2088C87.3908 67.3498 86.6209 67.4288 85.8483 67.4452C84.3076 67.476 82.767 67.3736 81.2441 67.1392V67.1392Z" fill="#050A3A"/>
<path d="M96.7447 67.5908C96.4142 68.3861 95.9399 69.1145 95.3453 69.7399C94.7562 70.3816 94.042 70.8974 93.2461 71.2561C93.561 70.957 93.8828 70.6928 94.1837 70.3937C94.4846 70.0946 94.7785 69.8095 95.0584 69.5034C95.6671 68.8914 96.1989 68.2515 96.7447 67.5908Z" fill="#050A3A"/>
<path d="M91.07 69.8794C93.1669 71.0737 95.1182 72.5044 96.8851 74.1431C97.7717 74.9722 98.5907 75.87 99.3343 76.8279C100.114 77.7782 100.712 78.8627 101.098 80.0274C101.301 80.6399 101.339 81.2944 101.21 81.9263C101.125 82.2806 100.904 82.5877 100.594 82.7818C100.274 82.9426 99.911 82.9963 99.5582 82.9348C98.9323 82.8049 98.3379 82.5544 97.8088 82.1975C97.2939 81.8636 96.805 81.4916 96.3463 81.0847C94.6358 79.4214 92.7601 77.9346 90.7481 76.6471L91.056 76.3271C92.2437 78.2765 93.2643 80.3216 94.107 82.441C94.5379 83.4942 94.8546 84.5901 95.0517 85.71C95.1532 86.2723 95.1745 86.846 95.1147 87.4141C95.0726 87.9868 94.8242 88.5252 94.4149 88.9304C94.7899 88.5058 95.0051 87.965 95.0237 87.4002C95.0505 86.8424 95.0034 86.2835 94.8838 85.7379C94.6332 84.6453 94.2794 83.5787 93.8271 82.5523C92.9252 80.4935 91.8679 78.5055 90.6642 76.6053L90.1953 75.8541L90.9651 76.2854C93.0183 77.5696 94.9361 79.0563 96.6892 80.723C97.1254 81.1196 97.5935 81.4802 98.0887 81.8011C98.5499 82.133 99.0734 82.3695 99.6282 82.4966C99.8645 82.5415 100.109 82.5123 100.328 82.4132C100.43 82.3495 100.517 82.2662 100.586 82.1682C100.654 82.0703 100.702 81.9596 100.727 81.8428C100.84 81.2966 100.806 80.7304 100.629 80.2013C100.259 79.0873 99.7034 78.0433 98.9844 77.1131C98.2785 76.1554 97.4995 75.2532 96.6542 74.4144C94.9454 72.726 93.0752 71.2072 91.07 69.8794V69.8794Z" fill="#050A3A"/>
<path d="M71.5803 91.1561L70.7336 67.9178H58.1377C54.324 61.5605 46.7035 48.8529 43.4006 44.8465C39.5308 40.1516 35.997 42.5165 36.6058 48.672C38.0053 62.7499 45.5629 84.3953 48.159 86.8089C51.8608 90.2588 71.5803 91.1561 71.5803 91.1561Z" fill="#2D53A4"/>
<path d="M67.663 88.4224C67.3411 87.0313 67.0122 80.987 66.9632 79.4847C66.9142 77.9823 66.8442 71.9727 66.7812 70.4425C66.7812 70.3591 66.9002 70.3313 66.9002 70.4425C66.9912 71.9658 67.523 77.9892 67.6 79.4847C67.677 80.9801 67.9359 86.9896 67.7539 88.4572C67.7516 88.4631 67.7482 88.4686 67.7438 88.4732C67.7394 88.4778 67.7341 88.4815 67.7282 88.4841C67.7164 88.4893 67.703 88.4897 67.691 88.485C67.6789 88.4804 67.6692 88.4712 67.6639 88.4595C67.6587 88.4478 67.6583 88.4344 67.663 88.4224Z" fill="#050A3A"/>
<path d="M63.1697 90.4954C61.1404 90.2728 59.111 90.0016 57.0957 89.6677C55.0697 89.3551 53.0647 88.9207 51.0917 88.367C50.0842 88.1012 49.1253 87.6786 48.2506 87.1151C47.5015 86.3862 46.8879 85.5314 46.4382 84.5902C45.5111 82.7673 44.7069 80.8852 44.031 78.9563C42.6314 75.1308 41.5048 71.2218 40.4202 67.2989C39.3355 63.376 38.4188 59.4184 37.6211 55.4746C38.6777 59.3975 39.7554 63.3134 40.882 67.2154C42.0087 71.1175 43.1913 74.9986 44.5208 78.8311C45.1817 80.7435 45.9504 82.6175 46.8231 84.4442C47.2299 85.3512 47.7909 86.1818 48.4815 86.8994C49.3188 87.4482 50.2373 87.8636 51.2036 88.1305C55.1242 89.2276 59.1251 90.0183 63.1697 90.4954Z" fill="#050A3A"/>
<path d="M38.3849 58.827C38.1548 58.5166 37.9579 58.1833 37.7971 57.8324C37.6181 57.4863 37.4998 57.1123 37.4473 56.7266C37.5242 56.9074 37.6152 57.0674 37.6992 57.2412L37.9511 57.7559C38.1185 58.1034 38.2634 58.4611 38.3849 58.827V58.827Z" fill="#050A3A"/>
<path d="M49.7051 54.3892C51.1046 56.3297 52.2732 58.3886 53.5258 60.4056C54.7784 62.4227 55.975 64.4746 57.2626 66.4639L57.7524 67.2011C57.8364 67.3194 57.9204 67.4446 58.0113 67.5559L58.1373 67.7089C58.1373 67.7437 58.1373 67.7089 58.1373 67.7437C58.1373 67.7784 58.1933 67.7437 58.2143 67.7437C58.7461 67.8063 59.3829 67.8132 59.9637 67.8271H63.5395L70.6982 67.8689V68.5296L70.6632 67.9454C68.277 68.0567 65.8908 68.1193 63.5045 68.161C62.3149 68.161 61.1183 68.161 59.9217 68.161C59.3143 68.1657 58.7071 68.1402 58.1023 68.0845C58.0544 68.0786 58.0074 68.067 57.9624 68.0497C57.9117 68.0238 57.8665 67.9884 57.8294 67.9454C57.7734 67.8828 57.7104 67.8202 57.6685 67.7645C57.6265 67.7089 57.4865 67.5211 57.3956 67.3959C57.2276 67.1524 57.0597 66.9021 56.8987 66.6517C55.6321 64.6346 54.4215 62.5966 53.2249 60.5378L51.4475 57.4565C50.9297 56.4271 50.3629 55.3768 49.7051 54.3892Z" fill="#050A3A"/>
<path d="M50.5391 54.7231C50.7306 55.0624 50.8899 55.4186 51.0149 55.7873C51.1478 56.1533 51.2187 56.5388 51.2248 56.9279C51.1758 56.7401 51.0988 56.5593 51.0359 56.3784L50.8469 55.8429C50.7222 55.476 50.6194 55.1021 50.5391 54.7231V54.7231Z" fill="#050A3A"/>
</g>
<path d="M3.33421 160.288L30.0504 160.406L56.7718 160.45L110.204 160.534L163.637 160.45L190.358 160.406L217.074 160.288L190.358 160.165L163.637 160.121L110.204 160.042L56.7718 160.121L30.0504 160.165L3.33421 160.288Z" fill="#41454C"/>
</svg>
