<svg width="373" height="355" viewBox="0 0 373 355" fill="none" xmlns="http://www.w3.org/2000/svg">
<path d="M85.1555 44.7525C85.9627 57.1619 86.5883 69.939 85.5087 82.3485C84.6611 92.0105 80.7359 99.9975 70.8574 102.479C61.6852 104.767 48.5878 104.737 40.7375 98.6493C37.0848 95.8099 35.7831 91.7654 35.9849 87.2203C36.2473 80.8879 40.8384 46.213 42.2107 35.3867C43.028 28.8092 43.8353 22.1091 45.8029 15.7461C49.94 2.36633 56.4584 2.40719 57.3665 2.13143C58.1435 1.62075 63.118 -0.697724 70.2621 1.52883C72.1278 2.10554 73.8524 3.07403 75.3233 4.37108C76.7943 5.66812 77.9784 7.26456 78.7985 9.0562C84.0355 19.7089 84.3886 33.1601 85.1555 44.7525Z" fill="#0A0F48"/>
<path d="M127.367 350.282C125.208 351.007 63.4341 350.823 61.083 349.311C60.185 348.75 59.6906 339.639 59.3979 328.619C59.3273 326.229 59.287 323.788 59.2466 321.275C59.1961 318.323 59.1558 315.331 59.1457 312.42C59.065 299.357 59.2466 287.856 59.2466 287.856H99.4569V312.42V321.275L99.2551 328.619C99.2551 328.619 122.867 339.394 125.268 341.334C127.67 343.275 129.526 349.567 127.367 350.282Z" fill="#FFA5AB"/>
<path d="M127.37 350.281C125.21 351.007 63.4369 350.823 61.0858 349.311C60.1877 348.749 59.6933 339.639 59.4007 328.619C59.3301 326.229 59.2897 323.788 59.2493 321.275C59.1989 318.323 59.1585 315.331 59.1484 312.42H99.4395V321.275L99.2376 328.619C99.2376 328.619 122.849 339.394 125.251 341.334C127.652 343.275 129.529 349.566 127.37 350.281Z" fill="#FBFBFB"/>
<path d="M127.558 350.372C126.146 350.842 99.8297 350.934 80.6781 350.535C76.2484 350.443 72.1921 350.321 68.9228 350.178C64.4124 349.963 61.3852 349.718 60.8505 349.402C59.7708 348.687 59.2461 335.317 59.0039 321.202H99.416L99.2041 328.587C99.2041 328.587 122.957 339.423 125.379 341.374C127.8 343.325 129.718 349.637 127.558 350.372Z" fill="#B3C0D5" fill-opacity="0.7"/>
<path d="M45.8398 120.044C45.8398 120.044 56.7072 228.859 56.9393 230.238C56.9393 230.422 59.1895 313.059 59.1895 313.059H103.587C103.587 313.059 100.691 243.883 99.0264 227.746C96.9074 207.165 83.5679 120.044 83.5679 120.044H45.8398Z" fill="#2D53A4"/>
<path d="M62.2463 228.411C60.9009 204.838 58.8458 181.32 56.081 157.856C54.517 144.578 52.6503 131.464 50.7836 118.279C50.7836 118.166 50.5919 118.166 50.6019 118.279C54.0428 141.77 56.4746 165.373 58.5633 188.977C60.652 212.58 62.1151 236.194 63.0737 259.859C63.6085 273.259 64.0222 286.669 64.446 300.079C64.4576 300.137 64.4885 300.189 64.5336 300.226C64.5786 300.264 64.635 300.284 64.6932 300.284C64.7514 300.284 64.8078 300.264 64.8528 300.226C64.8979 300.189 64.9288 300.137 64.9404 300.079C64.3148 276.18 63.6287 252.28 62.2463 228.411Z" fill="#FBFBFB"/>
<path d="M78.0781 114.39L57.6853 250.781C57.3019 236.625 56.9891 225.247 56.9588 224.604C56.7066 223.225 45.8594 114.41 45.8594 114.41L78.0781 114.39Z" fill="#040726" fill-opacity="0.2"/>
<path d="M67.1784 354.731C64.9686 355.293 3.36662 350.646 1.12655 348.981C0.278958 348.348 0.42023 339.227 0.90457 328.217C1.00547 325.837 1.01556 323.366 1.26782 320.884C1.57053 317.82 1.92369 314.643 2.27686 311.691C3.84087 298.649 5.66724 287.751 5.66724 287.751L44.6566 290.539L42.2954 314.102L41.2864 323.784L40.57 331.077C40.57 331.077 63.4853 343.537 65.685 345.692C67.8847 347.847 69.3781 354.159 67.1784 354.731Z" fill="#FFA5AB"/>
<path d="M67.1784 354.734C64.9686 355.296 3.36662 350.649 1.12655 348.984C0.278958 348.351 0.42023 339.23 0.90457 328.22C1.00547 325.84 1.01556 323.368 1.26782 320.887C1.57053 317.822 1.92369 314.646 2.27686 311.694C14.2945 312.501 31.539 313.533 42.2954 314.156L41.2864 323.838L40.57 331.131C40.57 331.131 63.4853 343.54 65.685 345.695C67.8847 347.85 69.3781 354.162 67.1784 354.734Z" fill="#FBFBFB"/>
<path d="M67.362 354.887C65.1422 355.449 3.19711 350.802 0.946944 349.106C-0.0620978 348.33 0.331433 334.95 1.07812 320.855L41.3893 323.766L40.6628 331.11C40.6628 331.11 63.5882 343.632 65.8889 345.746C68.1895 347.86 69.5416 354.264 67.362 354.887Z" fill="#B3C0D5" fill-opacity="0.7"/>
<path d="M126.672 347.861C116.259 347.564 74.202 347.401 63.9199 347.912C63.8392 347.912 63.8392 347.973 63.9199 347.973C74.2424 348.494 116.259 348.32 126.672 348.034C126.894 348.024 126.894 347.861 126.672 347.861Z" fill="#DE515A"/>
<path d="M100.732 326.288C96.6356 325.502 91.6509 326.125 88.4826 329.066C88.3615 329.179 88.4826 329.352 88.6541 329.311C92.5739 328.045 96.6162 327.206 100.712 326.809C100.772 326.8 100.827 326.769 100.868 326.723C100.908 326.677 100.932 326.619 100.934 326.557C100.937 326.496 100.918 326.435 100.881 326.386C100.844 326.337 100.792 326.302 100.732 326.288Z" fill="#DE515A"/>
<path d="M103.675 328.057C99.5887 327.27 94.594 327.893 91.4357 330.845C91.3146 330.957 91.4357 331.131 91.6072 331.09C95.5268 329.823 99.5692 328.984 103.665 328.588C103.735 328.589 103.802 328.562 103.852 328.513C103.902 328.465 103.931 328.398 103.933 328.327C103.934 328.257 103.908 328.189 103.859 328.138C103.811 328.087 103.745 328.058 103.675 328.057Z" fill="#DE515A"/>
<path d="M106.631 329.874C102.534 329.088 97.5494 329.711 94.381 332.652C94.2599 332.765 94.381 332.938 94.5525 332.897C98.4887 331.627 102.548 330.788 106.661 330.395C106.72 330.38 106.772 330.344 106.809 330.295C106.845 330.245 106.863 330.184 106.859 330.122C106.855 330.06 106.831 330.002 106.789 329.956C106.747 329.911 106.691 329.882 106.631 329.874Z" fill="#DE515A"/>
<path d="M109.592 331.681C105.495 330.894 100.51 331.517 97.3419 334.469C97.2208 334.581 97.3419 334.755 97.5135 334.714C101.433 333.447 105.475 332.608 109.572 332.212C109.641 332.214 109.709 332.189 109.76 332.141C109.811 332.093 109.841 332.027 109.844 331.956C109.847 331.886 109.822 331.817 109.774 331.766C109.727 331.714 109.661 331.683 109.592 331.681Z" fill="#DE515A"/>
<path d="M108.328 316.678C106.723 314.431 103.716 315.432 102.001 316.882C99.1056 319.426 96.9206 322.694 95.6641 326.361C95.6641 326.442 95.6641 326.493 95.765 326.514C95.7606 326.595 95.7752 326.675 95.8076 326.749C95.84 326.823 95.8892 326.888 95.9513 326.939C96.0133 326.99 96.0864 327.025 96.1646 327.041C96.2427 327.058 96.3236 327.056 96.4007 327.035C99.791 325.768 103.565 324.849 106.491 322.582C108.166 321.254 109.841 318.803 108.328 316.678ZM101.153 324.063C99.4984 324.716 97.8335 325.298 96.1989 326.013C97.3814 324.131 98.6579 322.311 100.023 320.559C100.696 319.721 101.425 318.929 102.203 318.19C103.424 317.077 108.257 314.697 107.52 319.211C107.117 321.754 103.121 323.276 101.153 324.063Z" fill="#DE515A"/>
<path d="M85.2498 325.268C88.63 326.739 92.5048 326.678 96.097 327.035C96.1773 327.037 96.2569 327.02 96.3293 326.985C96.4017 326.949 96.4647 326.897 96.513 326.832C96.5614 326.767 96.5937 326.691 96.6074 326.611C96.621 326.531 96.6155 326.449 96.5914 326.371C96.6073 326.365 96.6218 326.355 96.6337 326.342C96.6456 326.33 96.6547 326.315 96.6605 326.298C96.6662 326.282 96.6684 326.264 96.6669 326.247C96.6654 326.23 96.6603 326.213 96.6519 326.198C94.5306 322.964 91.6079 320.351 88.176 318.619C86.1579 317.598 82.9996 317.434 82.0006 320.018C81.0017 322.602 83.2821 324.39 85.2498 325.268ZM83.4133 322.306C81.5768 318.088 86.844 319.171 88.3072 319.937C89.242 320.459 90.142 321.042 91.0013 321.683C92.7974 322.991 94.3816 324.523 96.0465 326.004C94.2908 325.718 92.5249 325.585 90.7692 325.36C88.7108 325.074 84.4223 324.615 83.4133 322.286V322.306Z" fill="#DE515A"/>
<path d="M66.6562 352.253C56.2933 351.232 14.3879 348.015 4.09563 347.79C4.01491 347.79 4.00482 347.841 4.09563 347.851C14.3475 349.108 56.2832 351.937 66.6562 352.427C66.8681 352.437 66.8782 352.284 66.6562 352.253Z" fill="#DE515A"/>
<path d="M42.2971 328.833C38.2609 327.75 33.2157 328.016 29.8859 330.722C29.7547 330.824 29.8859 331.008 30.0372 330.978C34.0547 329.994 38.1648 329.449 42.2971 329.354C42.3566 329.342 42.4102 329.309 42.4487 329.262C42.4872 329.214 42.5082 329.155 42.5082 329.093C42.5082 329.032 42.4872 328.972 42.4487 328.925C42.4102 328.877 42.3566 328.845 42.2971 328.833Z" fill="#DE515A"/>
<path d="M45.1093 330.855C41.0732 329.772 36.028 330.027 32.6981 332.744C32.567 332.846 32.6981 333.03 32.8596 333C36.8579 332.026 40.9476 331.489 45.0589 331.396C45.1298 331.403 45.2005 331.381 45.2554 331.335C45.3102 331.289 45.3448 331.223 45.3515 331.151C45.3582 331.079 45.3364 331.008 45.291 330.952C45.2456 330.897 45.1803 330.862 45.1093 330.855Z" fill="#DE515A"/>
<path d="M47.9392 332.877C43.9031 331.795 38.8579 332.05 35.5179 334.767C35.3969 334.869 35.5179 335.053 35.6794 335.022C39.6786 334.056 43.7682 333.526 47.8787 333.439C47.9523 333.447 48.0261 333.425 48.0838 333.378C48.1415 333.331 48.1784 333.263 48.1865 333.189C48.1945 333.114 48.1729 333.04 48.1266 332.981C48.0802 332.923 48.0128 332.885 47.9392 332.877Z" fill="#DE515A"/>
<path d="M50.7541 334.888C46.7179 333.816 41.6727 334.071 38.3429 336.788C38.2117 336.89 38.3429 337.074 38.4943 337.043C42.4926 336.066 46.5816 335.518 50.6936 335.409C50.7559 335.407 50.8153 335.382 50.8611 335.339C50.9069 335.296 50.9361 335.238 50.9434 335.175C50.9507 335.112 50.9356 335.049 50.9009 334.996C50.8662 334.944 50.8142 334.905 50.7541 334.888Z" fill="#DE515A"/>
<path d="M50.5482 319.834C49.1053 317.474 46.0378 318.25 44.2216 319.578C41.1564 321.908 38.7487 325.01 37.239 328.576C37.2327 328.592 37.2298 328.61 37.2306 328.627C37.2313 328.644 37.2356 328.661 37.2433 328.676C37.2509 328.692 37.2616 328.705 37.2748 328.716C37.288 328.727 37.3033 328.735 37.3197 328.74C37.3197 329.046 37.5619 329.404 37.9251 329.301C41.3962 328.28 45.2205 327.647 48.2779 325.584C50.0639 324.389 51.9104 322.06 50.5482 319.834ZM42.8694 326.677C41.1843 327.218 39.469 327.698 37.8242 328.27C39.1965 326.523 40.478 324.716 42.0218 323.102C42.7502 322.315 43.5325 321.581 44.3628 320.906C45.6645 319.885 50.6491 317.842 49.5997 322.336C48.9842 324.808 44.8875 326.033 42.8694 326.677Z" fill="#DE515A"/>
<path d="M26.9257 326.718C30.195 328.424 34.0697 328.638 37.6215 329.261C37.701 329.267 37.7808 329.255 37.8547 329.225C37.9286 329.195 37.9946 329.147 38.0474 329.087C38.1003 329.027 38.1385 328.955 38.1592 328.877C38.1798 328.799 38.1823 328.717 38.1664 328.638C38.227 328.638 38.2774 328.546 38.227 328.475C36.3421 325.094 33.61 322.275 30.306 320.304C28.3686 319.19 25.2608 318.751 24.06 321.264C22.8593 323.776 25.0287 325.727 26.9257 326.718ZM25.3011 323.654C23.7674 319.313 28.9438 320.763 30.3463 321.611C31.2426 322.199 32.0989 322.847 32.9093 323.552C34.563 325.026 36.1424 326.584 37.6417 328.219C35.9163 327.8 34.1605 327.545 32.425 327.198C30.3463 326.789 26.1487 326.023 25.3011 323.633V323.654Z" fill="#DE515A"/>
<path d="M84.0808 119.5C84.0808 119.5 81.1546 131.757 75.2618 139.835C73.496 142.256 67.8756 144.268 65.3833 146.107C65.3833 146.107 61.2059 223.117 59.1474 233.555C58.0778 238.937 45.8583 316.468 45.8583 316.468L0.320312 313.057C0.320312 313.057 17.9987 236.455 18.9876 230.644C19.9764 224.832 22.4688 151.152 22.2468 149.467C19.5829 129.356 29.0578 116.865 29.0578 116.865L84.0808 119.5Z" fill="#2D53A4"/>
<path d="M47.6329 115.614C46.7237 118.773 44.8168 121.542 42.2043 123.499C39.3167 125.578 35.8963 126.766 32.356 126.921C31.7506 126.921 31.7103 127.881 32.356 127.881C39.5808 127.881 46.8862 123.244 47.9457 115.624C47.9558 115.481 47.6733 115.451 47.6329 115.614Z" fill="#FBFBFB"/>
<path d="M30.8965 113.898C28.3266 118.638 26.7015 123.844 26.1136 129.218C25.5486 135.081 27.0319 140.79 27.3144 146.581C27.607 152.576 27.2034 158.602 26.9309 164.598C26.6619 170.78 26.3995 176.96 26.1439 183.135L25.3568 201.52C25.0945 207.648 24.9633 213.776 24.479 219.843C23.8293 225.813 22.757 231.728 21.2702 237.543L17.2341 255.662C14.5298 267.683 11.755 279.704 9.35345 291.787C9.06083 293.278 8.74802 294.769 8.44531 296.26C8.44531 296.282 8.45382 296.303 8.46896 296.318C8.4841 296.333 8.50463 296.342 8.52604 296.342C8.54745 296.342 8.56798 296.333 8.58312 296.318C8.59826 296.303 8.60676 296.282 8.60676 296.26C11.6339 284.382 14.4087 272.432 17.1332 260.513C18.4785 254.528 19.8441 248.55 21.2299 242.578C22.5517 236.767 24.0955 230.945 24.9633 225.041C25.6618 219.163 26.0593 213.251 26.154 207.331L26.941 188.947C27.2034 182.771 27.4691 176.592 27.7382 170.409C28.0005 164.363 28.3537 158.306 28.4042 152.25C28.4513 149.294 28.3367 146.338 28.0611 143.394C27.7685 140.453 27.1933 137.552 26.9814 134.611C26.6702 128.983 27.5758 123.353 29.6352 118.116C30.1472 116.753 30.7264 115.417 31.3707 114.112C31.3988 114.049 31.4008 113.976 31.3762 113.911C31.3516 113.846 31.3024 113.793 31.2396 113.765C31.1767 113.737 31.1052 113.735 31.0409 113.76C30.9765 113.784 30.9246 113.834 30.8965 113.898Z" fill="#FBFBFB"/>
<path d="M64.0092 53.3023C70.7596 62.8315 106.833 81.2261 117.488 80.5929C133.381 79.6532 153.884 70.2057 161.059 66.1203C164.177 64.3329 155.176 40.7907 151.594 42.1696C143.925 45.1315 120.697 54.8956 117.841 55.151C114.986 55.4063 91.9697 51.423 79.9217 47.8585C63.7973 43.0684 60.5885 48.4815 64.0092 53.3023Z" fill="#FFA5AB"/>
<path d="M154.76 40.7809C158.796 40.7809 163.347 40.4029 167.282 41.8737C171.217 43.3444 172.691 49.779 172.176 51.3008C171.661 52.8226 166.919 61.739 162.953 60.35C158.988 58.9609 163.872 52.5366 163.962 51.6583C164.053 50.7799 164.316 49.6155 163.539 49.4726C162.762 49.3296 147.535 50.9739 147.535 50.9739L154.76 40.7809Z" fill="#FFA5AB"/>
<path d="M154.823 41.4232C155.045 41.4947 167.113 40.984 171.048 42.4445C174.983 43.9051 176.457 50.36 175.932 51.8716C175.407 53.3832 170.685 62.3201 166.719 60.931C162.754 59.542 167.637 53.1177 167.779 52.2291C167.92 51.3405 168.132 50.1864 167.355 50.0434C166.578 49.9004 151.352 51.5448 151.352 51.5448L154.823 41.4232Z" fill="#FFA5AB"/>
<path d="M165.552 59.9589C165.375 59.0924 165.427 58.1941 165.703 57.3544C165.908 56.4688 166.248 55.621 166.712 54.8419C167.178 54.197 167.59 53.5137 167.943 52.7992C168.192 52.0532 168.251 51.2559 168.115 50.4807C168.004 49.8169 167.358 49.8066 166.793 49.8066C165.958 49.8308 165.126 49.9058 164.3 50.0313L161.647 50.4092C160.726 50.5079 159.812 50.6682 158.912 50.8893C158.896 50.8893 158.881 50.8957 158.869 50.9072C158.858 50.9187 158.852 50.9343 158.852 50.9506C158.852 50.9668 158.858 50.9824 158.869 50.9939C158.881 51.0054 158.896 51.0118 158.912 51.0118C159.689 50.9864 160.464 50.9148 161.233 50.7974L163.856 50.542C164.674 50.4807 165.491 50.3582 166.308 50.3071C166.69 50.2151 167.087 50.2151 167.469 50.3071C167.741 50.4807 167.64 51.3284 167.62 51.5531C167.539 52.3297 167.233 53.065 166.742 53.6674C166.289 54.3092 165.897 54.9932 165.572 55.7101C165.266 56.3902 165.081 57.1198 165.027 57.8651C165.065 58.5577 165.184 59.2433 165.38 59.9078C165.4 60.0815 165.582 60.0508 165.552 59.9589Z" fill="#050A3A"/>
<path d="M138.648 47.5324C138.648 47.5324 153.098 41.2613 156.075 40.0561C162.038 37.6253 184.086 36.4201 186.871 37.084C189.655 37.7478 188.717 43.6615 173.632 44.8565C165.671 45.4897 163.067 49.0644 162.442 51.3318C161.816 53.5992 162.492 58.4813 166.215 59.6559C169.939 60.8304 174.187 56.2445 177.789 56.8267C181.391 57.4089 176.992 62.9548 173.359 65.7023C169.648 68.3355 165.274 69.8479 160.746 70.0634C157.144 70.1452 145.803 70.9929 145.803 70.9929L138.648 47.5324Z" fill="#FFA5AB"/>
<path d="M171.687 58.6956C169.931 59.288 167.873 60.1459 166.016 59.5739C164.159 59.002 163.302 57.3167 162.989 55.4885C162.55 53.62 162.839 51.652 163.796 49.9936C164.77 48.5284 166.145 47.3821 167.752 46.6947C169.715 45.8575 171.789 45.3139 173.907 45.0809C173.998 45.0809 173.967 44.9277 173.907 44.9277C171.949 45.1014 165.925 45.4384 163.251 49.7894C162.293 51.4926 162.015 53.5026 162.474 55.4068C162.787 57.1738 163.483 59.0326 165.219 59.7986C167.338 60.7485 169.83 59.6148 171.848 58.7773C171.869 58.6956 171.778 58.6139 171.687 58.6956Z" fill="#050A3A"/>
<path d="M85.6834 92.573L87.2777 124.235C87.2777 124.235 36.8256 120.211 24.4648 118.107C24.4648 118.107 40.0646 60.6251 54.8673 47.133C62.2635 40.3921 70.1038 41.6892 74.6546 47.3271C75.8049 48.757 89.1141 70.5016 89.992 78.4171C90.7286 85.4542 85.6834 92.573 85.6834 92.573Z" fill="#EAB22C"/>
<path d="M60.4583 46.1612C60.8115 47.1825 66.3108 53.0144 70.7909 52.2893C72.254 52.0339 71.2248 43.904 71.2248 43.904L71.2853 43.2912L72.1127 34.6505L61.5783 29.5438L60.0648 28.8799C60.0648 28.8799 59.9941 31.2596 59.9336 34.2216C59.9336 34.3543 59.9336 34.4973 59.9336 34.6403C59.9336 34.7833 59.9336 34.9671 59.9336 35.1203V36.4685C59.9336 36.8158 59.9336 37.1426 59.9336 37.4899C59.9336 37.8372 59.9336 38.1946 59.9336 38.5112C59.9325 41.0705 60.1078 43.6267 60.4583 46.1612Z" fill="#FFA5AB"/>
<path d="M83.0107 21.9252C84.1207 37.1229 75.2613 39.5129 72.0223 39.7478C69.0859 39.9623 59.046 40.33 56.3922 25.3263C53.7384 10.3226 60.3678 5.00139 67.0679 4.15367C73.7679 3.30594 81.9109 6.73769 83.0107 21.9252Z" fill="#FFA5AB"/>
<path d="M57.4316 26.0126C61.1953 25.6858 61.72 13.9198 61.7604 12.4797C61.7604 13.3887 61.8815 18.2197 62.2548 18.3934C62.658 18.3644 63.0535 18.2678 63.4253 18.1074C63.4024 17.5281 63.4192 16.948 63.4758 16.3711C63.4758 16.1055 63.6069 16.943 63.7987 17.9848L64.4949 17.8418C64.4015 16.61 64.4625 15.3711 64.6765 14.1547C64.7673 13.6951 64.9893 15.7378 65.5039 17.515C68.6671 16.3985 71.943 15.6415 75.2715 15.2578C76.2099 15.1761 77.0272 15.1455 77.7436 15.1455C77.6831 13.7258 77.4409 12.2142 77.562 12.541C77.8832 13.3872 78.1232 14.2628 78.2784 15.1557H79.348C79.348 13.113 78.2481 9.9774 78.5912 10.4574C79.6099 11.9205 80.3428 13.5672 80.7506 15.3089C82.1229 15.5131 82.5063 15.7583 82.5265 15.4008C81.9207 11.4618 79.9542 7.8681 76.9767 5.25876C72.0526 1.00993 62.6181 0.356265 57.6637 7.52616C57.6637 7.52616 53.4459 10.5902 52.9817 15.2987C52.5176 20.0071 55.2521 26.2373 57.4316 26.0126Z" fill="#0A0F48"/>
<path d="M58.8654 26.3162C58.8654 26.3162 55.6466 21.5158 53.4973 22.6801C51.3481 23.8445 53.7294 30.759 56.2218 31.7395C56.5335 31.886 56.8712 31.9673 57.2146 31.9785C57.5581 31.9896 57.9003 31.9305 58.2206 31.8046C58.541 31.6787 58.8329 31.4887 59.079 31.2458C59.325 31.003 59.5201 30.7123 59.6525 30.3914L58.8654 26.3162Z" fill="#FFA5AB"/>
<path d="M48.9681 53.2513C29.6954 73.4638 13.6517 115.707 22.8037 119.762C31.1686 123.469 57.8174 120.344 68.7857 117.791C72.0045 117.045 65.7586 91.7767 62.2976 92.5734C58.1302 93.5334 47.4949 94.994 47.0711 94.9531C46.1529 94.8816 56.1525 66.7638 59.4016 55.9681C63.8717 40.9235 56.213 45.6626 48.9681 53.2513Z" fill="#FFA5AB"/>
<path d="M95.5018 87.3805C95.9044 88.084 96.0854 88.8951 96.0205 89.7054C95.9556 90.5158 95.6479 91.2868 95.1385 91.9153C96.3686 92.5162 97.3508 93.5357 97.9134 94.7956C98.8013 97.0527 95.6834 99.4631 95.6834 99.4631C96.8241 100.348 97.6779 101.557 98.1353 102.936C98.771 105.193 95.976 108.043 95.976 108.043C96.5779 109.451 96.6603 111.031 96.2081 112.496C94.8358 116.367 88.7916 117.705 84.9472 118.624C81.1027 119.543 69.3978 118.399 67.1477 118.419L61.2852 93.5291C61.2852 93.5291 77.3794 84.582 82.0411 84.1837C85.9663 83.8773 93.8671 84.7454 95.5018 87.3805Z" fill="#FFA5AB"/>
<path d="M94.8376 91.2343C90.5795 90.5807 86.3617 91.2343 82.1136 91.6429C82.0949 91.6429 82.0769 91.6504 82.0637 91.6638C82.0504 91.6772 82.043 91.6954 82.043 91.7144C82.043 91.7333 82.0504 91.7515 82.0637 91.7649C82.0769 91.7783 82.0949 91.7859 82.1136 91.7859C86.3314 91.3365 90.5896 91.7246 94.8174 91.4386C94.8442 91.4413 94.8709 91.4332 94.8917 91.4159C94.9126 91.3987 94.9258 91.3738 94.9284 91.3467C94.9311 91.3196 94.923 91.2925 94.906 91.2715C94.889 91.2504 94.8644 91.237 94.8376 91.2343Z" fill="#050A3A"/>
<path d="M95.4978 98.8333C94.5168 98.7754 93.5326 98.851 92.5715 99.058C91.5625 99.2112 90.5534 99.3848 89.4839 99.5687C87.4658 99.9364 85.4275 100.362 83.3691 100.845C83.2783 100.845 83.2883 101.009 83.3691 100.988C85.3872 100.621 87.4658 100.284 89.5242 99.967L92.6119 99.5687C93.5949 99.5092 94.569 99.3449 95.5179 99.0784C95.5357 99.0626 95.5495 99.0428 95.5583 99.0207C95.5671 98.9985 95.5707 98.9745 95.5687 98.9507C95.5668 98.9269 95.5593 98.9039 95.547 98.8835C95.5347 98.8631 95.5178 98.8459 95.4978 98.8333Z" fill="#050A3A"/>
<path d="M95.8432 107.79C94.9558 107.759 94.0694 107.876 93.2197 108.137C92.2914 108.331 91.353 108.515 90.4246 108.689C88.5579 109.046 86.6912 109.404 84.8144 109.71C84.7236 109.71 84.7337 109.874 84.8144 109.863C86.7316 109.567 88.6387 109.312 90.5457 109.005L93.3509 108.546C94.2169 108.481 95.0644 108.259 95.8533 107.892C95.8533 107.892 95.8836 107.8 95.8432 107.79Z" fill="#050A3A"/>
<path d="M293.645 132.165L292.111 252.732L291.205 323.8L248.059 322.933L256.493 129.756L256.931 107.64H293.356L293.645 132.165Z" fill="#2D53A4"/>
<path d="M305.843 166.303L304.864 278.895L270.535 160.82L305.744 177.751L305.843 166.303Z" fill="#030629"/>
<path d="M242.353 161.193C240.909 165.375 242.482 172.076 239.196 171.977C236.269 171.877 235.621 167.127 235.621 167.127C235.621 167.127 234.626 172.714 231.489 171.718C228.352 170.722 228.731 165.375 228.731 165.375C228.731 165.375 228.093 170.055 225.056 168.84C222.019 167.625 221.481 163.025 221.481 163.025C221.481 163.025 220.386 164.24 218.624 162.407C216.094 159.798 217.17 152.012 218.693 148.078C220.217 144.145 228.711 130.882 230.045 128.87L255.367 138.439C255.367 138.439 255.875 146.684 255.626 150.896C255.377 155.108 250.707 168.76 247.242 167.824C243.777 166.888 247.242 157.309 247.58 154.78C247.919 152.251 247.381 151.793 246.346 152.788C245.669 153.436 242.98 159.34 242.353 161.193Z" fill="#C4666C"/>
<path d="M235.714 166.939C235.286 160.258 236.262 157.271 239.418 151.485C239.478 151.376 239.319 151.256 239.249 151.366C235.645 156.753 233.882 160.328 235.386 166.979C235.465 167.258 235.734 167.218 235.714 166.939Z" fill="#030629"/>
<path d="M228.807 165.653C228.976 158.683 230.002 155.427 232.859 149.123C232.909 149.044 232.76 148.964 232.71 149.044C229.384 155.018 227.731 158.603 228.458 165.593C228.498 165.942 228.807 165.942 228.807 165.653Z" fill="#030629"/>
<path d="M221.543 162.956C222.19 156.225 223.166 152.6 226.721 146.845C226.739 146.818 226.746 146.785 226.741 146.754C226.735 146.722 226.717 146.694 226.691 146.675C226.664 146.657 226.632 146.65 226.6 146.655C226.568 146.661 226.54 146.679 226.521 146.705C222.319 152.222 221.075 156.723 221.343 162.916C221.363 163.334 221.503 163.374 221.543 162.956Z" fill="#030629"/>
<path d="M272.403 49.7677C255.335 70.8878 232.244 122.658 229.475 130.036C227.593 135.015 253.832 145.56 254.599 141.985C255.594 137.395 272.741 80.248 276.764 58.8391C278.985 47.0393 275.938 45.456 272.403 49.7677Z" fill="#C4666C"/>
<path d="M271.206 86.5817L250.504 80.866C250.504 80.866 262.274 57.2863 270.827 49.7484C279.381 42.2105 278.883 51.4611 277.798 58.3618C276.712 65.2624 271.206 86.5817 271.206 86.5817Z" fill="#DCE6FC"/>
<mask id="path-52-inside-1_1142_2570" fill="white">
<path d="M271.605 81.7896C268.797 80.7441 265.819 80.0271 262.922 79.2305C260.024 78.4339 256.947 77.7966 253.96 77.0498C253.87 77.0498 253.83 77.1693 253.91 77.1892C256.808 78.0555 259.656 79.0413 262.583 79.7981C265.532 80.6456 268.523 81.3369 271.545 81.8693L271.605 81.7896Z"/>
</mask>
<path d="M271.605 81.7896C268.797 80.7441 265.819 80.0271 262.922 79.2305C260.024 78.4339 256.947 77.7966 253.96 77.0498C253.87 77.0498 253.83 77.1693 253.91 77.1892C256.808 78.0555 259.656 79.0413 262.583 79.7981C265.532 80.6456 268.523 81.3369 271.545 81.8693L271.605 81.7896Z" fill="#FBFBFB"/>
<path d="M271.605 81.7896L272.405 82.3896L273.207 81.3193L271.954 80.8525L271.605 81.7896ZM253.96 77.0498L254.202 76.0797L254.083 76.0498H253.96V77.0498ZM253.91 77.1892L254.197 76.2311L254.175 76.2246L254.153 76.2191L253.91 77.1892ZM262.583 79.7981L262.859 78.837L262.846 78.8333L262.833 78.8299L262.583 79.7981ZM271.545 81.8693L271.372 82.8541L271.976 82.9607L272.345 82.4693L271.545 81.8693ZM271.954 80.8525C269.091 79.7866 266.042 79.0512 263.187 78.2663L262.657 80.1948C265.597 81.0031 268.502 81.7016 271.256 82.7268L271.954 80.8525ZM263.187 78.2663C260.287 77.469 257.123 76.8099 254.202 76.0797L253.717 78.0199C256.771 78.7834 259.761 79.3988 262.657 80.1948L263.187 78.2663ZM253.96 76.0498C253.436 76.0498 253.059 76.4019 252.926 76.785C252.859 76.9805 252.827 77.263 252.954 77.5567C253.096 77.8836 253.376 78.0865 253.668 78.1594L254.153 76.2191C254.404 76.282 254.66 76.4625 254.789 76.7614C254.904 77.0271 254.873 77.276 254.816 77.4391C254.706 77.7574 254.394 78.0498 253.96 78.0498V76.0498ZM253.624 78.1473C256.462 78.9959 259.386 80.0045 262.333 80.7663L262.833 78.8299C259.925 78.0782 257.154 77.1152 254.197 76.2311L253.624 78.1473ZM262.307 80.7592C265.29 81.6164 268.315 82.3157 271.372 82.8541L271.719 80.8845C268.732 80.3582 265.774 79.6748 262.859 78.837L262.307 80.7592ZM272.345 82.4693L272.405 82.3896L270.805 81.1897L270.745 81.2693L272.345 82.4693Z" fill="#030629" mask="url(#path-52-inside-1_1142_2570)"/>
<path d="M223.131 345.588C225.312 346.235 286.94 344.124 289.24 342.55C290.116 341.973 290.335 332.971 290.236 322.098C290.236 321.978 290.236 321.869 290.236 321.749L250.465 322.665V323.342C250.465 323.342 227.313 334.704 224.973 336.695C222.633 338.687 220.99 344.94 223.131 345.588Z" fill="#050A3A"/>
<path d="M223.75 343.19C234.126 342.583 276.058 341.099 286.364 341.288C286.443 341.288 286.453 341.338 286.364 341.348C276.088 342.174 234.156 343.339 223.75 343.339C223.531 343.339 223.531 343.19 223.75 343.19Z" fill="#FDE8A9"/>
<path d="M247.201 323.582C251.263 322.676 256.292 323.134 259.508 325.942C259.638 326.051 259.508 326.221 259.349 326.181C255.397 325.062 251.338 324.361 247.24 324.09C247.18 324.083 247.124 324.056 247.081 324.013C247.039 323.97 247.013 323.913 247.009 323.852C247.004 323.792 247.02 323.732 247.056 323.682C247.091 323.633 247.142 323.597 247.201 323.582Z" fill="#FDE8A9"/>
<path d="M244.314 325.454C248.377 324.558 253.395 325.016 256.622 327.814C256.751 327.924 256.622 328.103 256.462 328.063C252.513 326.935 248.453 326.234 244.354 325.972C244.285 325.977 244.217 325.955 244.165 325.91C244.113 325.866 244.08 325.802 244.075 325.733C244.07 325.665 244.092 325.597 244.137 325.544C244.182 325.492 244.245 325.46 244.314 325.454Z" fill="#FDE8A9"/>
<path d="M241.428 327.337C245.491 326.43 250.509 326.889 253.736 329.697C253.855 329.806 253.736 329.985 253.566 329.946C249.617 328.816 245.557 328.115 241.458 327.854C241.389 327.858 241.322 327.835 241.27 327.789C241.219 327.743 241.188 327.679 241.184 327.61C241.18 327.542 241.204 327.474 241.249 327.423C241.295 327.372 241.359 327.341 241.428 327.337Z" fill="#FDE8A9"/>
<path d="M287.878 125.905C287.872 125.887 287.861 125.872 287.845 125.861C287.83 125.851 287.812 125.845 287.794 125.845C287.775 125.845 287.757 125.851 287.742 125.861C287.726 125.872 287.715 125.887 287.709 125.905C287.55 150.142 287.091 174.369 286.524 198.596C285.956 222.822 285.17 246.79 284.403 270.878C283.975 284.46 283.547 298.042 283.258 311.635C283.258 311.734 283.407 311.724 283.417 311.635C284.891 287.438 285.976 263.211 286.892 238.944C287.789 214.866 288.376 190.759 288.346 166.652C288.336 153.099 288.237 139.497 287.878 125.905Z" fill="#F6F7FF"/>
<path d="M303.812 313.157C304.211 317.977 304.48 321.382 304.48 321.412C304.529 329.129 304.709 335.89 305.127 339.336C305.122 339.355 305.122 339.376 305.127 339.396C305.223 340.21 305.42 341.01 305.714 341.775C305.714 341.775 305.714 341.775 305.714 341.825C308.025 343.359 369.682 344.763 371.843 344.086C374.004 343.408 372.351 337.215 369.961 335.223C367.571 333.232 344.231 322.169 344.231 322.169L343.464 313.655L303.812 313.157Z" fill="#EBEBEB"/>
<path d="M371.9 344.124C369.729 344.801 308.071 343.407 305.761 341.864C304.875 341.286 304.556 332.295 304.477 321.411V321.072L344.307 321.53V322.207C344.307 322.207 367.598 333.3 369.958 335.222C372.318 337.144 374.07 343.457 371.9 344.124Z" fill="#050A3A"/>
<path d="M371.26 341.726C360.874 341.228 318.932 340.233 308.626 340.531C308.546 340.531 308.536 340.591 308.626 340.601C318.912 341.308 360.854 341.975 371.26 341.896C371.479 341.896 371.479 341.736 371.26 341.726Z" fill="#FDE8A9"/>
<path d="M348.685 321.75C344.613 320.894 339.594 321.402 336.408 324.25C336.288 324.359 336.408 324.528 336.577 324.489C340.513 323.325 344.562 322.584 348.656 322.278C348.726 322.282 348.794 322.258 348.847 322.211C348.899 322.165 348.93 322.099 348.934 322.029C348.938 321.959 348.914 321.89 348.868 321.838C348.821 321.786 348.755 321.754 348.685 321.75Z" fill="#FDE8A9"/>
<path d="M351.609 323.593C347.537 322.737 342.518 323.255 339.322 326.093C339.202 326.202 339.322 326.381 339.491 326.342C343.429 325.166 347.482 324.418 351.58 324.111C351.648 324.115 351.716 324.091 351.767 324.046C351.818 324 351.849 323.936 351.853 323.867C351.857 323.798 351.834 323.731 351.788 323.68C351.742 323.628 351.678 323.597 351.609 323.593Z" fill="#FDE8A9"/>
<path d="M354.518 325.436C350.445 324.58 345.427 325.097 342.24 327.935C342.111 328.055 342.24 328.224 342.409 328.184C346.345 327.014 350.394 326.266 354.488 325.954C354.557 325.958 354.624 325.934 354.675 325.889C354.727 325.843 354.758 325.778 354.762 325.71C354.766 325.641 354.742 325.574 354.697 325.522C354.651 325.471 354.587 325.44 354.518 325.436Z" fill="#FDE8A9"/>
<path d="M260.625 107.611C260.784 108.368 263.334 120.188 265.972 130.335C267.894 137.753 269.876 144.275 271.011 144.952C272.146 145.63 278.549 148.487 280.65 149.354L290.219 240.914L303.054 323.294L346.101 321.043L311.608 107.611H260.625Z" fill="#2D53A4"/>
<path d="M270.612 160.7C275.186 162.371 279.607 164.436 283.825 166.87C283.991 166.958 283.883 167.223 283.707 167.145C279.251 165.235 274.716 163.403 270.377 161.268C270.302 161.237 270.242 161.177 270.211 161.102C270.18 161.027 270.18 160.942 270.211 160.867C270.242 160.791 270.302 160.731 270.377 160.7C270.452 160.669 270.537 160.669 270.612 160.7Z" fill="#030629"/>
<path d="M269.271 130.222C269.271 130.065 269.555 130.035 269.555 130.222C269.555 135.187 269.804 140.149 270.3 145.089C270.505 147.381 272.356 160.044 276.333 159.124C276.999 158.967 277.312 158.311 277.44 157.312C277.425 155.989 277.247 154.673 276.911 153.394C276.47 150.74 276.117 148.086 275.931 145.402C275.464 140.415 275.517 135.393 276.088 130.417C276.088 130.384 276.101 130.351 276.125 130.327C276.149 130.304 276.182 130.29 276.215 130.29C276.249 130.29 276.281 130.304 276.305 130.327C276.329 130.351 276.343 130.384 276.343 130.417C276.228 137.333 276.634 144.248 277.557 151.102C278.057 154.393 279.712 159.359 276.264 159.858C272.817 160.358 270.486 152.023 270.055 149.8C268.95 143.335 268.687 136.754 269.271 130.222Z" fill="#030629"/>
<path d="M311.846 143.838C310.721 143.549 309.516 143.449 308.371 143.27C307.435 143.121 306.519 142.962 305.593 142.752C303.832 142.437 302.163 141.737 300.704 140.701C299.239 139.34 298.148 137.626 297.537 135.722C297.079 134.647 296.601 133.581 296.123 132.516C295.894 132.008 295.665 131.52 295.426 130.973C295.1 130.372 294.808 129.754 294.55 129.12C294.543 129.102 294.53 129.087 294.512 129.078C294.494 129.07 294.474 129.069 294.455 129.076C294.437 129.082 294.422 129.096 294.413 129.114C294.405 129.131 294.404 129.152 294.411 129.17C294.569 129.607 294.702 130.052 294.809 130.505C294.958 131.022 295.108 131.5 295.267 132.058C295.556 132.974 295.834 133.9 296.143 134.816C296.609 136.507 297.278 138.135 298.135 139.666C299.837 142.364 302.875 143.459 305.912 143.838C306.788 143.947 307.664 144.007 308.54 144.057C309.643 144.156 310.753 144.156 311.856 144.057C311.976 144.117 312.026 143.878 311.846 143.838Z" fill="#050A3A"/>
<path d="M317.582 128.105C317.423 128.264 252.658 126.223 252.091 125.536C251.304 124.54 265.165 60.2437 276.168 46.6216C278.916 43.2261 288.187 42.3 291.832 46.0839C302.377 57.0373 304.289 64.864 306.768 72.153C308.63 77.55 310.751 86.7011 312.623 96.0513C315.74 111.535 318.13 127.527 317.582 128.105Z" fill="#DCE6FC"/>
<path d="M266.175 68.5048C266.192 68.2797 266.21 68.053 266.229 67.826L266.369 67.8643C266.367 67.8705 266.365 67.8766 266.363 67.8827L266.363 67.8838C266.3 68.0908 266.237 68.2978 266.175 68.5048ZM266.483 64.0258L266.483 64.0258L266.483 64.0258ZM264.599 73.718C264.62 73.6534 264.642 73.5887 264.663 73.5242C263.857 76.2236 263.065 78.9292 262.308 81.6421C262.086 82.3937 261.872 83.1332 261.661 83.8694C262.566 80.4616 263.558 77.0884 264.599 73.718Z" fill="#FBFBFB" stroke="#030629"/>
<path d="M278.261 56.8284C280.969 57.2068 287.103 52.6562 289.712 48.5835C289.891 48.2948 289.652 45.2079 289.553 41.4339C289.493 39.1437 289.483 36.5945 289.642 34.2744L274.766 36.8136C275.396 39.7808 275.663 42.8135 275.562 45.8452C275.536 46.1816 275.48 46.5149 275.393 46.8409C275.393 46.8409 275.393 46.9405 275.393 47.0003C274.985 48.7429 274.019 56.231 278.261 56.8284Z" fill="#C4666C"/>
<path d="M269.958 14.587C268.136 19.6953 270.147 34.791 273.672 38.3061C278.781 43.4044 287.503 44.2806 291.925 38.0671C296.206 32.0328 293.229 12.4063 289.266 9.18996C283.421 4.43021 272.667 7.06898 269.958 14.587Z" fill="#C4666C"/>
<path d="M268.791 26.4661C268.343 25.1019 264.151 10.3547 264.479 8.71169C264.768 7.21804 266.411 7.71592 266.471 7.71592C266.531 7.71592 266.471 6.28202 267.297 5.7244C267.581 5.59901 267.888 5.53425 268.198 5.53425C268.509 5.53425 268.816 5.59901 269.1 5.7244C269.1 5.7244 269.299 4.2905 270.175 3.87228C270.469 3.76448 270.787 3.73534 271.096 3.78773C271.405 3.84012 271.695 3.97223 271.938 4.17101C272.004 3.79099 272.162 3.4329 272.398 3.1276C272.634 2.82229 272.941 2.57893 273.292 2.41847C273.608 2.31576 273.949 2.31742 274.265 2.42318C274.58 2.52895 274.854 2.73325 275.044 3.00597C275.044 3.00597 275.363 1.63182 276.289 1.33309C277.215 1.03436 278.061 2.00025 278.061 2.00025C278.18 1.65369 278.39 1.34531 278.668 1.10716C278.947 0.869006 279.284 0.70977 279.645 0.64601C279.999 0.656386 280.343 0.771675 280.632 0.977287C280.92 1.1829 281.142 1.4696 281.268 1.8011C281.434 1.47376 281.672 1.18771 281.963 0.963772C282.254 0.739835 282.592 0.583651 282.951 0.506603C284.016 0.4369 284.444 1.74135 284.444 1.74135C284.444 1.74135 284.823 0.546434 285.828 0.576306C286.834 0.606179 287.133 2.00025 287.133 2.00025C287.133 2.00025 287.641 0.675883 288.826 1.00448C290.658 1.51232 291.245 10.1456 291.813 13.8797C291.813 13.8797 291.235 12.1072 290.469 12.0674C289.702 12.0276 289.174 13.2822 287.76 13.6606C285.769 14.1884 282.254 11.9479 279.465 12.6649C276.677 13.3818 274.855 16.3094 274.049 20.631C273.142 25.4803 269.876 29.7123 268.791 26.4661Z" fill="#0A0F48"/>
<path d="M272.574 26.9615C272.574 26.9615 269.318 21.9827 267.088 23.1677C264.857 24.3526 267.207 31.4026 269.756 32.4382C270.075 32.5939 270.421 32.6833 270.775 32.7012C271.129 32.719 271.483 32.6649 271.815 32.542C272.148 32.4191 272.452 32.23 272.709 31.9863C272.966 31.7425 273.171 31.4491 273.311 31.1238L272.574 26.9615Z" fill="#C4666C"/>
<path d="M302.836 54.0579C323.428 72.121 342.616 111.812 333.933 116.542C325.967 120.824 299.54 119.957 288.546 118.374C285.32 117.906 289.443 92.8528 292.898 93.3407C297.07 93.9382 307.655 94.4858 308.073 94.4161C308.969 94.2767 296.821 67.7695 292.798 57.5729C287.192 43.2937 295.108 47.2668 302.836 54.0579Z" fill="#C4666C"/>
<path d="M259.829 90.6929C259.491 91.4106 259.379 92.2143 259.509 92.9971C259.639 93.7798 260.004 94.5044 260.556 95.0743C259.405 95.7517 258.525 96.8076 258.067 98.0616C257.37 100.332 260.626 102.413 260.626 102.413C259.573 103.379 258.834 104.638 258.505 106.028C258.057 108.268 261.044 110.837 261.044 110.837C260.564 112.256 260.61 113.801 261.173 115.189C262.826 118.833 268.891 119.64 272.734 120.168C276.578 120.695 288.009 118.684 290.23 118.515L293.984 93.8595C293.984 93.8595 277.444 86.4709 272.824 86.4609C268.94 86.5107 261.233 88.0044 259.829 90.6929Z" fill="#C4666C"/>
<path d="M303.35 84.8666L322.638 75.4368C322.638 75.4368 306.706 54.4162 296.947 48.5512C287.189 42.6861 289.339 51.7277 291.709 58.2997C294.079 64.8717 303.35 84.8666 303.35 84.8666Z" fill="#DCE6FC"/>
<mask id="path-79-inside-2_1142_2570" fill="white">
<path d="M319.573 73.6259C316.755 74.6217 314.037 76.0556 311.329 77.3401C308.62 78.6247 305.862 80.1681 303.104 81.5423C303.024 81.5423 303.104 81.7215 303.173 81.6916C305.932 80.4569 308.73 79.3416 311.438 77.9973C314.236 76.7124 316.962 75.2764 319.603 73.6956C319.603 73.6956 319.623 73.606 319.573 73.6259Z"/>
</mask>
<path d="M319.573 73.6259C316.755 74.6217 314.037 76.0556 311.329 77.3401C308.62 78.6247 305.862 80.1681 303.104 81.5423C303.024 81.5423 303.104 81.7215 303.173 81.6916C305.932 80.4569 308.73 79.3416 311.438 77.9973C314.236 76.7124 316.962 75.2764 319.603 73.6956C319.603 73.6956 319.623 73.606 319.573 73.6259Z" fill="#FBFBFB"/>
<path d="M319.573 73.6259L319.907 74.5688L319.926 74.562L319.945 74.5544L319.573 73.6259ZM303.104 81.5423V82.5423H303.339L303.549 82.4373L303.104 81.5423ZM303.173 81.6916L303.567 82.6108L303.575 82.6076L303.582 82.6043L303.173 81.6916ZM311.438 77.9973L311.021 77.0886L311.007 77.0949L310.994 77.1016L311.438 77.9973ZM319.603 73.6956L320.117 74.5538L320.486 74.3327L320.58 73.9126L319.603 73.6956ZM319.24 72.6831C316.358 73.7017 313.555 75.1773 310.9 76.4366L311.757 78.2437C314.519 76.9339 317.153 75.5417 319.907 74.5688L319.24 72.6831ZM310.9 76.4366C308.204 77.7151 305.333 79.3143 302.658 80.6472L303.549 82.4373C306.391 81.0219 309.036 79.5342 311.757 78.2437L310.9 76.4366ZM303.104 80.5423C302.899 80.5423 302.634 80.6044 302.407 80.8111C302.19 81.0089 302.11 81.2474 302.084 81.41C302.037 81.7008 302.123 81.9334 302.172 82.042C302.23 82.1685 302.331 82.3316 302.504 82.467C302.675 82.602 303.083 82.8182 303.567 82.6108L302.779 80.7725C303.228 80.58 303.6 80.785 303.74 80.8948C303.88 81.005 303.954 81.1289 303.993 81.2143C304.023 81.2819 304.1 81.4715 304.058 81.7296C304.035 81.8759 303.961 82.1006 303.755 82.2887C303.539 82.4857 303.288 82.5423 303.104 82.5423V80.5423ZM303.582 82.6043C306.286 81.3938 309.154 80.2474 311.883 78.8931L310.994 77.1016C308.305 78.4358 305.577 79.5199 302.765 80.7789L303.582 82.6043ZM311.855 78.9061C314.686 77.606 317.444 76.1531 320.117 74.5538L319.09 72.8375C316.479 74.3997 313.785 75.8188 311.021 77.0886L311.855 78.9061ZM319.603 73.6956C320.58 73.9126 320.58 73.9123 320.58 73.9121C320.58 73.912 320.58 73.9118 320.58 73.9116C320.58 73.9113 320.58 73.911 320.58 73.9107C320.58 73.9101 320.58 73.9094 320.58 73.9088C320.581 73.9074 320.581 73.9061 320.581 73.9047C320.582 73.9019 320.583 73.8989 320.583 73.8957C320.584 73.8893 320.586 73.8821 320.587 73.8742C320.59 73.8587 320.594 73.8387 320.597 73.8154C320.602 73.7777 320.612 73.6942 320.605 73.591C320.602 73.5409 320.588 73.227 320.336 72.9528C320.182 72.7839 319.966 72.6635 319.717 72.6314C319.492 72.6024 319.31 72.6545 319.202 72.6975L319.945 74.5544C319.85 74.5924 319.678 74.643 319.461 74.615C319.221 74.584 319.012 74.4673 318.862 74.3041C318.728 74.1584 318.671 74.0083 318.646 73.9225C318.619 73.8328 318.612 73.7584 318.609 73.7157C318.604 73.6324 318.612 73.57 318.615 73.5485C318.617 73.5333 318.619 73.5202 318.621 73.5095C318.622 73.5039 318.623 73.4987 318.624 73.4936C318.625 73.4911 318.625 73.4886 318.626 73.4861C318.626 73.4849 318.626 73.4836 318.626 73.4824C318.626 73.4818 318.627 73.4812 318.627 73.4806C318.627 73.4803 318.627 73.4799 318.627 73.4796C318.627 73.4795 318.627 73.4793 318.627 73.4792C318.627 73.4789 318.627 73.4787 319.603 73.6956Z" fill="#030629" mask="url(#path-79-inside-2_1142_2570)"/>
<mask id="path-81-inside-3_1142_2570" fill="white">
<path d="M304.517 84.29C304.099 84.4294 303.9 84.519 303.521 84.6186C301.958 80.8546 300.156 77.2002 298.413 73.5258C296.587 69.6888 294.755 65.8617 292.916 62.0447C292.916 61.9749 292.787 62.0447 292.807 62.0447C293.494 63.7673 294.191 65.4701 294.898 67.1828C294.49 66.5853 294.091 65.9779 293.663 65.3904C293.655 65.3785 293.643 65.3703 293.629 65.3675C293.615 65.3647 293.6 65.3676 293.588 65.3755C293.577 65.3834 293.568 65.3957 293.566 65.4097C293.563 65.4237 293.566 65.4383 293.574 65.4502C294.081 66.2368 294.619 67.0135 295.147 67.7902C295.993 69.7817 296.85 71.7732 297.736 73.7648C299.449 77.6084 301.151 81.4521 303.203 85.1264C303.312 85.3057 304.198 84.5887 304.607 84.4095C304.726 84.3896 304.636 84.2203 304.517 84.29Z"/>
</mask>
<path d="M304.517 84.29C304.099 84.4294 303.9 84.519 303.521 84.6186C301.958 80.8546 300.156 77.2002 298.413 73.5258C296.587 69.6888 294.755 65.8617 292.916 62.0447C292.916 61.9749 292.787 62.0447 292.807 62.0447C293.494 63.7673 294.191 65.4701 294.898 67.1828C294.49 66.5853 294.091 65.9779 293.663 65.3904C293.655 65.3785 293.643 65.3703 293.629 65.3675C293.615 65.3647 293.6 65.3676 293.588 65.3755C293.577 65.3834 293.568 65.3957 293.566 65.4097C293.563 65.4237 293.566 65.4383 293.574 65.4502C294.081 66.2368 294.619 67.0135 295.147 67.7902C295.993 69.7817 296.85 71.7732 297.736 73.7648C299.449 77.6084 301.151 81.4521 303.203 85.1264C303.312 85.3057 304.198 84.5887 304.607 84.4095C304.726 84.3896 304.636 84.2203 304.517 84.29Z" fill="#FBFBFB"/>
<path d="M304.517 84.29L304.833 85.2387L304.931 85.2059L305.021 85.1538L304.517 84.29ZM303.521 84.6186L302.598 85.0022L302.932 85.8076L303.776 85.5857L303.521 84.6186ZM298.413 73.5258L299.316 73.0973L299.316 73.0962L298.413 73.5258ZM292.916 62.0447H291.916V62.273L292.015 62.4787L292.916 62.0447ZM292.807 62.0447L293.736 61.6742L293.485 61.0447H292.807V62.0447ZM294.898 67.1828L294.072 67.747L295.822 66.8012L294.898 67.1828ZM293.663 65.3904L292.831 65.9451L292.843 65.9625L292.855 65.9794L293.663 65.3904ZM293.574 65.4502L294.414 64.9078L294.41 64.9016L294.406 64.8955L293.574 65.4502ZM295.147 67.7902L296.067 67.399L296.029 67.3091L295.974 67.2282L295.147 67.7902ZM297.736 73.7648L296.822 74.1713L296.822 74.1718L297.736 73.7648ZM303.203 85.1264L302.329 85.6139L302.339 85.6311L302.349 85.6479L303.203 85.1264ZM304.607 84.4095L304.442 83.4231L304.319 83.4436L304.205 83.4938L304.607 84.4095ZM304.201 83.3413C303.7 83.5083 303.608 83.5617 303.267 83.6515L303.776 85.5857C304.191 85.4763 304.498 85.3504 304.833 85.2387L304.201 83.3413ZM304.445 84.235C302.869 80.4413 301.05 76.7526 299.316 73.0973L297.509 73.9543C299.261 77.6477 301.047 81.2679 302.598 85.0022L304.445 84.235ZM299.316 73.0962C297.49 69.2577 295.657 65.4292 293.817 61.6106L292.015 62.4787C293.854 66.2943 295.685 70.1199 297.51 73.9554L299.316 73.0962ZM293.916 62.0447C293.916 61.8823 293.877 61.6513 293.717 61.4325C293.553 61.2096 293.336 61.0992 293.163 61.0514C292.874 60.9716 292.634 61.0409 292.574 61.0585C292.478 61.0865 292.389 61.126 292.312 61.171C292.299 61.1783 292.182 61.2434 292.071 61.3634C292.039 61.3983 291.97 61.4768 291.911 61.5941C291.86 61.6959 291.742 61.9758 291.846 62.3271C291.963 62.7246 292.268 62.9096 292.448 62.9784C292.612 63.0412 292.752 63.0447 292.807 63.0447V61.0447C292.86 61.0447 292.999 61.0479 293.163 61.1105C293.342 61.179 293.647 61.3637 293.764 61.7606C293.867 62.1115 293.749 62.3908 293.698 62.4919C293.64 62.6085 293.572 62.6862 293.54 62.7202C293.433 62.8366 293.322 62.8968 293.319 62.8987C293.261 62.9328 293.2 62.9593 293.134 62.9785C293.104 62.9874 292.895 63.0524 292.63 62.9791C292.469 62.9345 292.262 62.8302 292.105 62.6168C291.951 62.4075 291.916 62.1896 291.916 62.0447H293.916ZM291.878 62.4151C292.567 64.1431 293.266 65.8501 293.974 67.5644L295.822 66.8012C295.116 65.0901 294.421 63.3915 293.736 61.6742L291.878 62.4151ZM295.724 66.6186C295.33 66.0423 294.911 65.4051 294.471 64.8014L292.855 65.9794C293.271 66.5507 293.65 67.1284 294.072 67.747L295.724 66.6186ZM294.495 64.8357C294.34 64.6034 294.099 64.4418 293.825 64.3869L293.433 66.3481C293.186 66.2988 292.97 66.1536 292.831 65.9451L294.495 64.8357ZM293.825 64.3869C293.551 64.332 293.266 64.3886 293.034 64.5434L294.143 66.2075C293.935 66.3466 293.679 66.3973 293.433 66.3481L293.825 64.3869ZM293.034 64.5434C292.801 64.6983 292.64 64.9392 292.585 65.2136L294.546 65.6058C294.497 65.8522 294.352 66.0685 294.143 66.2075L293.034 64.5434ZM292.585 65.2136C292.53 65.4889 292.587 65.7733 292.741 66.0049L294.406 64.8955C294.544 65.1032 294.596 65.3586 294.546 65.6058L292.585 65.2136ZM292.733 65.9925C293.25 66.7923 293.799 67.5853 294.32 68.3522L295.974 67.2282C295.44 66.4417 294.913 65.6813 294.414 64.9078L292.733 65.9925ZM294.226 68.1813C295.074 70.1752 295.933 72.1725 296.822 74.1713L298.649 73.3582C297.766 71.374 296.913 69.3883 296.067 67.399L294.226 68.1813ZM296.822 74.1718C298.531 78.0066 300.252 81.893 302.329 85.6139L304.076 84.639C302.05 81.0111 300.366 77.2103 298.649 73.3577L296.822 74.1718ZM302.349 85.6479C302.651 86.1414 303.16 86.1668 303.356 86.1513C303.556 86.1356 303.721 86.0702 303.804 86.0348C303.988 85.956 304.181 85.8391 304.323 85.75C304.424 85.6867 304.691 85.5142 304.764 85.4683C304.829 85.427 304.884 85.3932 304.931 85.3667C304.954 85.3536 304.972 85.3436 304.986 85.3362C304.993 85.3326 304.999 85.3299 305.003 85.3279C305.005 85.327 305.006 85.3263 305.007 85.3258C305.008 85.3253 305.009 85.3251 305.009 85.3251L304.205 83.4938C304.026 83.5722 303.837 83.6884 303.697 83.7763C303.621 83.8246 303.542 83.8754 303.47 83.9221C303.395 83.97 303.327 84.0141 303.262 84.0548C303.197 84.0956 303.142 84.1289 303.095 84.1549C303.073 84.1677 303.055 84.1775 303.04 84.1848C303.033 84.1883 303.028 84.191 303.024 84.1929C303.022 84.1938 303.02 84.1945 303.019 84.1949C303.019 84.1952 303.018 84.1954 303.018 84.1955C303.018 84.1956 303.018 84.1957 303.018 84.1957C303.018 84.1956 303.018 84.1956 303.018 84.1955C303.019 84.1953 303.019 84.1952 303.02 84.1949C303.021 84.1944 303.023 84.1937 303.025 84.1927C303.03 84.1908 303.039 84.1876 303.052 84.1839C303.073 84.1777 303.125 84.1634 303.199 84.1575C303.269 84.152 303.407 84.15 303.571 84.2093C303.755 84.2756 303.935 84.4068 304.056 84.605L302.349 85.6479ZM304.771 85.3959C305.06 85.3476 305.436 85.1548 305.597 84.721C305.739 84.3404 305.629 83.995 305.501 83.7888C305.216 83.3296 304.577 83.097 304.013 83.4262L305.021 85.1538C304.838 85.2605 304.591 85.3111 304.335 85.2411C304.099 85.1766 303.915 85.0259 303.802 84.8435C303.696 84.6733 303.594 84.3696 303.722 84.0242C303.871 83.6255 304.212 83.4614 304.442 83.4231L304.771 85.3959Z" fill="#030629" mask="url(#path-81-inside-3_1142_2570)"/>
<path fill-rule="evenodd" clip-rule="evenodd" d="M274.567 47.0127C274.533 47.0302 274.5 47.0521 274.469 47.0783L274.567 47.0127ZM286.46 93.422L269.68 50.2703L274.469 47.0783C271.674 49.4685 286.476 87.8085 293.048 88.6931L327.532 83.0085C328.627 82.8279 329.758 83.0965 330.549 83.8747C334.209 87.4726 340.092 96.0641 341.92 109.519C343.877 123.914 312.566 124.241 294.139 122.413C292.369 122.238 290.966 120.881 290.676 119.126L286.506 93.8256C286.483 93.6905 286.468 93.5558 286.46 93.422Z" fill="#0A0F48"/>
<path d="M274.567 47.0127L274.456 46.7891L274.706 47.2207L274.567 47.0127ZM269.68 50.2703L269.447 50.3609L269.375 50.1737L269.542 50.0623L269.68 50.2703ZM286.46 93.422L286.693 93.3314L286.707 93.3676L286.709 93.4063L286.46 93.422ZM293.048 88.6931L293.088 88.9398L293.051 88.9459L293.014 88.9409L293.048 88.6931ZM327.532 83.0085L327.491 82.7618L327.532 83.0085ZM330.549 83.8747L330.725 83.6964L330.549 83.8747ZM341.92 109.519L341.673 109.553L341.92 109.519ZM294.139 122.413L294.114 122.662L294.139 122.413ZM290.676 119.126L290.43 119.167L290.676 119.126ZM286.506 93.8256L286.752 93.7849L286.752 93.7849L286.506 93.8256ZM274.679 47.2363C274.663 47.2443 274.647 47.2547 274.632 47.2683L274.307 46.8883C274.352 46.8494 274.402 46.816 274.456 46.7891L274.679 47.2363ZM274.33 46.8703L274.429 46.8047L274.706 47.2207L274.608 47.2864L274.33 46.8703ZM269.913 50.1797L286.693 93.3314L286.227 93.5126L269.447 50.3609L269.913 50.1797ZM274.608 47.2863L269.819 50.4783L269.542 50.0623L274.33 46.8703L274.608 47.2863ZM293.014 88.9409C292.55 88.8783 292.069 88.6537 291.581 88.3107C291.093 87.9666 290.584 87.494 290.062 86.9167C289.019 85.7621 287.903 84.1674 286.765 82.283C284.488 78.5124 282.104 73.5501 280.015 68.5466C277.926 63.5427 276.129 58.4884 275.028 54.5316C274.478 52.5545 274.099 50.8431 273.947 49.5456C273.871 48.8978 273.85 48.3422 273.896 47.9036C273.941 47.4786 274.055 47.1036 274.307 46.8883L274.632 47.2683C274.534 47.3518 274.436 47.5564 274.394 47.9561C274.353 48.3421 274.37 48.8562 274.444 49.4873C274.592 50.7474 274.962 52.4304 275.509 54.3976C276.603 58.3294 278.393 63.3636 280.476 68.354C282.56 73.3449 284.934 78.2828 287.193 82.0245C288.323 83.8961 289.42 85.4605 290.433 86.5814C290.94 87.1417 291.421 87.5859 291.869 87.9018C292.319 88.2187 292.724 88.3974 293.081 88.4454L293.014 88.9409ZM293.007 88.4465L327.491 82.7618L327.572 83.2551L293.088 88.9398L293.007 88.4465ZM327.491 82.7618C328.65 82.5708 329.866 82.8522 330.725 83.6964L330.374 84.053C329.65 83.3407 328.604 83.085 327.572 83.2551L327.491 82.7618ZM330.725 83.6964C334.423 87.3326 340.332 95.9747 342.168 109.486L341.673 109.553C339.852 96.1535 333.995 87.6126 330.374 84.053L330.725 83.6964ZM342.168 109.486C342.419 111.332 342.137 112.963 341.407 114.395C340.679 115.824 339.512 117.039 338.013 118.07C335.019 120.127 330.67 121.468 325.714 122.296C315.796 123.954 303.337 123.577 294.114 122.662L294.164 122.165C303.368 123.077 315.777 123.45 325.632 121.803C330.563 120.979 334.826 119.653 337.729 117.658C339.178 116.662 340.28 115.505 340.962 114.168C341.642 112.833 341.911 111.305 341.673 109.553L342.168 109.486ZM294.114 122.662C292.228 122.475 290.737 121.029 290.43 119.167L290.923 119.086C291.195 120.732 292.51 122.001 294.164 122.165L294.114 122.662ZM290.43 119.167L286.259 93.8662L286.752 93.7849L290.923 119.086L290.43 119.167ZM286.259 93.8662C286.235 93.7229 286.219 93.5799 286.21 93.4378L286.709 93.4063C286.717 93.5318 286.731 93.6581 286.752 93.7849L286.259 93.8662Z" fill="#FBFBFB"/>
<path d="M281.333 21.2905C279.673 21.4415 280.116 24.763 281.656 24.612C283.196 24.461 282.692 21.1496 281.333 21.2905Z" fill="#030629"/>
<path d="M289.21 19.9819C290.851 19.6397 291.425 22.931 289.905 23.2531C288.385 23.5752 287.842 20.2738 289.21 19.9819Z" fill="#030629"/>
<path d="M279.781 19.9421C280.202 19.7583 280.612 19.5499 281.009 19.318C281.471 19.1579 281.867 18.8502 282.136 18.4424C282.195 18.297 282.203 18.1365 282.162 17.9856C282.12 17.8346 282.03 17.7016 281.905 17.607C281.631 17.4586 281.322 17.3859 281.011 17.3965C280.699 17.4071 280.396 17.5006 280.133 17.6674C279.542 17.9166 279.067 18.3805 278.805 18.9658C278.752 19.1022 278.74 19.251 278.77 19.394C278.8 19.5371 278.872 19.6684 278.975 19.7718C279.078 19.8752 279.21 19.9463 279.353 19.9766C279.496 20.0068 279.645 19.9948 279.781 19.9421Z" fill="#030629"/>
<path d="M290.198 18.532C289.739 18.5038 289.282 18.45 288.83 18.371C288.341 18.3739 287.864 18.2185 287.471 17.9281C287.365 17.814 287.3 17.6677 287.287 17.5125C287.275 17.3574 287.314 17.2024 287.4 17.0726C287.607 16.8376 287.873 16.6616 288.17 16.5626C288.467 16.4636 288.785 16.4451 289.091 16.5089C289.731 16.5515 290.332 16.8272 290.782 17.2839C290.877 17.3942 290.939 17.5296 290.959 17.6739C290.978 17.8182 290.956 17.9651 290.895 18.0971C290.833 18.229 290.734 18.3402 290.611 18.4174C290.487 18.4946 290.344 18.5344 290.198 18.532Z" fill="#030629"/>
<path d="M78.5938 19.2534C78.2561 19.2288 77.9201 19.1852 77.5873 19.1225C77.2233 19.1226 76.8694 19.0023 76.5808 18.7803C76.5082 18.6867 76.4688 18.5717 76.4688 18.4532C76.4688 18.3347 76.5082 18.2197 76.5808 18.1261C76.7391 17.9517 76.9408 17.8225 77.1655 17.7518C77.3901 17.6811 77.6294 17.6713 77.8591 17.7235C78.3407 17.7578 78.7925 17.9694 79.1273 18.3173C79.2098 18.4052 79.262 18.5171 79.2762 18.6368C79.2904 18.7565 79.2658 18.8776 79.2062 18.9823C79.1465 19.087 79.0548 19.1699 78.9446 19.2186C78.8344 19.2674 78.7115 19.2796 78.5938 19.2534Z" fill="#0A0F48"/>
<path d="M68.7693 20.048C69.1115 19.9775 69.4235 19.8567 69.7758 19.7561C70.14 19.7081 70.4772 19.5377 70.7319 19.2729C70.796 19.1733 70.8257 19.0555 70.8167 18.9374C70.8076 18.8193 70.7602 18.7074 70.6816 18.6187C70.4985 18.4694 70.2792 18.3711 70.0458 18.334C69.8125 18.2969 69.5734 18.3222 69.353 18.4073C68.8843 18.5128 68.4716 18.7891 68.1956 19.1824C68.1343 19.2747 68.1016 19.383 68.1016 19.4938C68.1015 19.6047 68.1342 19.713 68.1954 19.8054C68.2566 19.8978 68.3437 19.97 68.4458 20.0132C68.5478 20.0563 68.6603 20.0684 68.7693 20.048Z" fill="#0A0F48"/>
<path d="M70.027 22.7053C68.3763 22.7053 68.5776 26.0368 70.0974 25.9966C71.6173 25.9563 71.416 22.6751 70.027 22.7053Z" fill="#0A0F48"/>
<path d="M77.7388 22.0216C79.3794 21.8203 79.6713 25.1015 78.1514 25.2927C76.6316 25.484 76.39 22.2229 77.7388 22.0216Z" fill="#0A0F48"/>
<path d="M75.6481 31.8674C75.2501 32.1896 74.8427 32.6444 74.2836 32.6444C73.7179 32.5785 73.1723 32.3945 72.6823 32.1043C72.6779 32.0993 72.6727 32.0952 72.6667 32.0923C72.6608 32.0894 72.6543 32.0876 72.6477 32.0872C72.6411 32.0868 72.6345 32.0876 72.6283 32.0897C72.622 32.0919 72.6162 32.0952 72.6112 32.0996C72.6063 32.1039 72.6022 32.1092 72.5992 32.1151C72.5963 32.1211 72.5946 32.1275 72.5941 32.1341C72.5937 32.1407 72.5946 32.1473 72.5967 32.1536C72.5988 32.1599 72.6021 32.1656 72.6065 32.1706C72.7981 32.498 73.0766 32.7659 73.411 32.9449C73.7455 33.1238 74.1229 33.2067 74.5016 33.1845C74.8197 33.1333 75.1155 32.989 75.3516 32.7697C75.5877 32.5505 75.7535 32.2662 75.8281 31.9527C75.8186 31.8674 75.705 31.82 75.6481 31.8674Z" fill="#0A0F48"/>
<path d="M288.054 32.0188C287.656 32.3409 287.249 32.7958 286.69 32.7958C286.124 32.7299 285.579 32.5459 285.089 32.2557C285.084 32.2507 285.079 32.2466 285.073 32.2437C285.067 32.2408 285.061 32.239 285.054 32.2386C285.047 32.2381 285.041 32.239 285.035 32.2411C285.028 32.2432 285.022 32.2466 285.017 32.2509C285.013 32.2553 285.008 32.2606 285.005 32.2665C285.003 32.2724 285.001 32.2789 285 32.2855C285 32.2921 285.001 32.2987 285.003 32.305C285.005 32.3112 285.008 32.317 285.013 32.322C285.204 32.6493 285.483 32.9173 285.817 33.0962C286.152 33.2752 286.529 33.3581 286.908 33.3359C287.226 33.2847 287.522 33.1403 287.758 32.9211C287.994 32.7018 288.16 32.4175 288.234 32.1041C288.225 32.0188 288.111 31.9714 288.054 32.0188Z" fill="#0A0F48"/>
</svg>
