<svg width="292" height="68" viewBox="0 0 292 68" fill="none" xmlns="http://www.w3.org/2000/svg">
<path d="M143.137 19.8125V26.5625H149.981V30.1719H143.137V43.9062C143.137 44.875 143.387 45.6406 143.887 46.2031C144.387 46.7656 145.153 47.0469 146.184 47.0469C147.122 47.0469 147.903 46.9375 148.528 46.7188C149.153 46.4688 149.7 46.2031 150.169 45.9219V49.0625C149.544 49.5625 148.872 49.9531 148.153 50.2344C147.466 50.5469 146.528 50.7031 145.341 50.7031C143.341 50.7031 141.825 50.1094 140.794 48.9219C139.794 47.7031 139.294 46.0938 139.294 44.0938V30.1719H134.794V29.0469C136.325 28.3594 137.606 27.2344 138.637 25.6719C139.669 24.0781 140.575 22.125 141.356 19.8125H143.137ZM166.772 26.0938C169.178 26.0938 171.178 26.5938 172.772 27.5938C174.366 28.5938 175.553 29.9531 176.334 31.6719C177.147 33.3906 177.553 35.3281 177.553 37.4844V39.7812H159.553C159.741 41.0938 160.194 42.2969 160.912 43.3906C161.631 44.4844 162.569 45.3594 163.725 46.0156C164.881 46.6406 166.209 46.9531 167.709 46.9531C169.397 46.9531 170.975 46.5312 172.444 45.6875C173.912 44.8125 175.147 43.8594 176.147 42.8281L176.1 47C175.662 47.5312 175.006 48.0938 174.131 48.6875C173.287 49.25 172.303 49.7188 171.178 50.0938C170.084 50.5 168.928 50.7031 167.709 50.7031C165.334 50.7031 163.225 50.1406 161.381 49.0156C159.537 47.8906 158.084 46.4062 157.022 44.5625C155.991 42.6875 155.475 40.6406 155.475 38.4219C155.475 36.2031 155.959 34.1562 156.928 32.2812C157.897 30.4062 159.225 28.9062 160.912 27.7812C162.631 26.6562 164.584 26.0938 166.772 26.0938ZM166.772 29.8438C164.834 29.8438 163.241 30.5 161.991 31.8125C160.741 33.0938 159.959 34.6562 159.647 36.5H173.756C173.6 34.9688 173.162 33.7188 172.444 32.75C171.756 31.7812 170.912 31.0625 169.912 30.5938C168.912 30.0938 167.866 29.8438 166.772 29.8438ZM191.016 26.0938C192.391 26.0938 193.672 26.2969 194.859 26.7031C196.047 27.0781 196.906 27.4688 197.437 27.875V32C196.781 31.5 195.891 31.0156 194.766 30.5469C193.641 30.0781 192.484 29.8438 191.297 29.8438C189.828 29.8438 188.719 30.1875 187.969 30.875C187.25 31.5625 186.891 32.2812 186.891 33.0312C186.891 33.625 187.094 34.2344 187.5 34.8594C187.937 35.4531 188.687 35.9375 189.75 36.3125L193.687 37.7188C195.219 38.25 196.359 39.0156 197.109 40.0156C197.859 41.0156 198.234 42.1875 198.234 43.5312C198.234 44.8438 197.859 46.0469 197.109 47.1406C196.391 48.2344 195.375 49.1094 194.062 49.7656C192.781 50.3906 191.297 50.7031 189.609 50.7031C188.703 50.7031 187.75 50.5781 186.75 50.3281C185.781 50.1094 184.906 49.8438 184.125 49.5312C183.344 49.1875 182.766 48.8906 182.391 48.6406V44.5156C182.828 44.8281 183.437 45.1875 184.219 45.5938C185.031 45.9688 185.891 46.2969 186.797 46.5781C187.703 46.8281 188.547 46.9531 189.328 46.9531C190.797 46.9531 191.953 46.625 192.797 45.9688C193.672 45.3125 194.109 44.5 194.109 43.5312C194.109 42.7812 193.812 42.1875 193.219 41.75C192.656 41.3125 191.828 40.8906 190.734 40.4844L187.266 39.2188C185.453 38.5312 184.25 37.6719 183.656 36.6406C183.062 35.5781 182.766 34.375 182.766 33.0312C182.766 31.0312 183.516 29.375 185.016 28.0625C186.516 26.75 188.516 26.0938 191.016 26.0938ZM210.712 19.8125V26.5625H217.556V30.1719H210.712V43.9062C210.712 44.875 210.962 45.6406 211.462 46.2031C211.962 46.7656 212.728 47.0469 213.759 47.0469C214.697 47.0469 215.478 46.9375 216.103 46.7188C216.728 46.4688 217.275 46.2031 217.744 45.9219V49.0625C217.119 49.5625 216.447 49.9531 215.728 50.2344C215.041 50.5469 214.103 50.7031 212.916 50.7031C210.916 50.7031 209.4 50.1094 208.369 48.9219C207.369 47.7031 206.869 46.0938 206.869 44.0938V30.1719H202.369V29.0469C203.9 28.3594 205.181 27.2344 206.212 25.6719C207.244 24.0781 208.15 22.125 208.931 19.8125H210.712ZM234.347 26.0938C236.753 26.0938 238.753 26.5938 240.347 27.5938C241.941 28.5938 243.128 29.9531 243.909 31.6719C244.722 33.3906 245.128 35.3281 245.128 37.4844V39.7812H227.128C227.316 41.0938 227.769 42.2969 228.487 43.3906C229.206 44.4844 230.144 45.3594 231.3 46.0156C232.456 46.6406 233.784 46.9531 235.284 46.9531C236.972 46.9531 238.55 46.5312 240.019 45.6875C241.487 44.8125 242.722 43.8594 243.722 42.8281L243.675 47C243.237 47.5312 242.581 48.0938 241.706 48.6875C240.862 49.25 239.878 49.7188 238.753 50.0938C237.659 50.5 236.503 50.7031 235.284 50.7031C232.909 50.7031 230.8 50.1406 228.956 49.0156C227.112 47.8906 225.659 46.4062 224.597 44.5625C223.566 42.6875 223.05 40.6406 223.05 38.4219C223.05 36.2031 223.534 34.1562 224.503 32.2812C225.472 30.4062 226.8 28.9062 228.487 27.7812C230.206 26.6562 232.159 26.0938 234.347 26.0938ZM234.347 29.8438C232.409 29.8438 230.816 30.5 229.566 31.8125C228.316 33.0938 227.534 34.6562 227.222 36.5H241.331C241.175 34.9688 240.737 33.7188 240.019 32.75C239.331 31.7812 238.487 31.0625 237.487 30.5938C236.487 30.0938 235.441 29.8438 234.347 29.8438ZM255.45 26.5625V31.25C256.356 29.6875 257.45 28.4375 258.731 27.5C260.012 26.5625 261.325 26.0938 262.669 26.0938C263.575 26.0938 264.387 26.25 265.106 26.5625V31.0156C264.106 30.4219 263.106 30.125 262.106 30.125C260.512 30.125 259.216 30.6875 258.216 31.8125C257.247 32.9375 256.325 34.2812 255.45 35.8438V50H251.606V26.5625H255.45ZM277.162 26.0938C278.537 26.0938 279.819 26.2969 281.006 26.7031C282.194 27.0781 283.053 27.4688 283.584 27.875V32C282.928 31.5 282.037 31.0156 280.912 30.5469C279.787 30.0781 278.631 29.8438 277.444 29.8438C275.975 29.8438 274.866 30.1875 274.116 30.875C273.397 31.5625 273.037 32.2812 273.037 33.0312C273.037 33.625 273.241 34.2344 273.647 34.8594C274.084 35.4531 274.834 35.9375 275.897 36.3125L279.834 37.7188C281.366 38.25 282.506 39.0156 283.256 40.0156C284.006 41.0156 284.381 42.1875 284.381 43.5312C284.381 44.8438 284.006 46.0469 283.256 47.1406C282.537 48.2344 281.522 49.1094 280.209 49.7656C278.928 50.3906 277.444 50.7031 275.756 50.7031C274.85 50.7031 273.897 50.5781 272.897 50.3281C271.928 50.1094 271.053 49.8438 270.272 49.5312C269.491 49.1875 268.912 48.8906 268.537 48.6406V44.5156C268.975 44.8281 269.584 45.1875 270.366 45.5938C271.178 45.9688 272.037 46.2969 272.944 46.5781C273.85 46.8281 274.694 46.9531 275.475 46.9531C276.944 46.9531 278.1 46.625 278.944 45.9688C279.819 45.3125 280.256 44.5 280.256 43.5312C280.256 42.7812 279.959 42.1875 279.366 41.75C278.803 41.3125 277.975 40.8906 276.881 40.4844L273.412 39.2188C271.6 38.5312 270.397 37.6719 269.803 36.6406C269.209 35.5781 268.912 34.375 268.912 33.0312C268.912 31.0312 269.662 29.375 271.162 28.0625C272.662 26.75 274.662 26.0938 277.162 26.0938Z" fill="#646DC8"/>
<path d="M20.6035 27.1985V30.4664C21.306 29.5274 22.252 28.6488 23.4369 27.8353C24.6545 27.0172 26.0455 26.6081 27.6004 26.6081C29.9467 26.6081 31.9137 27.3937 33.5014 28.9696C35.0891 30.5454 35.8805 32.9022 35.8805 36.0493V50.1204H30.0732L30.0264 36.8209C30.0264 35.2776 29.647 34.1294 28.8836 33.3717C28.153 32.614 27.132 32.2375 25.8207 32.2375C24.7857 32.2375 23.8069 32.5722 22.8936 33.2369C22.0085 33.9017 21.2451 34.6919 20.6081 35.5984V50.1251H14.8008V27.1985H20.6035ZM53.0778 26.6081C54.7872 26.6081 56.1875 26.8824 57.2834 27.4262C58.3793 27.9701 59.2505 28.5001 59.8921 29.016V34.3293C59.1006 33.7529 58.2014 33.2695 57.1945 32.8743C56.2203 32.4792 55.0167 32.284 53.5789 32.284C52.4221 32.284 51.3403 32.5722 50.3334 33.1486C49.3592 33.725 48.5818 34.4967 48.001 35.4636C47.4203 36.4305 47.1299 37.5368 47.1299 38.778C47.1299 40.656 47.7388 42.1993 48.9611 43.4079C50.1788 44.6166 51.7196 45.2255 53.5789 45.2255C55.012 45.2255 56.2156 45.0442 57.1945 44.6816C58.2014 44.2865 59.1006 43.8031 59.8921 43.2266V48.4934C59.2505 49.0373 58.384 49.5673 57.2834 50.0832C56.1875 50.5667 54.7825 50.8084 53.0778 50.8084C50.7314 50.8084 48.6427 50.2645 46.8115 49.1721C45.0131 48.0518 43.58 46.5829 42.5122 44.77C41.4771 42.9245 40.9573 40.9256 40.9573 38.778C40.9573 37.1742 41.2477 35.6449 41.8284 34.1945C42.4372 32.7395 43.2943 31.4565 44.3902 30.3362C45.4861 29.188 46.7693 28.2769 48.2305 27.6122C49.7245 26.9428 51.3403 26.6081 53.0778 26.6081ZM70.8698 17.4365V50.1204H65.0625V17.4365H70.8698ZM98.3564 27.1985V40.8605C98.3564 42.8873 97.8974 44.6444 96.9842 46.1273C96.0709 47.5777 94.8205 48.698 93.2328 49.4882C91.678 50.2738 89.9077 50.669 87.9266 50.669C85.9128 50.669 84.1143 50.2738 82.5314 49.4882C80.9765 48.7026 79.7401 47.5823 78.8269 46.1273C77.9417 44.6444 77.5015 42.8873 77.5015 40.8605V27.1985H83.3556L83.4025 39.8193C83.4025 41.6043 83.8146 42.9384 84.6389 43.8124C85.4632 44.6909 86.5591 45.1279 87.9313 45.1279C89.2754 45.1279 90.3573 44.6909 91.1768 43.8124C92.0292 42.9338 92.4554 41.6043 92.4554 39.8193V27.1985H98.3564ZM114.135 26.6081C115.385 26.6081 116.65 26.8963 117.933 27.4727C119.211 28.0491 120.279 28.8208 121.136 29.7877V27.1985H126.944V50.1251H121.136V46.2668C120.467 47.5079 119.492 48.5818 118.209 49.4882C116.931 50.3668 115.437 50.8038 113.727 50.8038C111.868 50.8038 110.144 50.3343 108.557 49.3953C107.002 48.4563 105.751 47.0942 104.805 45.3092C103.859 43.5241 103.386 41.3579 103.386 38.8198C103.386 36.2771 103.859 34.0969 104.805 32.284C105.78 30.4664 107.077 29.0765 108.693 28.1096C110.341 27.1055 112.154 26.6081 114.135 26.6081ZM115.324 32.2375C114.107 32.2375 113.053 32.5536 112.168 33.1904C111.315 33.7947 110.646 34.5989 110.154 35.5984C109.667 36.5978 109.423 37.6716 109.423 38.8198C109.423 40.5444 109.943 42.0134 110.978 43.222C112.046 44.4306 113.446 45.0396 115.184 45.0396C116.219 45.0396 117.179 44.7653 118.064 44.2214C118.977 43.6775 119.708 42.9198 120.26 41.9529C120.841 40.9535 121.132 39.7588 121.132 38.3689V35.101C120.307 34.2224 119.408 33.5251 118.434 33.0138C117.488 32.4932 116.453 32.2375 115.324 32.2375Z" fill="#274D9B"/>
<path d="M7.55397 34.1201V50.1529H1.46094V34.1201H7.55397Z" fill="#D04B54"/>
<path d="M4.10261 25.3393C6.36936 25.3393 8.20523 23.5171 8.20523 21.2672C8.20523 19.0173 6.36936 17.1904 4.10261 17.1904C1.83587 17.1904 0 19.0127 0 21.2626C0 23.5124 1.83587 25.3393 4.10261 25.3393Z" fill="#EBB129"/>
<path fill-rule="evenodd" clip-rule="evenodd" d="M1.46094 41.1769C4.89383 41.1769 7.68511 38.0717 7.68511 34.2413C7.68979 30.4109 4.9032 27.3057 1.46562 27.3057L1.46094 41.1769Z" fill="#646DC8"/>
</svg>
